{
.appVersion = "1352";
DisplayStrings = (
"/quotedblbase/quotedblleft",
"/dieresiscomb/dotaccentcomb/gravecomb/acutecomb/hungarumlautcomb/caroncomb.alt/circumflexcomb/caroncomb/brevecomb/ringcomb/ringcomb_acutecomb/tildecomb/macroncomb/hookabovecomb/dblgravecomb/breveinvertedcomb/commaturnedabovecomb/horncomb/dotbelowcomb/dieresisbelowcomb/commaaccentcomb/cedillacomb/ogonekcomb/brevebelowcomb/macronbelowcomb/strokeshortcomb/dieresiscomb.case/dotaccentcomb.case/gravecomb.case/acutecomb.case/hungarumlautcomb.case/circumflexcomb.case/caroncomb.case/brevecomb.case/ringcomb.case/tildecomb.case/macroncomb.case/hookabovecomb.case/horncomb.case/brevecomb_acutecomb/brevecomb_gravecomb/brevecomb_hookabovecomb/brevecomb_tildecomb/circumflexcomb_acutecomb/circumflexcomb/circumflexcomb_gravecomb/circumflexcomb_hookabovecomb/circumflexcomb_tildecomb/brevecomb_acutecomb.case/brevecomb_gravecomb.case/brevecomb_hookabovecomb.case/brevecomb_tildecomb.case/circumflexcomb_acutecomb.case/circumflexcomb_gravecomb.case/circumflexcomb_hookabovecomb.case/circumflexcomb_tildecomb.case",
"nn/Placeholder no/Placeholder oo/space HH/Placeholder HO/Placeholder OO\012o.,:;/ellipsis !¡?¿nn?·/bullet *#///backslash/periodcentered.loclCAT.case/periodcentered.loclCAT (){}[]-­/endash/emdash/hyphentwo _o/quotesinglbase/quotedblbase \012/quotedblleft/quotedblright/quoteleft/quoteright «»/guilsinglleft/guilsinglright \"'/leftanglebracket-math/rightanglebracket-math @/space https:////\012Tots/space els/space éssers/space humans/space neixen/space lliures/space i/space iguals/space en/space dignitat/space i/space dret/space",
"/nbspace"
);
classes = (
{
automatic = 1;

glyphs = (
{
color = 6;
glyphname = .notdef;
lastChange = "2022-06-09 17:10:02 +0000";
layers = (
{
layerId = "5E1A2ACF-25BB-4872-A226-5327BC7330DB";
paths = (
{
closed = 1;
nodes = (
"479 0 LINE",
"488 8 LINE",
"488 621 LINE",
"479 630 LINE",
"58 630 LINE",
"50 620 LINE",
"50 9 LINE",
"58 0 LINE"
);
},
{
closed = 1;
nodes = (
"154 150 LINE",
"244 316 LINE",
"154 479 LINE",
"173 514 LINE",
"263 350 LINE",
"354 514 LINE",
"373 479 LINE",
"283 314 LINE",
"373 150 LINE",
"354 116 LINE",
"263 279 LINE",
"173 116 LINE"
);
},
{
closed = 1;
nodes = (
"67 613 LINE",
"471 613 LINE",
"471 16 LINE",
"67 16 LINE"
);
},
{
closed = 1;
nodes = (
"437 49 LINE",
"437 577 LINE",
"102 577 LINE",
"102 49 LINE"
);
}
);
width = 538;
}
);
note = .notdef;
},
{
glyphname = A;
lastChange = "2022-05-31 12:05:51 +0000";
layers = (
{
anchors = (
{
name = bottom;
position = "{183, 0}";
},
{
name = ogonek;
position = "{340, 0}";
},
{
name = top;
position = "{182, 591}";
}
);
background = {
paths = (
{
closed = 1;
nodes = (
"37 0 LINE",
"78 162 LINE",
"286 162 LINE",
"328 0 LINE",
"340 0 LINE",
"189 591 LINE",
"176 591 LINE",
"25 0 LINE"
);
},
{
closed = 1;
nodes = (
"81 173 LINE",
"174 534 LINE",
"182 572 LINE",
"192 532 LINE",
"283 173 LINE"
);
}
);
};
layerId = "5E1A2ACF-25BB-4872-A226-5327BC7330DB";
paths = (
{
closed = 1;
nodes = (
"42 0 LINE",
"81 160 LINE",
"283 160 LINE",
"323 0 LINE",
"340 0 LINE",
"189 591 LINE",
"176 591 LINE",
"25 0 LINE"
);
},
{
closed = 1;
nodes = (
"179 532 LINE",
"183 549 LINE",
"187 532 LINE",
"279 176 LINE",
"85 176 LINE"
);
}
);
width = 365;
}
);
leftKerningGroup = A;
note = A;
rightKerningGroup = A;
unicode = 0041;
},
{
glyphname = AE;
lastChange = "2022-05-31 12:05:51 +0000";
layers = (
{
anchors = (
{
name = bottom;
position = "{241, 0}";
},
{
name = top;
position = "{280, 591}";
}
);
layerId = "5E1A2ACF-25BB-4872-A226-5327BC7330DB";
paths = (
{
closed = 1;
nodes = (
"20 0 LINE",
"81 160 LINE",
"294 160 LINE",
"292 176 LINE",
"87 176 LINE",
"242 588 LINE",
"226 591 LINE",
"2 0 LINE"
);
},
{
closed = 1;
nodes = (
"483 0 LINE",
"483 16 LINE",
"323 16 LINE",
"283 303 LINE",
"432 303 LINE",
"432 319 LINE",
"281 319 LINE",
"245 575 LINE",
"423 575 LINE",
"423 591 LINE",
"226 591 LINE",
"309 0 LINE"
);
}
);
width = 501;
}
);
leftKerningGroup = AE;
note = AE;
rightKerningGroup = AE;
unicode = 00C6;
},
{
glyphname = B;
lastChange = "2022-05-31 12:05:51 +0000";
layers = (
{
background = {
paths = (
{
closed = 1;
nodes = (
"232 0 LINE SMOOTH",
"305 0 OFFCURVE",
"353 16 OFFCURVE",
"353 120 CURVE SMOOTH",
"353 209 LINE SMOOTH",
"353 269 OFFCURVE",
"320 312 OFFCURVE",
"260 312 CURVE",
"316 321 OFFCURVE",
"348 363 OFFCURVE",
"348 419 CURVE SMOOTH",
"348 494 LINE SMOOTH",
"348 566 OFFCURVE",
"300 591 OFFCURVE",
"241 591 CURVE SMOOTH",
"80 591 LINE",
"80 0 LINE"
);
},
{
closed = 1;
nodes = (
"92 306 LINE",
"225 306 LINE SMOOTH",
"289 306 OFFCURVE",
"341 287 OFFCURVE",
"341 214 CURVE SMOOTH",
"341 125 LINE SMOOTH",
"341 26 OFFCURVE",
"299 11 OFFCURVE",
"229 11 CURVE SMOOTH",
"92 11 LINE"
);
},
{
closed = 1;
nodes = (
"92 580 LINE",
"241 580 LINE SMOOTH",
"296 580 OFFCURVE",
"336 553 OFFCURVE",
"336 496 CURVE SMOOTH",
"336 420 LINE SMOOTH",
"336 355 OFFCURVE",
"297 317 OFFCURVE",
"220 317 CURVE SMOOTH",
"92 317 LINE"
);
}
);
};
layerId = "5E1A2ACF-25BB-4872-A226-5327BC7330DB";
paths = (
{
closed = 1;
nodes = (
"230 0 LINE SMOOTH",
"303 0 OFFCURVE",
"353 16 OFFCURVE",
"353 120 CURVE SMOOTH",
"353 209 LINE SMOOTH",
"353 269 OFFCURVE",
"318 312 OFFCURVE",
"258 312 CURVE",
"314 321 OFFCURVE",
"348 363 OFFCURVE",
"348 419 CURVE SMOOTH",
"348 494 LINE SMOOTH",
"348 566 OFFCURVE",
"300 591 OFFCURVE",
"239 591 CURVE SMOOTH",
"76 591 LINE",
"76 0 LINE"
);
},
{
closed = 1;
nodes = (
"92 303 LINE",
"223 303 LINE SMOOTH",
"287 303 OFFCURVE",
"337 284 OFFCURVE",
"337 214 CURVE SMOOTH",
"337 125 LINE SMOOTH",
"337 31 OFFCURVE",
"297 16 OFFCURVE",
"227 16 CURVE SMOOTH",
"92 16 LINE"
);
},
{
closed = 1;
nodes = (
"92 575 LINE",
"239 575 LINE SMOOTH",
"292 575 OFFCURVE",
"332 548 OFFCURVE",
"332 496 CURVE SMOOTH",
"332 420 LINE SMOOTH",
"332 357 OFFCURVE",
"293 319 OFFCURVE",
"218 319 CURVE SMOOTH",
"92 319 LINE"
);
}
);
width = 414;
}
);
leftKerningGroup = H;
leftMetricsKey = H;
note = B;
rightKerningGroup = B;
unicode = 0042;
},
{
glyphname = C;
lastChange = "2022-05-31 12:05:51 +0000";
layers = (
{
anchors = (
{
name = bottom;
position = "{204, -9}";
},
{
name = top;
position = "{204, 591}";
}
);
layerId = "5E1A2ACF-25BB-4872-A226-5327BC7330DB";
paths = (
{
closed = 1;
nodes = (
"282 -12 OFFCURVE",
"340 2 OFFCURVE",
"340 118 CURVE SMOOTH",
"340 189 LINE",
"324 189 LINE",
"324 116 LINE SMOOTH",
"324 19 OFFCURVE",
"273 4 OFFCURVE",
"203 4 CURVE SMOOTH",
"138 4 OFFCURVE",
"83 19 OFFCURVE",
"83 116 CURVE SMOOTH",
"83 467 LINE SMOOTH",
"83 566 OFFCURVE",
"128 583 OFFCURVE",
"203 583 CURVE SMOOTH",
"274 583 OFFCURVE",
"324 568 OFFCURVE",
"324 473 CURVE SMOOTH",
"324 381 LINE",
"340 381 LINE",
"340 469 LINE SMOOTH",
"340 583 OFFCURVE",
"281 599 OFFCURVE",
"204 599 CURVE SMOOTH",
"127 599 OFFCURVE",
"67 585 OFFCURVE",
"67 469 CURVE SMOOTH",
"67 118 LINE SMOOTH",
"67 4 OFFCURVE",
"126 -12 OFFCURVE",
"202 -12 CURVE SMOOTH"
);
}
);
width = 404;
}
);
leftKerningGroup = O;
leftMetricsKey = O;
note = C;
rightKerningGroup = C;
unicode = 0043;
},
{
glyphname = D;
lastChange = "2022-05-31 12:05:51 +0000";
layers = (
{
anchors = (
{
name = bottom;
position = "{188, 0}";
},
{
name = center;
position = "{120, 296}";
},
{
name = top;
position = "{194, 591}";
}
);
layerId = "5E1A2ACF-25BB-4872-A226-5327BC7330DB";
paths = (
{
closed = 1;
nodes = (
"232 0 LINE SMOOTH",
"308 0 OFFCURVE",
"357 25 OFFCURVE",
"357 130 CURVE SMOOTH",
"357 461 LINE SMOOTH",
"357 566 OFFCURVE",
"303 591 OFFCURVE",
"232 591 CURVE SMOOTH",
"76 591 LINE",
"76 0 LINE"
);
},
{
closed = 1;
nodes = (
"92 576 LINE",
"232 576 LINE SMOOTH",
"301 576 OFFCURVE",
"341 546 OFFCURVE",
"341 455 CURVE SMOOTH",
"341 135 LINE SMOOTH",
"341 39 OFFCURVE",
"300 16 OFFCURVE",
"232 16 CURVE SMOOTH",
"92 16 LINE"
);
}
);
width = 424;
}
);
leftKerningGroup = H;
leftMetricsKey = H;
note = D;
rightKerningGroup = O;
rightMetricsKey = O;
unicode = 0044;
},
{
glyphname = E;
lastChange = "2022-05-31 12:05:51 +0000";
layers = (
{
anchors = (
{
name = bottom;
position = "{198, 0}";
},
{
name = ogonek;
position = "{302, 0}";
},
{
name = top;
position = "{198, 591}";
},
{
name = topleft;
position = "{47, 591}";
}
);
background = {
paths = (
{
closed = 1;
nodes = (
"318 0 LINE",
"318 11 LINE",
"89 11 LINE",
"89 306 LINE",
"267 306 LINE",
"267 317 LINE",
"89 317 LINE",
"89 580 LINE",
"318 580 LINE",
"318 591 LINE",
"77 591 LINE",
"77 0 LINE"
);
}
);
};
layerId = "5E1A2ACF-25BB-4872-A226-5327BC7330DB";
paths = (
{
closed = 1;
nodes = (
"321 0 LINE",
"321 16 LINE",
"92 16 LINE",
"92 303 LINE",
"270 303 LINE",
"270 319 LINE",
"92 319 LINE",
"92 575 LINE",
"321 575 LINE",
"321 591 LINE",
"76 591 LINE",
"76 0 LINE"
);
}
);
width = 346;
}
);
leftKerningGroup = H;
leftMetricsKey = H;
note = E;
rightKerningGroup = E;
unicode = 0045;
},
{
glyphname = F;
lastChange = "2022-05-31 12:05:51 +0000";
layers = (
{
background = {
paths = (
{
closed = 1;
nodes = (
"92 0 LINE",
"92 306 LINE",
"270 306 LINE",
"270 317 LINE",
"92 317 LINE",
"92 580 LINE",
"321 580 LINE",
"321 591 LINE",
"80 591 LINE",
"80 0 LINE"
);
}
);
};
layerId = "5E1A2ACF-25BB-4872-A226-5327BC7330DB";
paths = (
{
closed = 1;
nodes = (
"92 0 LINE",
"92 303 LINE",
"270 303 LINE",
"270 319 LINE",
"92 319 LINE",
"92 575 LINE",
"321 575 LINE",
"321 591 LINE",
"76 591 LINE",
"76 0 LINE"
);
}
);
width = 339;
}
);
leftKerningGroup = H;
leftMetricsKey = H;
note = F;
rightKerningGroup = F;
unicode = 0046;
},
{
glyphname = G;
lastChange = "2022-05-31 12:05:51 +0000";
layers = (
{
anchors = (
{
name = bottom;
position = "{205, 0}";
},
{
name = top;
position = "{205, 591}";
}
);
layerId = "5E1A2ACF-25BB-4872-A226-5327BC7330DB";
paths = (
{
closed = 1;
nodes = (
"267 -12 OFFCURVE",
"317 27 OFFCURVE",
"328 63 CURVE",
"328 0 LINE",
"344 0 LINE",
"344 271 LINE",
"221 271 LINE",
"221 256 LINE",
"328 256 LINE",
"328 125 LINE SMOOTH",
"328 49 OFFCURVE",
"275 4 OFFCURVE",
"207 4 CURVE SMOOTH",
"138 4 OFFCURVE",
"83 18 OFFCURVE",
"83 125 CURVE SMOOTH",
"83 468 LINE SMOOTH",
"83 566 OFFCURVE",
"130 583 OFFCURVE",
"207 583 CURVE SMOOTH",
"284 583 OFFCURVE",
"328 566 OFFCURVE",
"328 468 CURVE SMOOTH",
"328 401 LINE",
"344 401 LINE",
"344 469 LINE SMOOTH",
"344 583 OFFCURVE",
"288 599 OFFCURVE",
"209 599 CURVE SMOOTH",
"130 599 OFFCURVE",
"67 585 OFFCURVE",
"67 469 CURVE SMOOTH",
"67 118 LINE SMOOTH",
"67 4 OFFCURVE",
"130 -12 OFFCURVE",
"206 -12 CURVE SMOOTH"
);
}
);
width = 410;
}
);
leftKerningGroup = O;
leftMetricsKey = O;
note = G;
rightKerningGroup = G;
unicode = 0047;
},
{
glyphname = H;
lastChange = "2022-05-31 12:05:51 +0000";
layers = (
{
anchors = (
{
name = bottom;
position = "{217, 0}";
},
{
name = center;
position = "{217, 296}";
},
{
name = top;
position = "{217, 591}";
},
{
name = topleft;
position = "{50, 591}";
}
);
layerId = "5E1A2ACF-25BB-4872-A226-5327BC7330DB";
paths = (
{
closed = 1;
nodes = (
"92 0 LINE",
"92 302 LINE",
"341 302 LINE",
"341 0 LINE",
"357 0 LINE",
"357 591 LINE",
"341 591 LINE",
"341 318 LINE",
"92 318 LINE",
"92 591 LINE",
"76 591 LINE",
"76 0 LINE"
);
}
);
width = 433;
}
);
leftKerningGroup = H;
note = H;
rightKerningGroup = H;
unicode = 0048;
},
{
color = 3;
glyphname = Hbar;
lastChange = "2022-05-31 12:05:51 +0000";
layers = (
{
background = {
paths = (
{
closed = 1;
nodes = (
"99 0 LINE",
"99 306 LINE",
"348 306 LINE",
"348 0 LINE",
"360 0 LINE",
"360 494 LINE",
"410 494 LINE",
"410 504 LINE",
"360 504 LINE",
"360 591 LINE",
"348 591 LINE",
"348 504 LINE",
"99 504 LINE",
"99 591 LINE",
"87 591 LINE",
"87 504 LINE",
"38 504 LINE",
"38 494 LINE",
"87 494 LINE",
"87 0 LINE"
);
},
{
closed = 1;
nodes = (
"99 494 LINE",
"348 494 LINE",
"348 317 LINE",
"99 317 LINE"
);
}
);
};
layerId = "5E1A2ACF-25BB-4872-A226-5327BC7330DB";
paths = (
{
closed = 1;
nodes = (
"92 0 LINE",
"92 302 LINE",
"341 302 LINE",
"341 0 LINE",
"357 0 LINE",
"357 591 LINE",
"341 591 LINE",
"341 318 LINE",
"92 318 LINE",
"92 591 LINE",
"76 591 LINE",
"76 0 LINE"
);
},
{
closed = 1;
nodes = (
"407 451 LINE",
"407 466 LINE",
"26 466 LINE",
"26 451 LINE"
);
}
);
width = 433;
}
);
leftKerningGroup = H;
note = Hbar;
rightKerningGroup = H;
unicode = 0126;
},
{
glyphname = I;
lastChange = "2022-05-31 12:05:51 +0000";
layers = (
{
anchors = (
{
name = bottom;
position = "{85, 0}";
},
{
name = ogonek;
position = "{91, 0}";
},
{
name = top;
position = "{85, 591}";
},
{
name = topleft;
position = "{49, 591}";
}
);
layerId = "5E1A2ACF-25BB-4872-A226-5327BC7330DB";
paths = (
{
closed = 1;
nodes = (
"92 0 LINE",
"92 591 LINE",
"76 591 LINE",
"76 0 LINE"
);
}
);
width = 168;
}
);
leftKerningGroup = H;
leftMetricsKey = H;
note = I;
rightKerningGroup = H;
rightMetricsKey = H;
unicode = 0049;
},
{
glyphname = J;
lastChange = "2022-05-31 12:05:51 +0000";
layers = (
{
anchors = (
{
name = bottom;
position = "{91, 0}";
},
{
name = top;
position = "{111, 591}";
}
);
layerId = "5E1A2ACF-25BB-4872-A226-5327BC7330DB";
paths = (
{
closed = 1;
nodes = (
"20 0 LINE SMOOTH",
"55 0 OFFCURVE",
"79 4 OFFCURVE",
"94 15 CURVE SMOOTH",
"119 32 OFFCURVE",
"121 57 OFFCURVE",
"121 117 CURVE SMOOTH",
"121 591 LINE",
"105 591 LINE",
"105 92 LINE SMOOTH",
"105 62 OFFCURVE",
"98 36 OFFCURVE",
"83 26 CURVE SMOOTH",
"70 17 OFFCURVE",
"50 16 OFFCURVE",
"23 16 CURVE SMOOTH",
"0 16 LINE",
"0 0 LINE"
);
}
);
width = 197;
}
);
leftKerningGroup = J;
note = J;
rightKerningGroup = J;
rightMetricsKey = H;
unicode = 004A;
},
{
glyphname = K;
lastChange = "2022-05-31 12:05:51 +0000";
layers = (
{
anchors = (
{
name = bottom;
position = "{186, 0}";
},
{
name = top;
position = "{187, 591}";
}
);
layerId = "5E1A2ACF-25BB-4872-A226-5327BC7330DB";
paths = (
{
closed = 1;
nodes = (
"323 0 LINE",
"138 306 LINE",
"319 591 LINE",
"300 591 LINE",
"120 306 LINE",
"304 0 LINE"
);
},
{
closed = 1;
nodes = (
"92 0 LINE",
"92 591 LINE",
"76 591 LINE",
"76 0 LINE"
);
}
);
width = 336;
}
);
leftKerningGroup = H;
leftMetricsKey = H;
note = K;
rightKerningGroup = K;
unicode = 004B;
},
{
glyphname = L;
lastChange = "2022-05-31 12:05:51 +0000";
layers = (
{
anchors = (
{
name = bottom;
position = "{181, 0}";
},
{
name = center;
position = "{159, 296}";
},
{
name = top;
position = "{82, 591}";
},
{
name = topright;
position = "{215, 495}";
}
);
layerId = "5E1A2ACF-25BB-4872-A226-5327BC7330DB";
paths = (
{
closed = 1;
nodes = (
"290 0 LINE",
"290 16 LINE",
"92 16 LINE",
"92 591 LINE",
"76 591 LINE",
"76 0 LINE"
);
}
);
width = 294;
}
);
leftKerningGroup = H;
leftMetricsKey = H;
note = L;
rightKerningGroup = L;
unicode = 004C;
},
{
color = 3;
glyphname = Ldot;
lastChange = "2022-05-31 12:05:51 +0000";
layers = (
{
layerId = "5E1A2ACF-25BB-4872-A226-5327BC7330DB";
paths = (
{
closed = 1;
nodes = (
"290 0 LINE",
"290 16 LINE",
"92 16 LINE",
"92 591 LINE",
"76 591 LINE",
"76 0 LINE"
);
},
{
closed = 1;
nodes = (
"242 288 OFFCURVE",
"247 293 OFFCURVE",
"247 304 CURVE SMOOTH",
"247 315 OFFCURVE",
"242 320 OFFCURVE",
"231 320 CURVE SMOOTH",
"220 320 OFFCURVE",
"215 315 OFFCURVE",
"215 304 CURVE SMOOTH",
"215 293 OFFCURVE",
"220 288 OFFCURVE",
"231 288 CURVE SMOOTH"
);
}
);
width = 294;
}
);
leftKerningGroup = H;
leftMetricsKey = H;
widthMetricsKey = L;
rightKerningGroup = L;
unicode = 013F;
},
{
color = 3;
glyphname = Lslash;
lastChange = "2022-05-31 12:05:51 +0000";
layers = (
{
layerId = "5E1A2ACF-25BB-4872-A226-5327BC7330DB";
paths = (
{
closed = 1;
nodes = (
"290 0 LINE",
"290 16 LINE",
"92 16 LINE",
"92 332 LINE",
"175 371 LINE",
"175 388 LINE",
"92 350 LINE",
"92 591 LINE",
"76 591 LINE",
"76 342 LINE",
"12 313 LINE",
"12 295 LINE",
"76 325 LINE",
"76 0 LINE"
);
}
);
width = 294;
}
);
leftKerningGroup = H;
widthMetricsKey = L;
note = Lslash;
rightKerningGroup = L;
rightMetricsKey = L;
unicode = 0141;
},
{
glyphname = M;
lastChange = "2022-05-31 12:05:51 +0000";
layers = (
{
layerId = "5E1A2ACF-25BB-4872-A226-5327BC7330DB";
paths = (
{
closed = 1;
nodes = (
"92 0 LINE",
"92 537 LINE",
"256 0 LINE",
"270 0 LINE",
"434 537 LINE",
"434 0 LINE",
"450 0 LINE",
"450 591 LINE",
"434 591 LINE",
"263 32 LINE",
"93 591 LINE",
"76 591 LINE",
"76 0 LINE"
);
}
);
width = 526;
}
);
leftKerningGroup = H;
leftMetricsKey = H;
note = M;
rightKerningGroup = H;
rightMetricsKey = H;
unicode = 004D;
},
{
glyphname = N;
lastChange = "2022-05-31 12:05:51 +0000";
layers = (
{
anchors = (
{
name = bottom;
position = "{221, 0}";
},
{
name = top;
position = "{227, 591}";
}
);
layerId = "5E1A2ACF-25BB-4872-A226-5327BC7330DB";
paths = (
{
closed = 1;
nodes = (
"92 0 LINE",
"92 565 LINE",
"337 0 LINE",
"358 0 LINE",
"358 591 LINE",
"342 591 LINE",
"342 29 LINE",
"98 591 LINE",
"76 591 LINE",
"76 0 LINE"
);
}
);
width = 434;
}
);
leftKerningGroup = H;
leftMetricsKey = H;
note = N;
rightKerningGroup = H;
rightMetricsKey = H;
unicode = 004E;
},
{
color = 3;
glyphname = Eng;
lastChange = "2022-05-31 12:05:51 +0000";
layers = (
{
layerId = "5E1A2ACF-25BB-4872-A226-5327BC7330DB";
paths = (
{
closed = 1;
nodes = (
"357 0 LINE",
"357 591 LINE",
"342 591 LINE",
"342 29 LINE",
"98 591 LINE",
"76 591 LINE",
"76 0 LINE",
"92 0 LINE",
"92 565 LINE",
"347 -23 LINE"
);
},
{
closed = 1;
nodes = (
"333 -116 OFFCURVE",
"357 -86 OFFCURVE",
"357 -33 CURVE SMOOTH",
"357 0 LINE",
"341 0 LINE",
"341 -32 LINE SMOOTH",
"341 -68 OFFCURVE",
"328 -101 OFFCURVE",
"285 -101 CURVE SMOOTH",
"266 -101 OFFCURVE",
"249 -99 OFFCURVE",
"235 -97 CURVE",
"235 -113 LINE",
"234 -113 OFFCURVE",
"259 -116 OFFCURVE",
"284 -116 CURVE SMOOTH"
);
}
);
width = 433;
}
);
leftKerningGroup = H;
leftMetricsKey = N;
note = Eng;
rightKerningGroup = H;
rightMetricsKey = N;
unicode = 014A;
},
{
glyphname = O;
lastChange = "2022-05-31 12:05:51 +0000";
layers = (
{
anchors = (
{
name = bottom;
position = "{207, 0}";
},
{
name = center;
position = "{207, 296}";
},
{
name = ogonek;
position = "{233, -3}";
},
{
name = top;
position = "{206, 591}";
},
{
name = topleft;
position = "{46, 591}";
},
{
name = topright;
position = "{261, 591}";
}
);
background = {
paths = (
{
closed = 1;
nodes = (
"348 469 LINE SMOOTH",
"348 583 OFFCURVE",
"285 599 OFFCURVE",
"208 599 CURVE SMOOTH",
"131 599 OFFCURVE",
"67 585 OFFCURVE",
"67 469 CURVE SMOOTH",
"67 118 LINE SMOOTH",
"67 4 OFFCURVE",
"130 -12 OFFCURVE",
"206 -12 CURVE SMOOTH",
"286 -12 OFFCURVE",
"348 2 OFFCURVE",
"348 118 CURVE SMOOTH"
);
},
{
closed = 1;
nodes = (
"332 121 LINE SMOOTH",
"332 17 OFFCURVE",
"277 4 OFFCURVE",
"207 4 CURVE SMOOTH",
"138 4 OFFCURVE",
"83 17 OFFCURVE",
"83 121 CURVE SMOOTH",
"83 466 LINE SMOOTH",
"83 570 OFFCURVE",
"138 583 OFFCURVE",
"207 583 CURVE SMOOTH",
"275 583 OFFCURVE",
"332 570 OFFCURVE",
"332 466 CURVE SMOOTH"
);
}
);
};
layerId = "5E1A2ACF-25BB-4872-A226-5327BC7330DB";
paths = (
{
closed = 1;
nodes = (
"310 -12 OFFCURVE",
"348 22 OFFCURVE",
"348 118 CURVE SMOOTH",
"348 469 LINE SMOOTH",
"348 561 OFFCURVE",
"311 599 OFFCURVE",
"208 599 CURVE SMOOTH",
"109 599 OFFCURVE",
"67 565 OFFCURVE",
"67 469 CURVE SMOOTH",
"67 118 LINE SMOOTH",
"67 20 OFFCURVE",
"109 -12 OFFCURVE",
"206 -12 CURVE SMOOTH"
);
},
{
closed = 1;
nodes = (
"117 4 OFFCURVE",
"83 35 OFFCURVE",
"83 121 CURVE SMOOTH",
"83 466 LINE SMOOTH",
"83 550 OFFCURVE",
"115 583 OFFCURVE",
"207 583 CURVE SMOOTH",
"300 583 OFFCURVE",
"332 549 OFFCURVE",
"332 466 CURVE SMOOTH",
"332 121 LINE SMOOTH",
"332 37 OFFCURVE",
"300 4 OFFCURVE",
"207 4 CURVE SMOOTH"
);
}
);
width = 415;
}
);
leftKerningGroup = O;
note = O;
rightKerningGroup = O;
unicode = 004F;
},
{
glyphname = Oslash;
lastChange = "2022-05-31 12:05:51 +0000";
layers = (
{
anchors = (
{
name = bottom;
position = "{212, 0}";
},
{
name = center;
position = "{207, 296}";
},
{
name = ogonek;
position = "{233, -3}";
},
{
name = top;
position = "{201, 589}";
},
{
name = topleft;
position = "{46, 591}";
},
{
name = topright;
position = "{261, 591}";
}
);
layerId = "5E1A2ACF-25BB-4872-A226-5327BC7330DB";
paths = (
{
closed = 1;
nodes = (
"48 -56 LINE",
"90 28 LINE",
"115 -6 OFFCURVE",
"158 -12 OFFCURVE",
"206 -12 CURVE SMOOTH",
"286 -12 OFFCURVE",
"348 2 OFFCURVE",
"348 118 CURVE SMOOTH",
"348 469 LINE SMOOTH",
"348 490 OFFCURVE",
"346 508 OFFCURVE",
"342 524 CURVE",
"391 621 LINE",
"374 621 LINE",
"334 543 LINE",
"312 591 OFFCURVE",
"264 599 OFFCURVE",
"208 599 CURVE SMOOTH",
"131 599 OFFCURVE",
"67 585 OFFCURVE",
"67 469 CURVE SMOOTH",
"67 118 LINE SMOOTH",
"67 86 OFFCURVE",
"72 62 OFFCURVE",
"81 44 CURVE",
"30 -56 LINE"
);
},
{
closed = 1;
nodes = (
"161 4 OFFCURVE",
"121 10 OFFCURVE",
"99 45 CURVE",
"330 500 LINE",
"331 490 OFFCURVE",
"332 479 OFFCURVE",
"332 466 CURVE SMOOTH",
"332 121 LINE SMOOTH",
"332 17 OFFCURVE",
"277 4 OFFCURVE",
"207 4 CURVE SMOOTH"
);
},
{
closed = 1;
nodes = (
"86 79 OFFCURVE",
"83 98 OFFCURVE",
"83 121 CURVE SMOOTH",
"83 466 LINE SMOOTH",
"83 570 OFFCURVE",
"138 583 OFFCURVE",
"207 583 CURVE SMOOTH",
"260 583 OFFCURVE",
"306 575 OFFCURVE",
"324 523 CURVE",
"91 64 LINE"
);
}
);
width = 415;
}
);
leftKerningGroup = O;
note = Oslash;
rightKerningGroup = O;
unicode = 00D8;
},
{
glyphname = OE;
lastChange = "2022-05-31 12:05:51 +0000";
layers = (
{
anchors = (
{
name = bottom;
position = "{454, 0}";
},
{
name = center;
position = "{207, 296}";
},
{
name = ogonek;
position = "{558, 0}";
},
{
name = top;
position = "{454, 591}";
},
{
name = topleft;
position = "{303, 591}";
},
{
name = topright;
position = "{261, 591}";
}
);
background = {
paths = (
{
closed = 1;
nodes = (
"261 -12 OFFCURVE",
"307 -4 OFFCURVE",
"328 45 CURVE",
"328 0 LINE",
"569 0 LINE",
"569 11 LINE",
"340 11 LINE",
"340 306 LINE",
"518 306 LINE",
"518 317 LINE",
"340 317 LINE",
"340 580 LINE",
"569 580 LINE",
"569 591 LINE",
"328 591 LINE",
"328 541 LINE",
"307 590 OFFCURVE",
"261 599 OFFCURVE",
"204 599 CURVE SMOOTH",
"127 599 OFFCURVE",
"67 585 OFFCURVE",
"67 469 CURVE SMOOTH",
"67 118 LINE SMOOTH",
"67 4 OFFCURVE",
"126 -12 OFFCURVE",
"202 -12 CURVE SMOOTH"
);
},
{
closed = 1;
nodes = (
"134 -3 OFFCURVE",
"79 10 OFFCURVE",
"79 114 CURVE SMOOTH",
"79 472 LINE SMOOTH",
"79 576 OFFCURVE",
"134 589 OFFCURVE",
"203 589 CURVE SMOOTH",
"271 589 OFFCURVE",
"328 576 OFFCURVE",
"328 472 CURVE SMOOTH",
"328 106 LINE SMOOTH",
"328 9 OFFCURVE",
"271 -3 OFFCURVE",
"203 -3 CURVE SMOOTH"
);
}
);
};
layerId = "5E1A2ACF-25BB-4872-A226-5327BC7330DB";
paths = (
{
closed = 1;
nodes = (
"262 -12 OFFCURVE",
"309 -5 OFFCURVE",
"332 38 CURVE",
"332 0 LINE",
"577 0 LINE",
"577 16 LINE",
"348 16 LINE",
"348 303 LINE",
"526 303 LINE",
"526 319 LINE",
"348 319 LINE",
"348 575 LINE",
"577 575 LINE",
"577 591 LINE",
"332 591 LINE",
"332 548 LINE",
"309 591 OFFCURVE",
"262 599 OFFCURVE",
"208 599 CURVE SMOOTH",
"131 599 OFFCURVE",
"67 585 OFFCURVE",
"67 469 CURVE SMOOTH",
"67 118 LINE SMOOTH",
"67 4 OFFCURVE",
"130 -12 OFFCURVE",
"206 -12 CURVE SMOOTH"
);
},
{
closed = 1;
nodes = (
"138 4 OFFCURVE",
"83 17 OFFCURVE",
"83 121 CURVE SMOOTH",
"83 466 LINE SMOOTH",
"83 570 OFFCURVE",
"138 583 OFFCURVE",
"207 583 CURVE SMOOTH",
"275 583 OFFCURVE",
"332 570 OFFCURVE",
"332 466 CURVE SMOOTH",
"332 121 LINE SMOOTH",
"332 17 OFFCURVE",
"277 4 OFFCURVE",
"207 4 CURVE SMOOTH"
);
}
);
width = 602;
}
);
leftKerningGroup = O;
leftMetricsKey = O;
note = OE;
rightKerningGroup = E;
rightMetricsKey = E;
unicode = 0152;
},
{
glyphname = P;
lastChange = "2022-05-31 12:05:51 +0000";
layers = (
{
layerId = "5E1A2ACF-25BB-4872-A226-5327BC7330DB";
paths = (
{
closed = 1;
nodes = (
"92 0 LINE",
"92 271 LINE",
"203 271 LINE SMOOTH",
"325 271 OFFCURVE",
"352 313 OFFCURVE",
"352 418 CURVE SMOOTH",
"352 494 LINE SMOOTH",
"352 569 OFFCURVE",
"308 591 OFFCURVE",
"228 591 CURVE SMOOTH",
"76 591 LINE",
"76 0 LINE"
);
},
{
closed = 1;
nodes = (
"92 575 LINE",
"227 575 LINE SMOOTH",
"312 575 OFFCURVE",
"336 551 OFFCURVE",
"336 471 CURVE SMOOTH",
"336 417 LINE SMOOTH",
"336 320 OFFCURVE",
"312 287 OFFCURVE",
"203 287 CURVE SMOOTH",
"92 287 LINE"
);
}
);
width = 387;
}
);
leftKerningGroup = H;
leftMetricsKey = H;
note = P;
rightKerningGroup = P;
unicode = 0050;
},
{
glyphname = Thorn;
lastChange = "2022-05-31 12:05:51 +0000";
layers = (
{
layerId = "5E1A2ACF-25BB-4872-A226-5327BC7330DB";
paths = (
{
closed = 1;
nodes = (
"92 0 LINE",
"92 151 LINE",
"226 151 LINE SMOOTH",
"320 151 OFFCURVE",
"346 211 OFFCURVE",
"346 270 CURVE SMOOTH",
"346 374 LINE SMOOTH",
"346 446 OFFCURVE",
"297 471 OFFCURVE",
"240 471 CURVE SMOOTH",
"92 471 LINE",
"92 591 LINE",
"76 591 LINE",
"76 0 LINE"
);
},
{
closed = 1;
nodes = (
"92 455 LINE",
"244 455 LINE SMOOTH",
"289 455 OFFCURVE",
"330 428 OFFCURVE",
"330 371 CURVE SMOOTH",
"330 270 LINE SMOOTH",
"330 197 OFFCURVE",
"287 167 OFFCURVE",
"222 167 CURVE SMOOTH",
"92 167 LINE"
);
}
);
width = 383;
}
);
leftKerningGroup = H;
leftMetricsKey = H;
note = Thorn;
rightKerningGroup = Thorn;
unicode = 00DE;
},
{
glyphname = Q;
lastChange = "2022-05-31 12:05:51 +0000";
layers = (
{
layerId = "5E1A2ACF-25BB-4872-A226-5327BC7330DB";
paths = (
{
closed = 1;
nodes = (
"330 -101 LINE",
"275 -5 LINE",
"319 7 OFFCURVE",
"348 38 OFFCURVE",
"348 118 CURVE SMOOTH",
"348 469 LINE SMOOTH",
"348 583 OFFCURVE",
"285 599 OFFCURVE",
"208 599 CURVE SMOOTH",
"131 599 OFFCURVE",
"67 585 OFFCURVE",
"67 469 CURVE SMOOTH",
"67 118 LINE SMOOTH",
"67 4 OFFCURVE",
"130 -12 OFFCURVE",
"206 -12 CURVE SMOOTH",
"225 -12 OFFCURVE",
"242 -11 OFFCURVE",
"258 -9 CURVE",
"317 -110 LINE"
);
},
{
closed = 1;
nodes = (
"138 4 OFFCURVE",
"83 17 OFFCURVE",
"83 121 CURVE SMOOTH",
"83 466 LINE SMOOTH",
"83 570 OFFCURVE",
"138 583 OFFCURVE",
"207 583 CURVE SMOOTH",
"275 583 OFFCURVE",
"332 570 OFFCURVE",
"332 466 CURVE SMOOTH",
"332 121 LINE SMOOTH",
"332 17 OFFCURVE",
"277 4 OFFCURVE",
"207 4 CURVE SMOOTH"
);
}
);
width = 415;
}
);
leftKerningGroup = O;
leftMetricsKey = O;
note = Q;
rightKerningGroup = O;
rightMetricsKey = O;
unicode = 0051;
},
{
glyphname = R;
lastChange = "2022-05-31 12:05:51 +0000";
layers = (
{
anchors = (
{
name = bottom;
position = "{209, 0}";
},
{
name = top;
position = "{204, 591}";
}
);
background = {
paths = (
{
closed = 1;
nodes = (
"93 0 LINE",
"93 292 LINE",
"212 292 LINE SMOOTH",
"253 292 OFFCURVE",
"279 257 OFFCURVE",
"295 205 CURVE SMOOTH",
"356 0 LINE",
"370 0 LINE",
"301 224 LINE SMOOTH",
"290 256 OFFCURVE",
"268 293 OFFCURVE",
"235 296 CURVE",
"298 296 OFFCURVE",
"349 328 OFFCURVE",
"349 411 CURVE SMOOTH",
"349 494 LINE SMOOTH",
"349 566 OFFCURVE",
"300 591 OFFCURVE",
"243 591 CURVE SMOOTH",
"81 591 LINE",
"81 0 LINE"
);
},
{
closed = 1;
nodes = (
"93 303 LINE",
"93 580 LINE",
"251 580 LINE SMOOTH",
"296 580 OFFCURVE",
"337 553 OFFCURVE",
"337 496 CURVE SMOOTH",
"337 409 LINE SMOOTH",
"337 331 OFFCURVE",
"286 303 OFFCURVE",
"218 303 CURVE SMOOTH"
);
}
);
};
layerId = "5E1A2ACF-25BB-4872-A226-5327BC7330DB";
paths = (
{
closed = 1;
nodes = (
"92 0 LINE",
"92 287 LINE",
"203 287 LINE SMOOTH",
"252 287 OFFCURVE",
"278 252 OFFCURVE",
"294 200 CURVE SMOOTH",
"355 0 LINE",
"372 0 LINE",
"303 224 LINE SMOOTH",
"293 256 OFFCURVE",
"269 288 OFFCURVE",
"248 291 CURVE",
"297 297 OFFCURVE",
"348 328 OFFCURVE",
"348 411 CURVE SMOOTH",
"348 494 LINE SMOOTH",
"348 566 OFFCURVE",
"299 591 OFFCURVE",
"242 591 CURVE SMOOTH",
"76 591 LINE",
"76 0 LINE"
);
},
{
closed = 1;
nodes = (
"92 575 LINE",
"246 575 LINE SMOOTH",
"291 575 OFFCURVE",
"332 548 OFFCURVE",
"332 491 CURVE SMOOTH",
"332 409 LINE SMOOTH",
"332 331 OFFCURVE",
"281 303 OFFCURVE",
"213 303 CURVE SMOOTH",
"92 303 LINE"
);
}
);
width = 410;
}
);
leftKerningGroup = H;
leftMetricsKey = H;
note = R;
rightKerningGroup = R;
unicode = 0052;
},
{
glyphname = S;
lastChange = "2022-05-31 12:05:51 +0000";
layers = (
{
anchors = (
{
name = bottom;
position = "{171, 0}";
},
{
name = top;
position = "{171, 591}";
}
);
layerId = "5E1A2ACF-25BB-4872-A226-5327BC7330DB";
paths = (
{
closed = 1;
nodes = (
"244 -9 OFFCURVE",
"306 31 OFFCURVE",
"306 146 CURVE SMOOTH",
"306 249 OFFCURVE",
"266 272 OFFCURVE",
"170 310 CURVE SMOOTH",
"111 333 OFFCURVE",
"59 356 OFFCURVE",
"59 448 CURVE SMOOTH",
"59 523 OFFCURVE",
"88 579 OFFCURVE",
"171 579 CURVE SMOOTH",
"243 579 OFFCURVE",
"285 537 OFFCURVE",
"285 465 CURVE SMOOTH",
"285 429 LINE",
"301 429 LINE",
"301 469 LINE SMOOTH",
"301 549 OFFCURVE",
"251 595 OFFCURVE",
"171 595 CURVE SMOOTH",
"79 595 OFFCURVE",
"43 537 OFFCURVE",
"43 448 CURVE SMOOTH",
"43 354 OFFCURVE",
"89 324 OFFCURVE",
"161 296 CURVE SMOOTH",
"231 269 OFFCURVE",
"290 250 OFFCURVE",
"290 146 CURVE SMOOTH",
"290 42 OFFCURVE",
"237 7 OFFCURVE",
"167 7 CURVE SMOOTH",
"103 7 OFFCURVE",
"56 42 OFFCURVE",
"56 163 CURVE SMOOTH",
"56 175 LINE",
"40 175 LINE",
"40 163 LINE SMOOTH",
"40 32 OFFCURVE",
"90 -9 OFFCURVE",
"167 -9 CURVE SMOOTH"
);
}
);
width = 346;
}
);
leftKerningGroup = S;
note = S;
rightKerningGroup = S;
unicode = 0053;
},
{
glyphname = Germandbls;
lastChange = "2022-06-09 13:41:18 +0000";
layers = (
{
layerId = "5E1A2ACF-25BB-4872-A226-5327BC7330DB";
paths = (
{
closed = 1;
nodes = (
"92 -59 LINE",
"92 519 LINE SMOOTH",
"92 552 OFFCURVE",
"88 577 OFFCURVE",
"196 577 CURVE SMOOTH",
"268 577 OFFCURVE",
"301 552 OFFCURVE",
"301 491 CURVE SMOOTH",
"301 457 LINE SMOOTH",
"301 385 OFFCURVE",
"272 348 OFFCURVE",
"210 348 CURVE SMOOTH",
"156 348 LINE",
"156 332 LINE",
"199 332 LINE SMOOTH",
"259 332 OFFCURVE",
"311 312 OFFCURVE",
"311 236 CURVE SMOOTH",
"311 123 LINE SMOOTH",
"311 31 OFFCURVE",
"272 15 OFFCURVE",
"213 15 CURVE SMOOTH",
"136 15 LINE",
"136 0 LINE",
"213 0 LINE SMOOTH",
"278 0 OFFCURVE",
"327 15 OFFCURVE",
"327 119 CURVE SMOOTH",
"327 244 LINE SMOOTH",
"327 300 OFFCURVE",
"288 334 OFFCURVE",
"242 340 CURVE",
"285 344 OFFCURVE",
"317 385 OFFCURVE",
"317 457 CURVE SMOOTH",
"317 498 LINE SMOOTH",
"317 570 OFFCURVE",
"271 593 OFFCURVE",
"196 593 CURVE SMOOTH",
"89 593 OFFCURVE",
"76 573 OFFCURVE",
"76 527 CURVE SMOOTH",
"76 -59 LINE"
);
}
);
width = 388;
}
);
leftKerningGroup = H;
leftMetricsKey = H;
rightKerningGroup = B;
rightMetricsKey = B;
unicode = 1E9E;
},
{
glyphname = Schwa;
lastChange = "2022-06-09 13:41:18 +0000";
layers = (
{
layerId = "5E1A2ACF-25BB-4872-A226-5327BC7330DB";
paths = (
{
closed = 1;
nodes = (
"277 -8 OFFCURVE",
"337 6 OFFCURVE",
"337 122 CURVE SMOOTH",
"337 473 LINE SMOOTH",
"337 587 OFFCURVE",
"278 603 OFFCURVE",
"202 603 CURVE SMOOTH",
"129 603 OFFCURVE",
"64 589 OFFCURVE",
"64 473 CURVE SMOOTH",
"64 402 LINE",
"80 402 LINE",
"80 468 LINE SMOOTH",
"80 572 OFFCURVE",
"135 587 OFFCURVE",
"201 587 CURVE SMOOTH",
"266 587 OFFCURVE",
"321 572 OFFCURVE",
"321 468 CURVE SMOOTH",
"321 130 LINE SMOOTH",
"321 25 OFFCURVE",
"272 8 OFFCURVE",
"201 8 CURVE SMOOTH",
"130 8 OFFCURVE",
"80 23 OFFCURVE",
"80 124 CURVE SMOOTH",
"80 247 LINE",
"64 247 LINE",
"64 122 LINE SMOOTH",
"64 8 OFFCURVE",
"123 -8 OFFCURVE",
"200 -8 CURVE SMOOTH"
);
},
{
closed = 1;
nodes = (
"329 231 LINE",
"329 247 LINE",
"64 247 LINE",
"64 231 LINE"
);
}
);
width = 404;
}
);
leftKerningGroup = O;
rightKerningGroup = O;
rightMetricsKey = O;
unicode = 018F;
},
{
glyphname = T;
lastChange = "2022-05-31 12:05:51 +0000";
layers = (
{
anchors = (
{
name = bottom;
position = "{129, 0}";
},
{
name = center;
position = "{129, 395}";
},
{
name = top;
position = "{129, 591}";
}
);
layerId = "5E1A2ACF-25BB-4872-A226-5327BC7330DB";
paths = (
{
closed = 1;
nodes = (
"138 0 LINE",
"138 575 LINE",
"250 575 LINE",
"250 591 LINE",
"11 591 LINE",
"11 575 LINE",
"122 575 LINE",
"122 0 LINE"
);
}
);
width = 261;
}
);
leftKerningGroup = T;
note = T;
rightKerningGroup = T;
unicode = 0054;
},
{
color = 3;
glyphname = U;
lastChange = "2022-05-31 12:05:51 +0000";
layers = (
{
anchors = (
{
name = bottom;
position = "{209, 0}";
},
{
name = ogonek;
position = "{232, 0}";
},
{
name = top;
position = "{215, 591}";
},
{
name = topright;
position = "{349, 591}";
}
);
layerId = "5E1A2ACF-25BB-4872-A226-5327BC7330DB";
paths = (
{
closed = 1;
nodes = (
"285 -9 OFFCURVE",
"355 9 OFFCURVE",
"355 113 CURVE SMOOTH",
"355 591 LINE",
"339 591 LINE",
"339 116 LINE SMOOTH",
"339 24 OFFCURVE",
"270 7 OFFCURVE",
"209 7 CURVE SMOOTH",
"148 7 OFFCURVE",
"90 24 OFFCURVE",
"90 116 CURVE SMOOTH",
"90 591 LINE",
"74 591 LINE",
"74 113 LINE SMOOTH",
"74 9 OFFCURVE",
"134 -9 OFFCURVE",
"209 -9 CURVE SMOOTH"
);
}
);
width = 429;
}
);
leftKerningGroup = U;
note = U;
rightKerningGroup = U;
unicode = 0055;
},
{
glyphname = V;
lastChange = "2022-05-31 12:05:51 +0000";
layers = (
{
layerId = "5E1A2ACF-25BB-4872-A226-5327BC7330DB";
paths = (
{
closed = 1;
nodes = (
"163 0 LINE",
"285 591 LINE",
"269 591 LINE",
"157 44 LINE",
"39 591 LINE",
"23 591 LINE",
"150 0 LINE"
);
}
);
width = 308;
}
);
leftKerningGroup = W;
note = V;
rightKerningGroup = W;
unicode = 0056;
},
{
glyphname = W;
lastChange = "2022-05-31 12:05:51 +0000";
layers = (
{
anchors = (
{
name = bottom;
position = "{259, 0}";
},
{
name = top;
position = "{259, 591}";
}
);
background = {
paths = (
{
closed = 1;
nodes = (
"26 591 LINE",
"58 391 OFFCURVE",
"94 201 OFFCURVE",
"126 0 CURVE",
"138 0 LINE",
"259 565 LINE",
"376 0 LINE",
"391 0 LINE",
"423 201 OFFCURVE",
"459 390 OFFCURVE",
"491 591 CURVE",
"478 591 LINE",
"383 38 LINE",
"266 591 LINE",
"252 591 LINE",
"134 38 LINE",
"39 591 LINE"
);
},
{
closed = 1;
nodes = (
"26 591 LINE",
"153 0 LINE",
"166 0 LINE",
"288 591 LINE",
"276 591 LINE",
"160 24 LINE",
"38 591 LINE"
);
}
);
};
layerId = "5E1A2ACF-25BB-4872-A226-5327BC7330DB";
paths = (
{
closed = 1;
nodes = (
"139 0 LINE",
"256 553 LINE",
"369 0 LINE",
"388 0 LINE",
"490 591 LINE",
"474 591 LINE",
"378 35 LINE",
"264 591 LINE",
"248 591 LINE",
"132 45 LINE",
"39 591 LINE",
"23 591 LINE",
"123 0 LINE"
);
}
);
width = 513;
}
);
leftKerningGroup = W;
note = W;
rightKerningGroup = W;
unicode = 0057;
},
{
glyphname = X;
lastChange = "2022-05-31 12:05:51 +0000";
layers = (
{
layerId = "5E1A2ACF-25BB-4872-A226-5327BC7330DB";
paths = (
{
closed = 1;
nodes = (
"43 0 LINE",
"142 290 LINE",
"158 290 LINE",
"254 0 LINE",
"272 0 LINE",
"172 298 LINE",
"274 591 LINE",
"257 591 LINE",
"158 306 LINE",
"141 306 LINE",
"53 591 LINE",
"37 591 LINE",
"127 298 LINE",
"26 0 LINE"
);
}
);
width = 300;
}
);
leftKerningGroup = X;
note = X;
rightKerningGroup = K;
unicode = 0058;
},
{
glyphname = Y;
lastChange = "2022-05-31 12:05:51 +0000";
layers = (
{
anchors = (
{
name = bottom;
position = "{139, 0}";
},
{
name = top;
position = "{140, 591}";
},
{
name = topleft;
position = "{32, 591}";
}
);
layerId = "5E1A2ACF-25BB-4872-A226-5327BC7330DB";
paths = (
{
closed = 1;
nodes = (
"146 0 LINE",
"146 253 LINE",
"269 591 LINE",
"252 591 LINE",
"139 275 LINE",
"38 591 LINE",
"21 591 LINE",
"130 253 LINE",
"130 0 LINE"
);
}
);
width = 290;
}
);
leftKerningGroup = Y;
note = Y;
rightKerningGroup = Y;
unicode = 0059;
},
{
glyphname = Z;
lastChange = "2022-05-31 12:05:51 +0000";
layers = (
{
anchors = (
{
name = bottom;
position = "{138, 0}";
},
{
name = center;
position = "{138, 296}";
},
{
name = top;
position = "{138, 591}";
}
);
layerId = "5E1A2ACF-25BB-4872-A226-5327BC7330DB";
paths = (
{
closed = 1;
nodes = (
"246 0 LINE",
"246 16 LINE",
"42 16 LINE",
"240 577 LINE",
"240 591 LINE",
"38 591 LINE",
"38 575 LINE",
"224 577 LINE",
"23 10 LINE",
"23 0 LINE"
);
}
);
width = 270;
}
);
leftKerningGroup = Z;
note = Z;
rightKerningGroup = Z;
unicode = 005A;
},
{
glyphname = a;
lastChange = "2022-05-31 12:05:51 +0000";
layers = (
{
anchors = (
{
name = bottom;
position = "{181, 0}";
},
{
name = ogonek;
position = "{293, 0}";
},
{
name = top;
position = "{181, 495}";
}
);
background = {
paths = (
{
closed = 1;
nodes = (
"192 -7 OFFCURVE",
"227 4 OFFCURVE",
"254 31 CURVE SMOOTH",
"267 46 OFFCURVE",
"277 62 OFFCURVE",
"283 79 CURVE",
"285 0 LINE",
"294 0 LINE",
"294 402 LINE SMOOTH",
"294 455 OFFCURVE",
"287 502 OFFCURVE",
"182 502 CURVE SMOOTH",
"86 502 OFFCURVE",
"66 452 OFFCURVE",
"66 377 CURVE SMOOTH",
"66 334 LINE",
"77 334 LINE",
"77 375 LINE SMOOTH",
"77 448 OFFCURVE",
"94 493 OFFCURVE",
"182 493 CURVE SMOOTH",
"232 493 OFFCURVE",
"283 481 OFFCURVE",
"283 414 CURVE SMOOTH",
"283 400 LINE SMOOTH",
"283 350 OFFCURVE",
"252 328 OFFCURVE",
"185 291 CURVE SMOOTH",
"148 270 OFFCURVE",
"55 237 OFFCURVE",
"55 146 CURVE SMOOTH",
"55 112 LINE SMOOTH",
"55 -3 OFFCURVE",
"115 -7 OFFCURVE",
"156 -7 CURVE SMOOTH"
);
},
{
closed = 1;
nodes = (
"121 3 OFFCURVE",
"66 5 OFFCURVE",
"66 112 CURVE SMOOTH",
"66 142 LINE SMOOTH",
"66 225 OFFCURVE",
"135 251 OFFCURVE",
"183 278 CURVE SMOOTH",
"227 303 OFFCURVE",
"269 323 OFFCURVE",
"283 357 CURVE",
"283 157 LINE SMOOTH",
"283 110 OFFCURVE",
"279 74 OFFCURVE",
"246 39 CURVE SMOOTH",
"222 14 OFFCURVE",
"191 3 OFFCURVE",
"158 3 CURVE SMOOTH"
);
},
{
closed = 1;
nodes = (
"192 -7 OFFCURVE",
"227 4 OFFCURVE",
"254 31 CURVE SMOOTH",
"267 46 OFFCURVE",
"276 62 OFFCURVE",
"282 79 CURVE",
"284 0 LINE",
"294 0 LINE",
"294 402 LINE SMOOTH",
"294 455 OFFCURVE",
"287 502 OFFCURVE",
"182 502 CURVE SMOOTH",
"86 502 OFFCURVE",
"66 452 OFFCURVE",
"66 377 CURVE SMOOTH",
"66 334 LINE",
"78 334 LINE",
"78 375 LINE SMOOTH",
"78 447 OFFCURVE",
"95 492 OFFCURVE",
"182 492 CURVE SMOOTH",
"232 492 OFFCURVE",
"282 480 OFFCURVE",
"282 414 CURVE SMOOTH",
"282 400 LINE SMOOTH",
"282 350 OFFCURVE",
"251 328 OFFCURVE",
"185 291 CURVE SMOOTH",
"148 270 OFFCURVE",
"55 237 OFFCURVE",
"55 146 CURVE SMOOTH",
"55 112 LINE SMOOTH",
"55 -3 OFFCURVE",
"115 -7 OFFCURVE",
"156 -7 CURVE SMOOTH"
);
},
{
closed = 1;
nodes = (
"121 3 OFFCURVE",
"67 5 OFFCURVE",
"67 112 CURVE SMOOTH",
"67 142 LINE SMOOTH",
"67 225 OFFCURVE",
"135 252 OFFCURVE",
"183 278 CURVE SMOOTH",
"227 302 OFFCURVE",
"268 323 OFFCURVE",
"282 357 CURVE",
"282 157 LINE SMOOTH",
"282 110 OFFCURVE",
"279 74 OFFCURVE",
"246 39 CURVE SMOOTH",
"222 14 OFFCURVE",
"191 3 OFFCURVE",
"158 3 CURVE SMOOTH"
);
}
);
};
layerId = "5E1A2ACF-25BB-4872-A226-5327BC7330DB";
paths = (
{
closed = 1;
nodes = (
"220 -4 OFFCURVE",
"262 26 OFFCURVE",
"278 73 CURVE",
"278 0 LINE",
"293 0 LINE",
"293 402 LINE SMOOTH",
"293 455 OFFCURVE",
"289 502 OFFCURVE",
"181 502 CURVE SMOOTH",
"88 502 OFFCURVE",
"65 454 OFFCURVE",
"65 377 CURVE SMOOTH",
"65 334 LINE",
"81 334 LINE",
"81 375 LINE SMOOTH",
"81 437 OFFCURVE",
"93 486 OFFCURVE",
"181 486 CURVE SMOOTH",
"227 486 OFFCURVE",
"277 481 OFFCURVE",
"277 414 CURVE SMOOTH",
"277 400 LINE SMOOTH",
"277 350 OFFCURVE",
"251 329 OFFCURVE",
"172 285 CURVE SMOOTH",
"147 271 OFFCURVE",
"54 232 OFFCURVE",
"54 146 CURVE SMOOTH",
"54 112 LINE SMOOTH",
"54 10 OFFCURVE",
"114 -4 OFFCURVE",
"160 -4 CURVE SMOOTH"
);
},
{
closed = 1;
nodes = (
"124 12 OFFCURVE",
"70 18 OFFCURVE",
"70 112 CURVE SMOOTH",
"70 138 LINE SMOOTH",
"70 214 OFFCURVE",
"127 241 OFFCURVE",
"177 269 CURVE SMOOTH",
"216 291 OFFCURVE",
"256 312 OFFCURVE",
"277 341 CURVE",
"277 157 LINE SMOOTH",
"277 75 OFFCURVE",
"250 12 OFFCURVE",
"163 12 CURVE SMOOTH"
);
}
);
width = 354;
}
);
leftKerningGroup = a;
note = a;
rightKerningGroup = n;
rightMetricsKey = n;
unicode = 0061;
},
{
glyphname = ae;
lastChange = "2022-05-31 12:05:51 +0000";
layers = (
{
anchors = (
{
name = bottom;
position = "{282, 0}";
},
{
name = ogonek;
position = "{465, 6}";
},
{
name = top;
position = "{299, 493}";
}
);
layerId = "5E1A2ACF-25BB-4872-A226-5327BC7330DB";
paths = (
{
closed = 1;
nodes = (
"510 -7 OFFCURVE",
"516 62 OFFCURVE",
"516 124 CURVE SMOOTH",
"516 167 LINE",
"500 167 LINE",
"500 127 LINE SMOOTH",
"500 66 OFFCURVE",
"495 9 OFFCURVE",
"397 9 CURVE SMOOTH",
"298 9 OFFCURVE",
"293 68 OFFCURVE",
"293 127 CURVE SMOOTH",
"293 263 LINE",
"516 263 LINE",
"516 372 LINE SMOOTH",
"516 438 OFFCURVE",
"508 503 OFFCURVE",
"397 503 CURVE SMOOTH",
"333 503 OFFCURVE",
"303 480 OFFCURVE",
"289 448 CURVE",
"281 480 OFFCURVE",
"256 502 OFFCURVE",
"181 502 CURVE SMOOTH",
"88 502 OFFCURVE",
"65 454 OFFCURVE",
"65 377 CURVE SMOOTH",
"65 334 LINE",
"81 334 LINE",
"81 375 LINE SMOOTH",
"81 437 OFFCURVE",
"93 486 OFFCURVE",
"181 486 CURVE SMOOTH",
"227 486 OFFCURVE",
"277 481 OFFCURVE",
"277 414 CURVE SMOOTH",
"277 400 LINE SMOOTH",
"277 350 OFFCURVE",
"251 329 OFFCURVE",
"172 285 CURVE SMOOTH",
"147 271 OFFCURVE",
"54 232 OFFCURVE",
"54 146 CURVE SMOOTH",
"54 112 LINE SMOOTH",
"54 10 OFFCURVE",
"114 -4 OFFCURVE",
"160 -4 CURVE SMOOTH",
"220 -4 OFFCURVE",
"262 26 OFFCURVE",
"278 73 CURVE",
"278 0 LINE",
"293 0 LINE",
"293 37 LINE",
"308 11 OFFCURVE",
"338 -7 OFFCURVE",
"397 -7 CURVE SMOOTH"
);
},
{
closed = 1;
nodes = (
"124 12 OFFCURVE",
"70 18 OFFCURVE",
"70 112 CURVE SMOOTH",
"70 138 LINE SMOOTH",
"70 214 OFFCURVE",
"127 241 OFFCURVE",
"177 269 CURVE SMOOTH",
"216 291 OFFCURVE",
"256 312 OFFCURVE",
"277 341 CURVE",
"277 157 LINE SMOOTH",
"277 75 OFFCURVE",
"250 12 OFFCURVE",
"163 12 CURVE SMOOTH"
);
},
{
closed = 1;
nodes = (
"293 363 LINE SMOOTH",
"293 438 OFFCURVE",
"308 487 OFFCURVE",
"397 487 CURVE SMOOTH",
"497 487 OFFCURVE",
"500 433 OFFCURVE",
"500 363 CURVE SMOOTH",
"500 279 LINE",
"293 279 LINE"
);
}
);
width = 573;
}
);
leftKerningGroup = a;
leftMetricsKey = a;
note = ae;
rightKerningGroup = e;
rightMetricsKey = e;
unicode = 00E6;
},
{
glyphname = b;
lastChange = "2022-05-31 12:05:51 +0000";
layers = (
{
layerId = "5E1A2ACF-25BB-4872-A226-5327BC7330DB";
paths = (
{
closed = 1;
nodes = (
"301 -7 OFFCURVE",
"307 62 OFFCURVE",
"307 124 CURVE SMOOTH",
"307 372 LINE SMOOTH",
"307 433 OFFCURVE",
"301 503 OFFCURVE",
"188 503 CURVE SMOOTH",
"125 503 OFFCURVE",
"97 478 OFFCURVE",
"84 449 CURVE",
"84 630 LINE",
"68 630 LINE",
"68 0 LINE",
"82 0 LINE",
"84 47 LINE",
"97 16 OFFCURVE",
"121 -7 OFFCURVE",
"188 -7 CURVE SMOOTH"
);
},
{
closed = 1;
nodes = (
"84 9 OFFCURVE",
"84 74 OFFCURVE",
"84 133 CURVE SMOOTH",
"84 366 LINE SMOOTH",
"84 434 OFFCURVE",
"107 487 OFFCURVE",
"188 487 CURVE SMOOTH",
"286 487 OFFCURVE",
"291 422 OFFCURVE",
"291 369 CURVE SMOOTH",
"291 133 LINE SMOOTH",
"291 74 OFFCURVE",
"286 9 OFFCURVE",
"188 9 CURVE SMOOTH"
);
}
);
width = 366;
}
);
leftKerningGroup = b;
leftMetricsKey = n;
note = b;
rightKerningGroup = o;
rightMetricsKey = o;
unicode = 0062;
},
{
glyphname = c;
lastChange = "2022-05-31 12:05:51 +0000";
layers = (
{
anchors = (
{
name = bottom;
position = "{177, 0}";
},
{
name = top;
position = "{177, 495}";
}
);
layerId = "5E1A2ACF-25BB-4872-A226-5327BC7330DB";
paths = (
{
closed = 1;
nodes = (
"292 -7 OFFCURVE",
"298 62 OFFCURVE",
"298 124 CURVE SMOOTH",
"298 167 LINE",
"282 167 LINE",
"282 127 LINE SMOOTH",
"282 74 OFFCURVE",
"277 9 OFFCURVE",
"179 9 CURVE SMOOTH",
"80 9 OFFCURVE",
"75 74 OFFCURVE",
"75 127 CURVE SMOOTH",
"75 369 LINE SMOOTH",
"75 422 OFFCURVE",
"80 487 OFFCURVE",
"179 487 CURVE SMOOTH",
"277 487 OFFCURVE",
"282 422 OFFCURVE",
"282 369 CURVE SMOOTH",
"282 328 LINE",
"298 328 LINE",
"298 372 LINE SMOOTH",
"298 433 OFFCURVE",
"292 503 OFFCURVE",
"179 503 CURVE SMOOTH",
"64 503 OFFCURVE",
"59 433 OFFCURVE",
"59 372 CURVE SMOOTH",
"59 124 LINE SMOOTH",
"59 62 OFFCURVE",
"64 -7 OFFCURVE",
"179 -7 CURVE SMOOTH"
);
}
);
width = 345;
}
);
leftKerningGroup = o;
leftMetricsKey = o;
note = c;
rightKerningGroup = c;
unicode = 0063;
},
{
glyphname = d;
lastChange = "2022-05-31 12:05:51 +0000";
layers = (
{
anchors = (
{
name = bottom;
position = "{185, 0}";
},
{
name = center;
position = "{185, 248}";
},
{
name = top;
position = "{185, 630}";
},
{
name = topright;
position = "{347, 513}";
}
);
layerId = "5E1A2ACF-25BB-4872-A226-5327BC7330DB";
paths = (
{
closed = 1;
nodes = (
"234 -7 OFFCURVE",
"273 22 OFFCURVE",
"283 50 CURVE",
"285 0 LINE",
"298 0 LINE",
"298 630 LINE",
"282 630 LINE",
"282 466 LINE",
"274 474 OFFCURVE",
"247 503 OFFCURVE",
"178 503 CURVE SMOOTH",
"65 503 OFFCURVE",
"59 433 OFFCURVE",
"59 372 CURVE SMOOTH",
"59 124 LINE SMOOTH",
"59 62 OFFCURVE",
"65 -7 OFFCURVE",
"178 -7 CURVE SMOOTH"
);
},
{
closed = 1;
nodes = (
"75 9 OFFCURVE",
"75 74 OFFCURVE",
"75 127 CURVE SMOOTH",
"75 369 LINE SMOOTH",
"75 422 OFFCURVE",
"75 487 OFFCURVE",
"178 487 CURVE SMOOTH",
"260 487 OFFCURVE",
"276 450 OFFCURVE",
"282 437 CURVE",
"282 127 LINE SMOOTH",
"282 65 OFFCURVE",
"262 9 OFFCURVE",
"178 9 CURVE SMOOTH"
);
}
);
width = 366;
}
);
leftKerningGroup = o;
leftMetricsKey = o;
note = d;
rightKerningGroup = d;
rightMetricsKey = "=|n";
unicode = 0064;
},
{
color = 3;
glyphname = eth;
lastChange = "2022-05-31 12:05:56 +0000";
layers = (
{
background = {
paths = (
{
closed = 1;
nodes = (
"892 -7 OFFCURVE",
"903 62 OFFCURVE",
"903 124 CURVE SMOOTH",
"903 449 LINE SMOOTH",
"903 563 OFFCURVE",
"891 653 OFFCURVE",
"801 661 CURVE",
"826 707 LINE",
"814 707 LINE",
"790 661 LINE",
"751 660 OFFCURVE",
"721 653 OFFCURVE",
"702 646 CURVE",
"702 636 LINE",
"720 641 OFFCURVE",
"759 651 OFFCURVE",
"780 651 CURVE SMOOTH",
"784 651 LINE",
"753 591 LINE",
"765 591 LINE",
"796 650 LINE",
"876 645 OFFCURVE",
"887 588 OFFCURVE",
"887 464 CURVE",
"879 474 OFFCURVE",
"847 503 OFFCURVE",
"778 503 CURVE SMOOTH",
"665 503 OFFCURVE",
"659 433 OFFCURVE",
"659 372 CURVE SMOOTH",
"659 124 LINE SMOOTH",
"659 62 OFFCURVE",
"664 -7 OFFCURVE",
"779 -7 CURVE SMOOTH"
);
},
{
closed = 1;
nodes = (
"675 9 OFFCURVE",
"675 74 OFFCURVE",
"675 127 CURVE SMOOTH",
"675 369 LINE SMOOTH",
"675 422 OFFCURVE",
"675 487 OFFCURVE",
"778 487 CURVE SMOOTH",
"860 487 OFFCURVE",
"881 450 OFFCURVE",
"887 437 CURVE",
"887 127 LINE SMOOTH",
"887 74 OFFCURVE",
"883 9 OFFCURVE",
"779 9 CURVE SMOOTH"
);
},
{
closed = 1;
nodes = (
"151 636 OFFCURVE",
"126 633 OFFCURVE",
"117 632 CURVE",
"117 615 LINE",
"133 618 OFFCURVE",
"158 620 OFFCURVE",
"181 620 CURVE SMOOTH",
"235 620 OFFCURVE",
"287 599 OFFCURVE",
"287 518 CURVE SMOOTH",
"287 445 LINE",
"276 472 OFFCURVE",
"237 499 OFFCURVE",
"183 499 CURVE SMOOTH",
"70 499 OFFCURVE",
"59 427 OFFCURVE",
"59 365 CURVE SMOOTH",
"59 146 LINE SMOOTH",
"59 85 OFFCURVE",
"70 18 OFFCURVE",
"183 18 CURVE SMOOTH",
"252 18 OFFCURVE",
"279 47 OFFCURVE",
"287 55 CURVE",
"290 26 LINE",
"303 26 LINE",
"303 516 LINE SMOOTH",
"303 592 OFFCURVE",
"264 636 OFFCURVE",
"181 636 CURVE SMOOTH"
);
},
{
closed = 1;
nodes = (
"267 483 OFFCURVE",
"287 427 OFFCURVE",
"287 365 CURVE SMOOTH",
"287 84 LINE",
"281 71 OFFCURVE",
"265 34 OFFCURVE",
"183 34 CURVE SMOOTH",
"80 34 OFFCURVE",
"80 99 OFFCURVE",
"80 152 CURVE SMOOTH",
"80 365 LINE SMOOTH",
"80 418 OFFCURVE",
"80 483 OFFCURVE",
"183 483 CURVE SMOOTH"
);
}
);
};
layerId = "5E1A2ACF-25BB-4872-A226-5327BC7330DB";
paths = (
{
closed = 1;
nodes = (
"292 -7 OFFCURVE",
"303 62 OFFCURVE",
"303 124 CURVE SMOOTH",
"303 516 LINE SMOOTH",
"303 592 OFFCURVE",
"264 636 OFFCURVE",
"181 636 CURVE SMOOTH",
"151 636 OFFCURVE",
"126 633 OFFCURVE",
"97 627 CURVE",
"97 611 LINE",
"131 619 OFFCURVE",
"158 620 OFFCURVE",
"181 620 CURVE SMOOTH",
"235 620 OFFCURVE",
"287 599 OFFCURVE",
"287 518 CURVE SMOOTH",
"287 464 LINE",
"279 474 OFFCURVE",
"247 503 OFFCURVE",
"178 503 CURVE SMOOTH",
"65 503 OFFCURVE",
"59 433 OFFCURVE",
"59 372 CURVE SMOOTH",
"59 124 LINE SMOOTH",
"59 62 OFFCURVE",
"64 -7 OFFCURVE",
"179 -7 CURVE SMOOTH"
);
},
{
closed = 1;
nodes = (
"75 9 OFFCURVE",
"75 74 OFFCURVE",
"75 127 CURVE SMOOTH",
"75 369 LINE SMOOTH",
"75 422 OFFCURVE",
"75 487 OFFCURVE",
"178 487 CURVE SMOOTH",
"260 487 OFFCURVE",
"281 450 OFFCURVE",
"287 437 CURVE",
"287 127 LINE SMOOTH",
"287 74 OFFCURVE",
"283 9 OFFCURVE",
"179 9 CURVE SMOOTH"
);
},
{
closed = 1;
nodes = (
"159 567 LINE",
"220 682 LINE",
"205 683 LINE",
"144 567 LINE"
);
}
);
width = 362;
}
);
leftKerningGroup = o;
leftMetricsKey = o;
note = eth;
rightKerningGroup = o;
rightMetricsKey = o;
unicode = 00F0;
},
{
color = 3;
glyphname = dcroat;
lastChange = "2022-05-31 12:05:51 +0000";
layers = (
{
layerId = "5E1A2ACF-25BB-4872-A226-5327BC7330DB";
paths = (
{
closed = 1;
nodes = (
"234 -7 OFFCURVE",
"273 22 OFFCURVE",
"283 50 CURVE",
"285 0 LINE",
"298 0 LINE",
"298 630 LINE",
"282 630 LINE",
"282 466 LINE",
"274 474 OFFCURVE",
"247 503 OFFCURVE",
"178 503 CURVE SMOOTH",
"65 503 OFFCURVE",
"59 433 OFFCURVE",
"59 372 CURVE SMOOTH",
"59 124 LINE SMOOTH",
"59 62 OFFCURVE",
"65 -7 OFFCURVE",
"178 -7 CURVE SMOOTH"
);
},
{
closed = 1;
nodes = (
"75 9 OFFCURVE",
"75 74 OFFCURVE",
"75 127 CURVE SMOOTH",
"75 369 LINE SMOOTH",
"75 422 OFFCURVE",
"75 487 OFFCURVE",
"178 487 CURVE SMOOTH",
"260 487 OFFCURVE",
"276 450 OFFCURVE",
"282 437 CURVE",
"282 127 LINE SMOOTH",
"282 65 OFFCURVE",
"262 9 OFFCURVE",
"178 9 CURVE SMOOTH"
);
},
{
closed = 1;
nodes = (
"348 560 LINE",
"348 575 LINE",
"177 575 LINE",
"177 560 LINE"
);
}
);
width = 366;
}
);
leftKerningGroup = o;
note = dcroat;
rightKerningGroup = d;
unicode = 0111;
},
{
glyphname = e;
lastChange = "2022-05-31 12:05:51 +0000";
layers = (
{
anchors = (
{
name = bottom;
position = "{178, 0}";
},
{
name = ogonek;
position = "{247, 6}";
},
{
name = top;
position = "{184, 495}";
}
);
background = {
paths = (
{
closed = 1;
nodes = (
"293 -7 OFFCURVE",
"299 63 OFFCURVE",
"299 125 CURVE SMOOTH",
"299 168 LINE",
"287 168 LINE",
"287 128 LINE SMOOTH",
"287 69 OFFCURVE",
"282 5 OFFCURVE",
"180 5 CURVE SMOOTH",
"77 5 OFFCURVE",
"72 69 OFFCURVE",
"72 128 CURVE SMOOTH",
"72 262 LINE",
"299 262 LINE",
"299 373 LINE SMOOTH",
"299 434 OFFCURVE",
"293 505 OFFCURVE",
"180 505 CURVE SMOOTH",
"65 505 OFFCURVE",
"60 434 OFFCURVE",
"60 373 CURVE SMOOTH",
"60 125 LINE SMOOTH",
"60 63 OFFCURVE",
"65 -7 OFFCURVE",
"180 -7 CURVE SMOOTH"
);
},
{
closed = 1;
nodes = (
"72 272 LINE",
"72 370 LINE SMOOTH",
"72 429 OFFCURVE",
"77 493 OFFCURVE",
"180 493 CURVE SMOOTH",
"282 493 OFFCURVE",
"287 429 OFFCURVE",
"287 370 CURVE SMOOTH",
"287 272 LINE"
);
}
);
};
guideLines = (
{
angle = 90;
position = "{72, 80}";
},
{
angle = 90;
position = "{60, 34}";
}
);
layerId = "5E1A2ACF-25BB-4872-A226-5327BC7330DB";
paths = (
{
closed = 1;
nodes = (
"292 -7 OFFCURVE",
"298 62 OFFCURVE",
"298 124 CURVE SMOOTH",
"298 167 LINE",
"282 167 LINE",
"282 127 LINE SMOOTH",
"282 66 OFFCURVE",
"277 9 OFFCURVE",
"179 9 CURVE SMOOTH",
"80 9 OFFCURVE",
"75 68 OFFCURVE",
"75 127 CURVE SMOOTH",
"75 263 LINE",
"298 263 LINE",
"298 372 LINE SMOOTH",
"298 438 OFFCURVE",
"290 503 OFFCURVE",
"179 503 CURVE SMOOTH",
"68 503 OFFCURVE",
"59 433 OFFCURVE",
"59 372 CURVE SMOOTH",
"59 124 LINE SMOOTH",
"59 62 OFFCURVE",
"64 -7 OFFCURVE",
"179 -7 CURVE SMOOTH"
);
},
{
closed = 1;
nodes = (
"75 363 LINE SMOOTH",
"75 438 OFFCURVE",
"90 487 OFFCURVE",
"179 487 CURVE SMOOTH",
"279 487 OFFCURVE",
"282 433 OFFCURVE",
"282 363 CURVE SMOOTH",
"282 279 LINE",
"75 279 LINE"
);
}
);
width = 355;
}
);
leftKerningGroup = o;
leftMetricsKey = o;
note = e;
rightKerningGroup = e;
rightMetricsKey = "=o-2";
unicode = 0065;
},
{
glyphname = f;
lastChange = "2022-06-09 17:07:14 +0000";
layers = (
{
background = {
paths = (
{
closed = 1;
nodes = (
"83 0 LINE",
"83 461 LINE",
"201 461 LINE",
"201 471 LINE",
"83 471 LINE",
"83 552 LINE SMOOTH",
"83 587 OFFCURVE",
"94 627 OFFCURVE",
"141 627 CURVE SMOOTH",
"158 627 OFFCURVE",
"173 626 OFFCURVE",
"184 625 CURVE SMOOTH",
"201 623 LINE",
"201 632 LINE",
"188 635 OFFCURVE",
"167 636 OFFCURVE",
"142 636 CURVE SMOOTH",
"90 636 OFFCURVE",
"72 603 OFFCURVE",
"72 547 CURVE SMOOTH",
"72 471 LINE",
"41 471 LINE",
"41 461 LINE",
"72 461 LINE",
"72 0 LINE"
);
}
);
};
layerId = "5E1A2ACF-25BB-4872-A226-5327BC7330DB";
paths = (
{
closed = 1;
nodes = (
"86 0 LINE",
"86 458 LINE",
"202 458 LINE",
"202 474 LINE",
"86 474 LINE",
"86 548 LINE SMOOTH",
"86 585 OFFCURVE",
"97 621 OFFCURVE",
"142 621 CURVE SMOOTH",
"161 621 OFFCURVE",
"178 619 OFFCURVE",
"202 616 CURVE",
"202 632 LINE",
"193 633 OFFCURVE",
"168 636 OFFCURVE",
"143 636 CURVE SMOOTH",
"91 636 OFFCURVE",
"70 605 OFFCURVE",
"70 543 CURVE SMOOTH",
"70 474 LINE",
"39 474 LINE",
"39 458 LINE",
"70 458 LINE",
"70 0 LINE"
);
}
);
width = 188;
}
);
note = f;
unicode = 0066;
},
{
glyphname = g;
lastChange = "2022-05-31 12:05:51 +0000";
layers = (
{
anchors = (
{
name = bottom;
position = "{179, -116}";
},
{
name = top;
position = "{187, 495}";
}
);
layerId = "5E1A2ACF-25BB-4872-A226-5327BC7330DB";
paths = (
{
closed = 1;
nodes = (
"259 -115 OFFCURVE",
"298 -71 OFFCURVE",
"298 5 CURVE SMOOTH",
"298 495 LINE",
"285 495 LINE",
"282 466 LINE",
"274 474 OFFCURVE",
"247 503 OFFCURVE",
"178 503 CURVE SMOOTH",
"65 503 OFFCURVE",
"59 433 OFFCURVE",
"59 372 CURVE SMOOTH",
"59 153 LINE SMOOTH",
"59 91 OFFCURVE",
"65 22 OFFCURVE",
"178 22 CURVE SMOOTH",
"232 22 OFFCURVE",
"271 49 OFFCURVE",
"282 76 CURVE",
"282 3 LINE SMOOTH",
"282 -78 OFFCURVE",
"230 -99 OFFCURVE",
"176 -99 CURVE SMOOTH",
"153 -99 OFFCURVE",
"128 -97 OFFCURVE",
"112 -94 CURVE",
"112 -111 LINE",
"121 -112 OFFCURVE",
"146 -115 OFFCURVE",
"176 -115 CURVE SMOOTH"
);
},
{
closed = 1;
nodes = (
"75 38 OFFCURVE",
"75 103 OFFCURVE",
"75 156 CURVE SMOOTH",
"75 369 LINE SMOOTH",
"75 422 OFFCURVE",
"75 487 OFFCURVE",
"178 487 CURVE SMOOTH",
"260 487 OFFCURVE",
"276 450 OFFCURVE",
"282 437 CURVE",
"282 156 LINE SMOOTH",
"282 94 OFFCURVE",
"262 38 OFFCURVE",
"178 38 CURVE SMOOTH"
);
}
);
width = 366;
}
);
leftKerningGroup = o;
leftMetricsKey = o;
note = g;
rightKerningGroup = g;
rightMetricsKey = "=|n";
unicode = 0067;
},
{
glyphname = h;
lastChange = "2022-05-31 12:05:51 +0000";
layers = (
{
anchors = (
{
name = bottom;
position = "{191, 0}";
},
{
name = center;
position = "{112, 545}";
},
{
name = top;
position = "{78, 630}";
}
);
layerId = "5E1A2ACF-25BB-4872-A226-5327BC7330DB";
paths = (
{
closed = 1;
nodes = (
"84 0 LINE",
"84 389 LINE",
"89 446 OFFCURVE",
"120 487 OFFCURVE",
"193 487 CURVE SMOOTH",
"293 487 OFFCURVE",
"296 422 OFFCURVE",
"296 363 CURVE SMOOTH",
"296 0 LINE",
"312 0 LINE",
"312 372 LINE SMOOTH",
"312 433 OFFCURVE",
"306 503 OFFCURVE",
"193 503 CURVE SMOOTH",
"130 503 OFFCURVE",
"99 476 OFFCURVE",
"84 445 CURVE",
"84 630 LINE",
"68 630 LINE",
"68 0 LINE"
);
}
);
width = 373;
}
);
leftKerningGroup = n;
leftMetricsKey = n;
note = h;
rightKerningGroup = n;
rightMetricsKey = n;
unicode = 0068;
},
{
glyphname = idotless;
lastChange = "2022-05-31 12:05:51 +0000";
layers = (
{
anchors = (
{
name = bottom;
position = "{76, 0}";
},
{
name = ogonek;
position = "{84, 0}";
},
{
name = top;
position = "{76, 495}";
}
);
layerId = "5E1A2ACF-25BB-4872-A226-5327BC7330DB";
paths = (
{
closed = 1;
nodes = (
"84 0 LINE",
"84 495 LINE",
"68 495 LINE",
"68 0 LINE"
);
}
);
width = 152;
}
);
leftKerningGroup = n;
leftMetricsKey = n;
note = dotlessi;
rightKerningGroup = u;
rightMetricsKey = "=|n";
unicode = 0131;
},
{
glyphname = jdotless;
lastChange = "2022-05-31 12:05:51 +0000";
layers = (
{
anchors = (
{
name = bottom;
position = "{66, -116}";
},
{
name = top;
position = "{78, 495}";
}
);
layerId = "5E1A2ACF-25BB-4872-A226-5327BC7330DB";
paths = (
{
closed = 1;
nodes = (
"62 -116 OFFCURVE",
"86 -86 OFFCURVE",
"86 -33 CURVE SMOOTH",
"86 495 LINE",
"70 495 LINE",
"70 -32 LINE SMOOTH",
"70 -68 OFFCURVE",
"57 -101 OFFCURVE",
"14 -101 CURVE SMOOTH",
"-5 -101 OFFCURVE",
"-22 -99 OFFCURVE",
"-36 -97 CURVE",
"-36 -113 LINE",
"-37 -113 OFFCURVE",
"-12 -116 OFFCURVE",
"13 -116 CURVE SMOOTH"
);
}
);
width = 154;
}
);
leftKerningGroup = j;
rightKerningGroup = j;
rightMetricsKey = "=|n";
unicode = 0237;
},
{
glyphname = k;
lastChange = "2022-05-31 12:05:51 +0000";
layers = (
{
anchors = (
{
name = bottom;
position = "{166, 0}";
},
{
name = top;
position = "{153, 630}";
}
);
layerId = "5E1A2ACF-25BB-4872-A226-5327BC7330DB";
paths = (
{
closed = 1;
nodes = (
"84 0 LINE",
"84 280 LINE",
"121 280 LINE",
"267 0 LINE",
"284 0 LINE",
"135 287 LINE",
"278 495 LINE",
"259 495 LINE",
"122 296 LINE",
"84 296 LINE",
"84 630 LINE",
"68 630 LINE",
"68 0 LINE"
);
}
);
width = 298;
}
);
leftKerningGroup = b;
leftMetricsKey = n;
note = k;
rightKerningGroup = k;
unicode = 006B;
},
{
glyphname = kgreenlandic;
lastChange = "2022-05-31 12:05:51 +0000";
layers = (
{
layerId = "5E1A2ACF-25BB-4872-A226-5327BC7330DB";
paths = (
{
closed = 1;
nodes = (
"84 0 LINE",
"84 208 LINE",
"93 231 OFFCURVE",
"108 261 OFFCURVE",
"127 293 CURVE",
"277 0 LINE",
"294 0 LINE",
"137 309 LINE",
"179 376 OFFCURVE",
"237 444 OFFCURVE",
"298 467 CURVE",
"298 483 LINE",
"209 453 OFFCURVE",
"121 327 OFFCURVE",
"84 243 CURVE",
"84 630 LINE",
"68 630 LINE",
"68 0 LINE"
);
}
);
width = 316;
}
);
leftKerningGroup = b;
leftMetricsKey = n;
note = kgreenlandic;
rightKerningGroup = k;
unicode = 0138;
},
{
glyphname = l;
lastChange = "2022-05-31 12:05:51 +0000";
layers = (
{
anchors = (
{
name = bottom;
position = "{77, 0}";
},
{
name = center;
position = "{77, 315}";
},
{
name = top;
position = "{77, 630}";
},
{
name = topright;
position = "{120, 516}";
}
);
layerId = "5E1A2ACF-25BB-4872-A226-5327BC7330DB";
paths = (
{
closed = 1;
nodes = (
"84 0 LINE",
"84 630 LINE",
"68 630 LINE",
"68 0 LINE"
);
}
);
width = 152;
}
);
leftKerningGroup = b;
leftMetricsKey = n;
note = l;
rightKerningGroup = d;
rightMetricsKey = "=|n";
unicode = 006C;
},
{
color = 3;
glyphname = ldot;
lastChange = "2022-05-31 12:05:51 +0000";
layers = (
{
layerId = "5E1A2ACF-25BB-4872-A226-5327BC7330DB";
paths = (
{
closed = 1;
nodes = (
"84 0 LINE",
"84 630 LINE",
"68 630 LINE",
"68 0 LINE"
);
},
{
closed = 1;
nodes = (
"163 288 OFFCURVE",
"168 293 OFFCURVE",
"168 304 CURVE SMOOTH",
"168 315 OFFCURVE",
"163 320 OFFCURVE",
"152 320 CURVE SMOOTH",
"141 320 OFFCURVE",
"136 315 OFFCURVE",
"136 304 CURVE SMOOTH",
"136 293 OFFCURVE",
"141 288 OFFCURVE",
"152 288 CURVE SMOOTH"
);
}
);
width = 152;
}
);
leftKerningGroup = b;
rightKerningGroup = d;
unicode = 0140;
},
{
color = 3;
glyphname = lslash;
lastChange = "2022-05-31 12:05:56 +0000";
layers = (
{
background = {
paths = (
{
closed = 1;
nodes = (
"79 0 LINE",
"79 200 LINE",
"159 237 LINE",
"159 247 LINE",
"79 211 LINE",
"79 630 LINE",
"68 630 LINE",
"68 206 LINE",
"-9 171 LINE",
"-9 160 LINE",
"68 195 LINE",
"68 0 LINE"
);
}
);
};
layerId = "5E1A2ACF-25BB-4872-A226-5327BC7330DB";
paths = (
{
closed = 1;
nodes = (
"139 382 LINE",
"139 402 LINE",
"13 295 LINE",
"13 275 LINE"
);
},
{
closed = 1;
nodes = (
"84 0 LINE",
"84 630 LINE",
"68 630 LINE",
"68 0 LINE"
);
}
);
width = 152;
}
);
leftKerningGroup = b;
note = lslash;
rightKerningGroup = d;
unicode = 0142;
},
{
glyphname = m;
lastChange = "2022-05-31 12:05:51 +0000";
layers = (
{
layerId = "5E1A2ACF-25BB-4872-A226-5327BC7330DB";
paths = (
{
closed = 1;
nodes = (
"84 0 LINE",
"84 389 LINE",
"89 446 OFFCURVE",
"120 487 OFFCURVE",
"193 487 CURVE SMOOTH",
"293 487 OFFCURVE",
"296 422 OFFCURVE",
"296 363 CURVE SMOOTH",
"296 0 LINE",
"312 0 LINE",
"312 372 LINE",
"317 440 OFFCURVE",
"349 487 OFFCURVE",
"422 487 CURVE SMOOTH",
"522 487 OFFCURVE",
"525 422 OFFCURVE",
"525 363 CURVE SMOOTH",
"525 0 LINE",
"541 0 LINE",
"541 372 LINE SMOOTH",
"541 433 OFFCURVE",
"535 503 OFFCURVE",
"422 503 CURVE SMOOTH",
"361 503 OFFCURVE",
"322 475 OFFCURVE",
"307 430 CURVE",
"298 470 OFFCURVE",
"271 503 OFFCURVE",
"193 503 CURVE SMOOTH",
"130 503 OFFCURVE",
"99 476 OFFCURVE",
"84 445 CURVE",
"82 495 LINE",
"68 495 LINE",
"68 0 LINE"
);
}
);
width = 602;
}
);
leftKerningGroup = n;
leftMetricsKey = n;
note = m;
rightKerningGroup = n;
rightMetricsKey = n;
unicode = 006D;
},
{
glyphname = n;
lastChange = "2022-05-31 12:05:51 +0000";
layers = (
{
anchors = (
{
name = bottom;
position = "{190, 0}";
},
{
name = top;
position = "{190, 495}";
}
);
background = {
paths = (
{
closed = 1;
nodes = (
"68 0 LINE",
"84 0 LINE",
"84 389 LINE",
"89 446 OFFCURVE",
"120 487 OFFCURVE",
"193 487 CURVE SMOOTH",
"293 487 OFFCURVE",
"296 422 OFFCURVE",
"296 363 CURVE SMOOTH",
"296 0 LINE",
"312 0 LINE",
"312 372 LINE SMOOTH",
"312 433 OFFCURVE",
"306 503 OFFCURVE",
"193 503 CURVE SMOOTH",
"130 503 OFFCURVE",
"99 476 OFFCURVE",
"84 445 CURVE",
"82 495 LINE",
"68 495 LINE"
);
}
);
};
layerId = "5E1A2ACF-25BB-4872-A226-5327BC7330DB";
paths = (
{
closed = 1;
nodes = (
"84 0 LINE",
"84 384 LINE SMOOTH",
"84 441 OFFCURVE",
"119 487 OFFCURVE",
"193 487 CURVE SMOOTH",
"293 487 OFFCURVE",
"296 422 OFFCURVE",
"296 363 CURVE SMOOTH",
"296 0 LINE",
"312 0 LINE",
"312 372 LINE SMOOTH",
"312 433 OFFCURVE",
"306 503 OFFCURVE",
"193 503 CURVE SMOOTH",
"130 503 OFFCURVE",
"99 474 OFFCURVE",
"84 443 CURVE",
"82 495 LINE",
"68 495 LINE",
"68 0 LINE"
);
}
);
width = 373;
}
);
leftKerningGroup = n;
note = n;
rightKerningGroup = n;
unicode = 006E;
},
{
color = 3;
glyphname = eng;
lastChange = "2022-05-31 12:05:56 +0000";
layers = (
{
layerId = "5E1A2ACF-25BB-4872-A226-5327BC7330DB";
paths = (
{
closed = 1;
nodes = (
"288 -116 OFFCURVE",
"312 -86 OFFCURVE",
"312 -33 CURVE SMOOTH",
"312 372 LINE SMOOTH",
"312 433 OFFCURVE",
"306 503 OFFCURVE",
"193 503 CURVE SMOOTH",
"130 503 OFFCURVE",
"99 474 OFFCURVE",
"84 443 CURVE",
"82 495 LINE",
"68 495 LINE",
"68 0 LINE",
"84 0 LINE",
"84 384 LINE SMOOTH",
"84 441 OFFCURVE",
"119 487 OFFCURVE",
"193 487 CURVE SMOOTH",
"293 487 OFFCURVE",
"296 422 OFFCURVE",
"296 363 CURVE SMOOTH",
"296 -32 LINE SMOOTH",
"296 -68 OFFCURVE",
"283 -101 OFFCURVE",
"240 -101 CURVE SMOOTH",
"221 -101 OFFCURVE",
"204 -99 OFFCURVE",
"190 -97 CURVE",
"190 -113 LINE",
"189 -113 OFFCURVE",
"214 -116 OFFCURVE",
"239 -116 CURVE SMOOTH"
);
}
);
width = 373;
}
);
leftKerningGroup = n;
leftMetricsKey = n;
note = eng;
rightKerningGroup = n;
rightMetricsKey = n;
unicode = 014B;
},
{
glyphname = o;
lastChange = "2022-05-31 12:05:51 +0000";
layers = (
{
anchors = (
{
name = bottom;
position = "{180, 0}";
},
{
name = center;
position = "{180, 248}";
},
{
name = ogonek;
position = "{203, 0}";
},
{
name = top;
position = "{180, 495}";
},
{
name = topright;
position = "{214, 495}";
}
);
background = {
paths = (
{
closed = 1;
nodes = (
"293 -7 OFFCURVE",
"299 62 OFFCURVE",
"299 124 CURVE SMOOTH",
"299 372 LINE SMOOTH",
"299 433 OFFCURVE",
"293 503 OFFCURVE",
"180 503 CURVE SMOOTH",
"65 503 OFFCURVE",
"60 433 OFFCURVE",
"60 372 CURVE SMOOTH",
"60 124 LINE SMOOTH",
"60 62 OFFCURVE",
"65 -7 OFFCURVE",
"180 -7 CURVE SMOOTH"
);
},
{
closed = 1;
nodes = (
"76 3 OFFCURVE",
"71 68 OFFCURVE",
"71 127 CURVE SMOOTH",
"71 369 LINE SMOOTH",
"71 428 OFFCURVE",
"76 493 OFFCURVE",
"180 493 CURVE SMOOTH",
"283 493 OFFCURVE",
"288 428 OFFCURVE",
"288 369 CURVE SMOOTH",
"288 127 LINE SMOOTH",
"288 68 OFFCURVE",
"283 3 OFFCURVE",
"180 3 CURVE SMOOTH"
);
}
);
};
layerId = "5E1A2ACF-25BB-4872-A226-5327BC7330DB";
paths = (
{
closed = 1;
nodes = (
"292 -7 OFFCURVE",
"303 62 OFFCURVE",
"303 124 CURVE SMOOTH",
"303 372 LINE SMOOTH",
"303 433 OFFCURVE",
"292 503 OFFCURVE",
"183 503 CURVE SMOOTH",
"64 503 OFFCURVE",
"59 433 OFFCURVE",
"59 372 CURVE SMOOTH",
"59 124 LINE SMOOTH",
"59 62 OFFCURVE",
"64 -7 OFFCURVE",
"179 -7 CURVE SMOOTH"
);
},
{
closed = 1;
nodes = (
"75 9 OFFCURVE",
"75 74 OFFCURVE",
"75 127 CURVE SMOOTH",
"75 369 LINE SMOOTH",
"75 422 OFFCURVE",
"75 487 OFFCURVE",
"183 487 CURVE SMOOTH",
"282 487 OFFCURVE",
"287 422 OFFCURVE",
"287 369 CURVE SMOOTH",
"287 127 LINE SMOOTH",
"287 74 OFFCURVE",
"282 9 OFFCURVE",
"179 9 CURVE SMOOTH"
);
}
);
width = 362;
}
);
leftKerningGroup = o;
note = o;
rightKerningGroup = o;
rightMetricsKey = "=|";
unicode = 006F;
},
{
glyphname = oslash;
lastChange = "2022-05-31 12:05:51 +0000";
layers = (
{
anchors = (
{
name = top;
position = "{181, 495}";
}
);
layerId = "5E1A2ACF-25BB-4872-A226-5327BC7330DB";
paths = (
{
closed = 1;
nodes = (
"37 -46 LINE",
"77 33 LINE",
"93 9 OFFCURVE",
"123 -7 OFFCURVE",
"179 -7 CURVE SMOOTH",
"292 -7 OFFCURVE",
"303 62 OFFCURVE",
"303 124 CURVE SMOOTH",
"303 372 LINE SMOOTH",
"303 399 OFFCURVE",
"301 428 OFFCURVE",
"289 451 CURVE",
"338 548 LINE",
"321 548 LINE",
"280 466 LINE",
"262 488 OFFCURVE",
"233 503 OFFCURVE",
"183 503 CURVE SMOOTH",
"64 503 OFFCURVE",
"59 433 OFFCURVE",
"59 372 CURVE SMOOTH",
"59 124 LINE SMOOTH",
"59 99 OFFCURVE",
"60 73 OFFCURVE",
"68 51 CURVE",
"19 -46 LINE"
);
},
{
closed = 1;
nodes = (
"125 9 OFFCURVE",
"99 27 OFFCURVE",
"86 51 CURVE",
"279 432 LINE",
"286 412 OFFCURVE",
"287 390 OFFCURVE",
"287 369 CURVE SMOOTH",
"287 127 LINE SMOOTH",
"287 74 OFFCURVE",
"282 9 OFFCURVE",
"179 9 CURVE SMOOTH"
);
},
{
closed = 1;
nodes = (
"75 90 OFFCURVE",
"75 109 OFFCURVE",
"75 127 CURVE SMOOTH",
"75 369 LINE SMOOTH",
"75 422 OFFCURVE",
"75 487 OFFCURVE",
"183 487 CURVE SMOOTH",
"231 487 OFFCURVE",
"257 472 OFFCURVE",
"271 450 CURVE",
"79 72 LINE"
);
}
);
width = 362;
}
);
leftKerningGroup = o;
note = oslash;
rightKerningGroup = o;
unicode = 00F8;
},
{
glyphname = oe;
lastChange = "2022-05-31 12:05:51 +0000";
layers = (
{
anchors = (
{
name = bottom;
position = "{406, 0}";
},
{
name = center;
position = "{180, 248}";
},
{
name = ogonek;
position = "{475, 6}";
},
{
name = top;
position = "{412, 495}";
},
{
name = topright;
position = "{214, 495}";
}
);
background = {
paths = (
{
closed = 1;
nodes = (
"255 -7 OFFCURVE",
"281 24 OFFCURVE",
"292 64 CURVE",
"303 24 OFFCURVE",
"330 -7 OFFCURVE",
"407 -7 CURVE SMOOTH",
"520 -7 OFFCURVE",
"526 62 OFFCURVE",
"526 124 CURVE SMOOTH",
"526 167 LINE",
"515 167 LINE",
"515 127 LINE SMOOTH",
"515 68 OFFCURVE",
"510 3 OFFCURVE",
"407 3 CURVE SMOOTH",
"314 3 OFFCURVE",
"298 56 OFFCURVE",
"298 110 CURVE SMOOTH",
"298 263 LINE",
"526 263 LINE",
"526 372 LINE SMOOTH",
"526 433 OFFCURVE",
"520 503 OFFCURVE",
"407 503 CURVE SMOOTH",
"330 503 OFFCURVE",
"302 471 OFFCURVE",
"292 432 CURVE",
"282 471 OFFCURVE",
"254 503 OFFCURVE",
"179 503 CURVE SMOOTH",
"64 503 OFFCURVE",
"59 433 OFFCURVE",
"59 372 CURVE SMOOTH",
"59 124 LINE SMOOTH",
"59 62 OFFCURVE",
"64 -7 OFFCURVE",
"179 -7 CURVE SMOOTH"
);
},
{
closed = 1;
nodes = (
"75 3 OFFCURVE",
"70 68 OFFCURVE",
"70 127 CURVE SMOOTH",
"70 369 LINE SMOOTH",
"70 428 OFFCURVE",
"75 493 OFFCURVE",
"179 493 CURVE SMOOTH",
"271 493 OFFCURVE",
"287 440 OFFCURVE",
"287 386 CURVE SMOOTH",
"287 127 LINE SMOOTH",
"287 68 OFFCURVE",
"282 3 OFFCURVE",
"179 3 CURVE SMOOTH"
);
},
{
closed = 1;
nodes = (
"298 273 LINE",
"298 386 LINE SMOOTH",
"298 440 OFFCURVE",
"314 493 OFFCURVE",
"407 493 CURVE SMOOTH",
"510 493 OFFCURVE",
"515 428 OFFCURVE",
"515 369 CURVE SMOOTH",
"515 273 LINE"
);
}
);
};
layerId = "5E1A2ACF-25BB-4872-A226-5327BC7330DB";
paths = (
{
closed = 1;
nodes = (
"251 -7 OFFCURVE",
"281 21 OFFCURVE",
"294 57 CURVE",
"305 21 OFFCURVE",
"334 -7 OFFCURVE",
"407 -7 CURVE SMOOTH",
"520 -7 OFFCURVE",
"526 62 OFFCURVE",
"526 124 CURVE SMOOTH",
"526 167 LINE",
"510 167 LINE",
"510 127 LINE SMOOTH",
"510 66 OFFCURVE",
"505 9 OFFCURVE",
"407 9 CURVE SMOOTH",
"308 9 OFFCURVE",
"303 68 OFFCURVE",
"303 127 CURVE SMOOTH",
"303 263 LINE",
"526 263 LINE",
"526 372 LINE SMOOTH",
"526 438 OFFCURVE",
"518 503 OFFCURVE",
"407 503 CURVE SMOOTH",
"336 503 OFFCURVE",
"307 474 OFFCURVE",
"295 437 CURVE",
"283 474 OFFCURVE",
"253 503 OFFCURVE",
"183 503 CURVE SMOOTH",
"64 503 OFFCURVE",
"59 433 OFFCURVE",
"59 372 CURVE SMOOTH",
"59 124 LINE SMOOTH",
"59 62 OFFCURVE",
"64 -7 OFFCURVE",
"179 -7 CURVE SMOOTH"
);
},
{
closed = 1;
nodes = (
"75 9 OFFCURVE",
"75 74 OFFCURVE",
"75 127 CURVE SMOOTH",
"75 369 LINE SMOOTH",
"75 422 OFFCURVE",
"75 487 OFFCURVE",
"183 487 CURVE SMOOTH",
"282 487 OFFCURVE",
"287 422 OFFCURVE",
"287 369 CURVE SMOOTH",
"287 127 LINE SMOOTH",
"287 74 OFFCURVE",
"282 9 OFFCURVE",
"179 9 CURVE SMOOTH"
);
},
{
closed = 1;
nodes = (
"303 363 LINE SMOOTH",
"303 438 OFFCURVE",
"318 487 OFFCURVE",
"407 487 CURVE SMOOTH",
"507 487 OFFCURVE",
"510 433 OFFCURVE",
"510 363 CURVE SMOOTH",
"510 279 LINE",
"303 279 LINE"
);
}
);
width = 583;
}
);
leftKerningGroup = o;
leftMetricsKey = o;
note = oe;
rightKerningGroup = e;
rightMetricsKey = e;
unicode = 0153;
},
{
glyphname = p;
lastChange = "2022-05-31 12:05:51 +0000";
layers = (
{
layerId = "5E1A2ACF-25BB-4872-A226-5327BC7330DB";
paths = (
{
closed = 1;
nodes = (
"84 -116 LINE",
"84 38 LINE",
"92 16 OFFCURVE",
"121 -7 OFFCURVE",
"188 -7 CURVE SMOOTH",
"301 -7 OFFCURVE",
"307 62 OFFCURVE",
"307 124 CURVE SMOOTH",
"307 372 LINE SMOOTH",
"307 433 OFFCURVE",
"301 503 OFFCURVE",
"188 503 CURVE SMOOTH",
"119 503 OFFCURVE",
"91 471 OFFCURVE",
"84 445 CURVE",
"82 495 LINE",
"68 495 LINE",
"68 -116 LINE"
);
},
{
closed = 1;
nodes = (
"84 9 OFFCURVE",
"84 74 OFFCURVE",
"84 127 CURVE SMOOTH",
"84 363 LINE SMOOTH",
"84 428 OFFCURVE",
"92 487 OFFCURVE",
"188 487 CURVE SMOOTH",
"291 487 OFFCURVE",
"291 428 OFFCURVE",
"291 369 CURVE SMOOTH",
"291 127 LINE SMOOTH",
"291 74 OFFCURVE",
"291 9 OFFCURVE",
"188 9 CURVE SMOOTH"
);
}
);
width = 366;
}
);
leftKerningGroup = n;
leftMetricsKey = n;
note = p;
rightKerningGroup = o;
rightMetricsKey = o;
unicode = 0070;
},
{
glyphname = thorn;
lastChange = "2022-05-31 12:05:51 +0000";
layers = (
{
layerId = "5E1A2ACF-25BB-4872-A226-5327BC7330DB";
paths = (
{
closed = 1;
nodes = (
"84 -116 LINE",
"84 38 LINE",
"92 16 OFFCURVE",
"121 -7 OFFCURVE",
"188 -7 CURVE SMOOTH",
"301 -7 OFFCURVE",
"307 62 OFFCURVE",
"307 124 CURVE SMOOTH",
"307 372 LINE SMOOTH",
"307 433 OFFCURVE",
"301 503 OFFCURVE",
"188 503 CURVE SMOOTH",
"119 503 OFFCURVE",
"91 471 OFFCURVE",
"84 445 CURVE",
"84 630 LINE",
"68 630 LINE",
"68 -116 LINE"
);
},
{
closed = 1;
nodes = (
"84 9 OFFCURVE",
"84 74 OFFCURVE",
"84 127 CURVE SMOOTH",
"84 363 LINE SMOOTH",
"84 428 OFFCURVE",
"92 487 OFFCURVE",
"188 487 CURVE SMOOTH",
"291 487 OFFCURVE",
"291 428 OFFCURVE",
"291 369 CURVE SMOOTH",
"291 127 LINE SMOOTH",
"291 74 OFFCURVE",
"291 9 OFFCURVE",
"188 9 CURVE SMOOTH"
);
}
);
width = 366;
}
);
leftMetricsKey = n;
note = thorn;
rightKerningGroup = o;
rightMetricsKey = o;
unicode = 00FE;
},
{
glyphname = q;
lastChange = "2022-05-31 12:05:51 +0000";
layers = (
{
layerId = "5E1A2ACF-25BB-4872-A226-5327BC7330DB";
paths = (
{
closed = 1;
nodes = (
"298 -116 LINE",
"298 495 LINE",
"284 495 LINE",
"282 445 LINE",
"275 471 OFFCURVE",
"247 503 OFFCURVE",
"178 503 CURVE SMOOTH",
"65 503 OFFCURVE",
"59 433 OFFCURVE",
"59 372 CURVE SMOOTH",
"59 124 LINE SMOOTH",
"59 62 OFFCURVE",
"65 -7 OFFCURVE",
"178 -7 CURVE SMOOTH",
"245 -7 OFFCURVE",
"274 16 OFFCURVE",
"282 38 CURVE",
"282 -116 LINE"
);
},
{
closed = 1;
nodes = (
"75 9 OFFCURVE",
"75 74 OFFCURVE",
"75 127 CURVE SMOOTH",
"75 369 LINE SMOOTH",
"75 428 OFFCURVE",
"75 487 OFFCURVE",
"178 487 CURVE SMOOTH",
"274 487 OFFCURVE",
"282 428 OFFCURVE",
"282 363 CURVE SMOOTH",
"282 127 LINE SMOOTH",
"282 74 OFFCURVE",
"282 9 OFFCURVE",
"178 9 CURVE SMOOTH"
);
}
);
width = 366;
}
);
leftKerningGroup = o;
leftMetricsKey = o;
note = q;
rightKerningGroup = u;
rightMetricsKey = "=|n";
unicode = 0071;
},
{
glyphname = r;
lastChange = "2022-05-31 12:05:51 +0000";
layers = (
{
anchors = (
{
name = bottom;
position = "{75, 0}";
},
{
name = top;
position = "{138, 495}";
}
);
background = {
paths = (
{
closed = 1;
nodes = (
"81 0 LINE",
"81 425 LINE",
"86 446 OFFCURVE",
"117 492 OFFCURVE",
"189 492 CURVE SMOOTH",
"204 492 OFFCURVE",
"216 491 OFFCURVE",
"227 490 CURVE",
"227 500 LINE",
"216 501 OFFCURVE",
"204 502 OFFCURVE",
"189 502 CURVE SMOOTH",
"146 502 OFFCURVE",
"100 488 OFFCURVE",
"81 449 CURVE",
"79 495 LINE",
"69 495 LINE",
"69 0 LINE"
);
}
);
};
layerId = "5E1A2ACF-25BB-4872-A226-5327BC7330DB";
paths = (
{
closed = 1;
nodes = (
"84 0 LINE",
"84 389 LINE SMOOTH",
"84 442 OFFCURVE",
"120 487 OFFCURVE",
"193 487 CURVE SMOOTH",
"207 487 OFFCURVE",
"219 486 OFFCURVE",
"230 484 CURVE",
"230 500 LINE",
"219 502 OFFCURVE",
"207 503 OFFCURVE",
"193 503 CURVE SMOOTH",
"130 503 OFFCURVE",
"99 476 OFFCURVE",
"84 445 CURVE",
"82 495 LINE",
"68 495 LINE",
"68 0 LINE"
);
}
);
width = 229;
}
);
leftKerningGroup = n;
leftMetricsKey = n;
note = r;
rightKerningGroup = r;
unicode = 0072;
},
{
glyphname = s;
lastChange = "2022-05-31 12:05:51 +0000";
layers = (
{
anchors = (
{
name = bottom;
position = "{162, 0}";
},
{
name = top;
position = "{165, 495}";
}
);
background = {
paths = (
{
closed = 1;
nodes = (
"221 -6 OFFCURVE",
"278 19 OFFCURVE",
"278 96 CURVE SMOOTH",
"278 134 LINE SMOOTH",
"278 217 OFFCURVE",
"212 238 OFFCURVE",
"153 265 CURVE SMOOTH",
"101 287 OFFCURVE",
"56 311 OFFCURVE",
"56 372 CURVE SMOOTH",
"56 404 LINE SMOOTH",
"56 455 OFFCURVE",
"94 492 OFFCURVE",
"160 492 CURVE SMOOTH",
"226 492 OFFCURVE",
"267 465 OFFCURVE",
"267 401 CURVE SMOOTH",
"267 336 LINE",
"279 336 LINE",
"279 401 LINE SMOOTH",
"279 473 OFFCURVE",
"229 502 OFFCURVE",
"160 502 CURVE SMOOTH",
"89 502 OFFCURVE",
"44 460 OFFCURVE",
"44 404 CURVE SMOOTH",
"44 370 LINE SMOOTH",
"44 304 OFFCURVE",
"100 275 OFFCURVE",
"151 254 CURVE SMOOTH",
"206 230 OFFCURVE",
"266 209 OFFCURVE",
"266 134 CURVE SMOOTH",
"266 96 LINE SMOOTH",
"266 28 OFFCURVE",
"220 4 OFFCURVE",
"158 4 CURVE SMOOTH",
"94 4 OFFCURVE",
"52 34 OFFCURVE",
"52 99 CURVE SMOOTH",
"52 166 LINE",
"40 166 LINE",
"40 99 LINE SMOOTH",
"40 26 OFFCURVE",
"89 -6 OFFCURVE",
"158 -6 CURVE SMOOTH"
);
}
);
};
layerId = "5E1A2ACF-25BB-4872-A226-5327BC7330DB";
paths = (
{
closed = 1;
nodes = (
"223 -6 OFFCURVE",
"280 19 OFFCURVE",
"280 96 CURVE SMOOTH",
"280 134 LINE SMOOTH",
"280 217 OFFCURVE",
"219 242 OFFCURVE",
"160 269 CURVE SMOOTH",
"117 289 OFFCURVE",
"57 311 OFFCURVE",
"57 377 CURVE SMOOTH",
"57 395 LINE SMOOTH",
"57 449 OFFCURVE",
"95 486 OFFCURVE",
"162 486 CURVE SMOOTH",
"229 486 OFFCURVE",
"265 459 OFFCURVE",
"265 395 CURVE SMOOTH",
"265 336 LINE",
"281 336 LINE",
"281 401 LINE SMOOTH",
"281 473 OFFCURVE",
"231 502 OFFCURVE",
"162 502 CURVE SMOOTH",
"86 502 OFFCURVE",
"41 460 OFFCURVE",
"41 404 CURVE SMOOTH",
"41 370 LINE SMOOTH",
"41 304 OFFCURVE",
"92 282 OFFCURVE",
"155 254 CURVE SMOOTH",
"210 230 OFFCURVE",
"264 209 OFFCURVE",
"264 134 CURVE SMOOTH",
"264 96 LINE SMOOTH",
"264 34 OFFCURVE",
"223 10 OFFCURVE",
"160 10 CURVE SMOOTH",
"100 10 OFFCURVE",
"58 40 OFFCURVE",
"58 99 CURVE SMOOTH",
"58 166 LINE",
"42 166 LINE",
"42 99 LINE SMOOTH",
"42 26 OFFCURVE",
"91 -6 OFFCURVE",
"160 -6 CURVE SMOOTH"
);
}
);
width = 322;
}
);
leftKerningGroup = s;
note = s;
rightKerningGroup = s;
unicode = 0073;
},
{
glyphname = germandbls;
lastChange = "2022-05-31 12:05:51 +0000";
layers = (
{
layerId = "5E1A2ACF-25BB-4872-A226-5327BC7330DB";
paths = (
{
closed = 1;
nodes = (
"67 -146 OFFCURVE",
"86 -115 OFFCURVE",
"86 -60 CURVE SMOOTH",
"86 528 LINE SMOOTH",
"86 575 OFFCURVE",
"95 617 OFFCURVE",
"190 617 CURVE SMOOTH",
"262 617 OFFCURVE",
"295 592 OFFCURVE",
"295 531 CURVE SMOOTH",
"295 433 LINE SMOOTH",
"295 385 OFFCURVE",
"263 349 OFFCURVE",
"204 349 CURVE SMOOTH",
"150 349 LINE",
"150 333 LINE",
"193 333 LINE SMOOTH",
"253 333 OFFCURVE",
"307 309 OFFCURVE",
"307 239 CURVE SMOOTH",
"307 123 LINE SMOOTH",
"307 31 OFFCURVE",
"266 16 OFFCURVE",
"207 16 CURVE SMOOTH",
"130 16 LINE",
"130 0 LINE",
"207 0 LINE SMOOTH",
"272 0 OFFCURVE",
"323 15 OFFCURVE",
"323 119 CURVE SMOOTH",
"323 244 LINE SMOOTH",
"323 300 OFFCURVE",
"282 335 OFFCURVE",
"236 341 CURVE",
"236 342 LINE",
"279 346 OFFCURVE",
"312 385 OFFCURVE",
"312 429 CURVE SMOOTH",
"312 538 LINE SMOOTH",
"312 610 OFFCURVE",
"265 633 OFFCURVE",
"190 633 CURVE SMOOTH",
"93 633 OFFCURVE",
"70 599 OFFCURVE",
"70 527 CURVE SMOOTH",
"70 457 LINE",
"39 457 LINE",
"39 441 LINE",
"70 441 LINE",
"70 -55 LINE SMOOTH",
"70 -104 OFFCURVE",
"60 -131 OFFCURVE",
"8 -131 CURVE SMOOTH",
"-4 -131 OFFCURVE",
"-19 -131 OFFCURVE",
"-32 -130 CURVE SMOOTH",
"-54 -128 LINE",
"-54 -143 LINE",
"-43 -144 OFFCURVE",
"-10 -146 OFFCURVE",
"14 -146 CURVE SMOOTH"
);
}
);
width = 381;
}
);
leftKerningGroup = long;
note = germandbls;
unicode = 00DF;
},
{
glyphname = longs;
lastChange = "2022-05-31 12:05:51 +0000";
layers = (
{
layerId = "5E1A2ACF-25BB-4872-A226-5327BC7330DB";
paths = (
{
closed = 1;
nodes = (
"64 -147 OFFCURVE",
"87 -114 OFFCURVE",
"87 -58 CURVE SMOOTH",
"87 552 LINE SMOOTH",
"87 584 OFFCURVE",
"95 621 OFFCURVE",
"148 621 CURVE SMOOTH",
"155 621 OFFCURVE",
"189 620 OFFCURVE",
"202 617 CURVE",
"202 632 LINE",
"195 633 OFFCURVE",
"173 636 OFFCURVE",
"143 636 CURVE SMOOTH",
"91 636 OFFCURVE",
"70 603 OFFCURVE",
"70 547 CURVE SMOOTH",
"70 441 LINE",
"39 441 LINE",
"39 425 LINE",
"70 425 LINE",
"71 -63 LINE SMOOTH",
"71 -98 OFFCURVE",
"52 -132 OFFCURVE",
"15 -132 CURVE SMOOTH",
"-5 -132 OFFCURVE",
"-34 -130 OFFCURVE",
"-45 -128 CURVE",
"-45 -143 LINE",
"-31 -145 OFFCURVE",
"-11 -147 OFFCURVE",
"16 -147 CURVE SMOOTH"
);
}
);
width = 188;
}
);
leftKerningGroup = long;
note = longs;
rightKerningGroup = long;
rightMetricsKey = f;
unicode = 017F;
},
{
glyphname = t;
lastChange = "2022-05-31 12:05:51 +0000";
layers = (
{
anchors = (
{
name = bottom;
position = "{138, 0}";
},
{
name = center;
position = "{111, 378}";
},
{
name = top;
position = "{111, 495}";
},
{
name = topright;
position = "{142, 528}";
}
);
layerId = "5E1A2ACF-25BB-4872-A226-5327BC7330DB";
paths = (
{
closed = 1;
nodes = (
"166 0 OFFCURVE",
"191 3 OFFCURVE",
"200 4 CURVE",
"200 20 LINE",
"176 17 OFFCURVE",
"159 15 OFFCURVE",
"140 15 CURVE SMOOTH",
"95 15 OFFCURVE",
"84 51 OFFCURVE",
"84 88 CURVE SMOOTH",
"84 479 LINE",
"200 479 LINE",
"200 495 LINE",
"84 495 LINE",
"84 592 LINE",
"71 592 LINE",
"68 495 LINE",
"30 493 LINE",
"30 479 LINE",
"68 479 LINE",
"68 93 LINE SMOOTH",
"68 31 OFFCURVE",
"89 0 OFFCURVE",
"141 0 CURVE SMOOTH"
);
}
);
width = 212;
}
);
leftKerningGroup = t;
note = t;
rightKerningGroup = t;
unicode = 0074;
},
{
color = 3;
glyphname = u;
lastChange = "2022-05-31 12:05:51 +0000";
layers = (
{
anchors = (
{
name = bottom;
position = "{190, 0}";
},
{
name = ogonek;
position = "{312, 0}";
},
{
name = top;
position = "{190, 495}";
},
{
name = topright;
position = "{296, 495}";
}
);
background = {
paths = (
{
closed = 1;
nodes = (
"252 -9 OFFCURVE",
"283 18 OFFCURVE",
"298 50 CURVE",
"301 0 LINE",
"310 0 LINE",
"310 495 LINE",
"298 495 LINE",
"298 78 LINE",
"293 43 OFFCURVE",
"262 3 OFFCURVE",
"189 3 CURVE SMOOTH",
"85 3 OFFCURVE",
"82 67 OFFCURVE",
"82 126 CURVE SMOOTH",
"82 495 LINE",
"70 495 LINE",
"70 123 LINE SMOOTH",
"70 61 OFFCURVE",
"76 -9 OFFCURVE",
"189 -9 CURVE SMOOTH"
);
}
);
};
layerId = "5E1A2ACF-25BB-4872-A226-5327BC7330DB";
paths = (
{
closed = 1;
nodes = (
"250 -8 OFFCURVE",
"281 19 OFFCURVE",
"296 50 CURVE",
"298 0 LINE",
"312 0 LINE",
"312 495 LINE",
"296 495 LINE",
"296 106 LINE",
"291 49 OFFCURVE",
"260 8 OFFCURVE",
"187 8 CURVE SMOOTH",
"87 8 OFFCURVE",
"84 73 OFFCURVE",
"84 132 CURVE SMOOTH",
"84 495 LINE",
"68 495 LINE",
"68 123 LINE SMOOTH",
"68 62 OFFCURVE",
"74 -8 OFFCURVE",
"187 -8 CURVE SMOOTH"
);
}
);
width = 380;
}
);
leftKerningGroup = u;
leftMetricsKey = n;
note = u;
rightKerningGroup = u;
rightMetricsKey = "=|n";
unicode = 0075;
},
{
glyphname = v;
lastChange = "2022-05-31 12:05:51 +0000";
layers = (
{
layerId = "5E1A2ACF-25BB-4872-A226-5327BC7330DB";
paths = (
{
closed = 1;
nodes = (
"157 0 LINE",
"278 495 LINE",
"262 495 LINE",
"148 27 LINE",
"35 495 LINE",
"19 495 LINE",
"139 0 LINE"
);
}
);
width = 297;
}
);
leftKerningGroup = v;
note = v;
rightKerningGroup = v;
unicode = 0076;
},
{
glyphname = w;
lastChange = "2022-05-31 12:05:51 +0000";
layers = (
{
anchors = (
{
name = bottom;
position = "{270, 0}";
},
{
name = top;
position = "{270, 495}";
}
);
layerId = "5E1A2ACF-25BB-4872-A226-5327BC7330DB";
paths = (
{
closed = 1;
nodes = (
"157 0 LINE",
"270 462 LINE",
"382 0 LINE",
"400 0 LINE",
"521 495 LINE",
"505 495 LINE",
"391 27 LINE",
"278 495 LINE",
"262 495 LINE",
"148 27 LINE",
"35 495 LINE",
"19 495 LINE",
"139 0 LINE"
);
}
);
width = 540;
}
);
leftKerningGroup = v;
leftMetricsKey = v;
note = w;
rightKerningGroup = v;
rightMetricsKey = v;
unicode = 0077;
},
{
glyphname = x;
lastChange = "2022-05-31 12:05:51 +0000";
layers = (
{
layerId = "5E1A2ACF-25BB-4872-A226-5327BC7330DB";
paths = (
{
closed = 1;
nodes = (
"37 0 LINE",
"135 255 LINE",
"163 255 LINE",
"261 0 LINE",
"280 0 LINE",
"176 264 LINE",
"270 495 LINE",
"253 495 LINE",
"162 271 LINE",
"136 271 LINE",
"52 495 LINE",
"35 495 LINE",
"121 263 LINE",
"19 0 LINE"
);
}
);
width = 299;
}
);
leftKerningGroup = x;
note = x;
rightKerningGroup = k;
unicode = 0078;
},
{
glyphname = y;
lastChange = "2022-05-31 12:05:51 +0000";
layers = (
{
anchors = (
{
name = bottom;
position = "{203, 0}";
},
{
name = top;
position = "{148, 495}";
}
);
layerId = "5E1A2ACF-25BB-4872-A226-5327BC7330DB";
paths = (
{
closed = 1;
nodes = (
"113 -115 OFFCURVE",
"141 -70 OFFCURVE",
"158 -1 CURVE SMOOTH",
"279 495 LINE",
"263 495 LINE",
"149 27 LINE",
"36 495 LINE",
"20 495 LINE",
"141 -4 LINE",
"128 -82 OFFCURVE",
"84 -101 OFFCURVE",
"53 -101 CURVE SMOOTH",
"30 -101 OFFCURVE",
"7 -96 OFFCURVE",
"4 -95 CURVE",
"4 -109 LINE",
"7 -110 OFFCURVE",
"33 -115 OFFCURVE",
"53 -115 CURVE SMOOTH"
);
}
);
width = 298;
}
);
leftKerningGroup = y;
note = y;
rightKerningGroup = v;
rightMetricsKey = v;
unicode = 0079;
},
{
glyphname = z;
lastChange = "2022-05-31 12:05:51 +0000";
layers = (
{
anchors = (
{
name = bottom;
position = "{119, 0}";
},
{
name = center;
position = "{119, 248}";
},
{
name = top;
position = "{124, 495}";
}
);
layerId = "5E1A2ACF-25BB-4872-A226-5327BC7330DB";
paths = (
{
closed = 1;
nodes = (
"225 0 LINE",
"225 16 LINE",
"41 16 LINE",
"225 483 LINE",
"225 495 LINE",
"32 495 LINE",
"32 479 LINE",
"204 479 LINE",
"20 7 LINE",
"20 0 LINE"
);
}
);
width = 247;
}
);
leftKerningGroup = z;
note = z;
rightKerningGroup = z;
unicode = 007A;
},
{
color = 3;
glyphname = f_f;
lastChange = "2022-06-09 17:10:02 +0000";
layers = (
{
anchors = (
{
name = caret_1;
position = "{178, 0}";
}
);
background = {
paths = (
{
closed = 1;
nodes = (
"86 0 LINE",
"86 458 LINE",
"202 458 LINE",
"202 474 LINE",
"86 474 LINE",
"86 548 LINE SMOOTH",
"86 596 OFFCURVE",
"111 621 OFFCURVE",
"176 621 CURVE SMOOTH",
"199 621 OFFCURVE",
"235 617 OFFCURVE",
"260 606 CURVE",
"267 620 LINE",
"247 628 OFFCURVE",
"211 636 OFFCURVE",
"175 636 CURVE SMOOTH",
"104 636 OFFCURVE",
"70 607 OFFCURVE",
"70 543 CURVE SMOOTH",
"70 474 LINE",
"39 474 LINE",
"39 458 LINE",
"70 458 LINE",
"70 0 LINE"
);
},
{
closed = 1;
nodes = (
"254 0 LINE",
"254 458 LINE",
"370 458 LINE",
"370 474 LINE",
"254 474 LINE",
"254 548 LINE SMOOTH",
"254 585 OFFCURVE",
"265 621 OFFCURVE",
"310 621 CURVE SMOOTH",
"329 621 OFFCURVE",
"346 619 OFFCURVE",
"370 616 CURVE",
"370 632 LINE",
"361 633 OFFCURVE",
"336 636 OFFCURVE",
"311 636 CURVE SMOOTH",
"259 636 OFFCURVE",
"238 605 OFFCURVE",
"238 543 CURVE SMOOTH",
"238 474 LINE",
"177 474 LINE",
"177 458 LINE",
"238 458 LINE",
"238 0 LINE"
);
}
);
};
layerId = "5E1A2ACF-25BB-4872-A226-5327BC7330DB";
paths = (
{
closed = 1;
nodes = (
"86 0 LINE",
"86 458 LINE",
"238 458 LINE",
"238 0 LINE",
"254 0 LINE",
"254 458 LINE",
"370 458 LINE",
"370 474 LINE",
"254 474 LINE",
"254 548 LINE SMOOTH",
"254 585 OFFCURVE",
"265 621 OFFCURVE",
"310 621 CURVE SMOOTH",
"329 621 OFFCURVE",
"346 619 OFFCURVE",
"370 616 CURVE",
"370 632 LINE",
"361 633 OFFCURVE",
"336 636 OFFCURVE",
"311 636 CURVE SMOOTH",
"290 636 OFFCURVE",
"275 631 OFFCURVE",
"263 621 CURVE",
"243 629 OFFCURVE",
"209 636 OFFCURVE",
"175 636 CURVE SMOOTH",
"104 636 OFFCURVE",
"70 607 OFFCURVE",
"70 543 CURVE SMOOTH",
"70 474 LINE",
"39 474 LINE",
"39 458 LINE",
"70 458 LINE",
"70 0 LINE"
);
},
{
closed = 1;
nodes = (
"86 548 LINE SMOOTH",
"86 596 OFFCURVE",
"111 621 OFFCURVE",
"176 621 CURVE SMOOTH",
"197 621 OFFCURVE",
"228 618 OFFCURVE",
"252 609 CURVE",
"242 594 OFFCURVE",
"238 572 OFFCURVE",
"238 543 CURVE SMOOTH",
"238 474 LINE",
"86 474 LINE"
);
}
);
width = 356;
}
);
leftKerningGroup = f;
leftMetricsKey = f;
note = f_f;
rightKerningGroup = f;
rightMetricsKey = f;
},
{
color = 3;
glyphname = f_f_i;
lastChange = "2022-06-09 17:10:02 +0000";
layers = (
{
anchors = (
{
name = caret_1;
position = "{163.333, 0}";
},
{
name = caret_2;
position = "{326.667, 0}";
}
);
background = {
paths = (
{
closed = 1;
nodes = (
"422 0 LINE",
"422 474 LINE",
"406 474 LINE",
"406 0 LINE"
);
},
{
closed = 1;
nodes = (
"86 0 LINE",
"86 458 LINE",
"222 458 LINE",
"222 474 LINE",
"86 474 LINE",
"86 548 LINE SMOOTH",
"86 596 OFFCURVE",
"111 621 OFFCURVE",
"176 621 CURVE SMOOTH",
"199 621 OFFCURVE",
"235 617 OFFCURVE",
"260 606 CURVE",
"274 617 LINE",
"267 620 LINE",
"247 628 OFFCURVE",
"211 636 OFFCURVE",
"175 636 CURVE SMOOTH",
"104 636 OFFCURVE",
"70 607 OFFCURVE",
"70 543 CURVE SMOOTH",
"70 474 LINE",
"39 474 LINE",
"39 458 LINE",
"70 458 LINE",
"70 0 LINE"
);
},
{
closed = 1;
nodes = (
"254 0 LINE",
"254 458 LINE",
"411 458 LINE",
"411 474 LINE",
"254 474 LINE",
"254 548 LINE SMOOTH",
"254 596 OFFCURVE",
"279 621 OFFCURVE",
"344 621 CURVE SMOOTH",
"367 621 OFFCURVE",
"403 617 OFFCURVE",
"428 606 CURVE",
"428 623 LINE",
"406 630 OFFCURVE",
"375 636 OFFCURVE",
"343 636 CURVE SMOOTH",
"272 636 OFFCURVE",
"238 607 OFFCURVE",
"238 543 CURVE SMOOTH",
"238 474 LINE",
"207 474 LINE",
"207 458 LINE",
"238 458 LINE",
"238 0 LINE"
);
}
);
};
layerId = "5E1A2ACF-25BB-4872-A226-5327BC7330DB";
paths = (
{
closed = 1;
nodes = (
"86 0 LINE",
"86 458 LINE",
"238 458 LINE",
"238 0 LINE",
"254 0 LINE",
"254 458 LINE",
"411 458 LINE",
"411 474 LINE",
"254 474 LINE",
"254 548 LINE SMOOTH",
"254 596 OFFCURVE",
"279 621 OFFCURVE",
"344 621 CURVE SMOOTH",
"367 621 OFFCURVE",
"403 617 OFFCURVE",
"428 606 CURVE",
"428 623 LINE",
"406 630 OFFCURVE",
"375 636 OFFCURVE",
"343 636 CURVE SMOOTH",
"312 636 OFFCURVE",
"288 630 OFFCURVE",
"270 619 CURVE",
"267 620 LINE SMOOTH",
"247 628 OFFCURVE",
"211 636 OFFCURVE",
"175 636 CURVE SMOOTH",
"104 636 OFFCURVE",
"70 607 OFFCURVE",
"70 543 CURVE SMOOTH",
"70 474 LINE",
"39 474 LINE",
"39 458 LINE",
"70 458 LINE",
"70 0 LINE"
);
},
{
closed = 1;
nodes = (
"422 0 LINE",
"422 474 LINE",
"406 474 LINE",
"406 0 LINE"
);
},
{
closed = 1;
nodes = (
"86 548 LINE SMOOTH",
"86 596 OFFCURVE",
"111 621 OFFCURVE",
"176 621 CURVE SMOOTH",
"198 621 OFFCURVE",
"233 617 OFFCURVE",
"257 607 CURVE",
"244 592 OFFCURVE",
"238 571 OFFCURVE",
"238 543 CURVE SMOOTH",
"238 474 LINE",
"86 474 LINE"
);
}
);
width = 490;
}
);
leftKerningGroup = f;
leftMetricsKey = f;
note = f_f_i;
rightKerningGroup = i;
rightMetricsKey = i;
},
{
color = 3;
glyphname = f_f_l;
lastChange = "2022-06-09 17:10:02 +0000";
layers = (
{
anchors = (
{
name = caret_1;
position = "{163.333, 0}";
},
{
name = caret_2;
position = "{326.667, 0}";
}
);
background = {
paths = (
{
closed = 1;
nodes = (
"422 0 LINE",
"422 625 LINE",
"406 617 LINE",
"406 0 LINE"
);
},
{
closed = 1;
nodes = (
"86 0 LINE",
"86 458 LINE",
"222 458 LINE",
"222 474 LINE",
"86 474 LINE",
"86 548 LINE SMOOTH",
"86 596 OFFCURVE",
"111 621 OFFCURVE",
"176 621 CURVE SMOOTH",
"199 621 OFFCURVE",
"235 617 OFFCURVE",
"260 606 CURVE",
"274 617 LINE",
"267 620 LINE",
"247 628 OFFCURVE",
"211 636 OFFCURVE",
"175 636 CURVE SMOOTH",
"104 636 OFFCURVE",
"70 607 OFFCURVE",
"70 543 CURVE SMOOTH",
"70 474 LINE",
"39 474 LINE",
"39 458 LINE",
"70 458 LINE",
"70 0 LINE"
);
},
{
closed = 1;
nodes = (
"254 0 LINE",
"254 458 LINE",
"349 458 LINE",
"349 474 LINE",
"254 474 LINE",
"254 548 LINE SMOOTH",
"254 596 OFFCURVE",
"279 621 OFFCURVE",
"344 621 CURVE SMOOTH",
"367 621 OFFCURVE",
"403 617 OFFCURVE",
"428 606 CURVE",
"428 623 LINE",
"406 630 OFFCURVE",
"375 636 OFFCURVE",
"343 636 CURVE SMOOTH",
"272 636 OFFCURVE",
"238 607 OFFCURVE",
"238 543 CURVE SMOOTH",
"238 474 LINE",
"207 474 LINE",
"207 458 LINE",
"238 458 LINE",
"238 0 LINE"
);
}
);
};
layerId = "5E1A2ACF-25BB-4872-A226-5327BC7330DB";
paths = (
{
closed = 1;
nodes = (
"86 0 LINE",
"86 458 LINE",
"238 458 LINE",
"238 0 LINE",
"254 0 LINE",
"254 458 LINE",
"349 458 LINE",
"349 474 LINE",
"254 474 LINE",
"254 548 LINE SMOOTH",
"254 596 OFFCURVE",
"279 621 OFFCURVE",
"344 621 CURVE SMOOTH",
"361 621 OFFCURVE",
"385 619 OFFCURVE",
"406 613 CURVE",
"406 0 LINE",
"422 0 LINE",
"422 625 LINE",
"400 631 OFFCURVE",
"372 636 OFFCURVE",
"343 636 CURVE SMOOTH",
"312 636 OFFCURVE",
"288 630 OFFCURVE",
"270 619 CURVE",
"267 620 LINE SMOOTH",
"247 628 OFFCURVE",
"211 636 OFFCURVE",
"175 636 CURVE SMOOTH",
"104 636 OFFCURVE",
"70 607 OFFCURVE",
"70 543 CURVE SMOOTH",
"70 474 LINE",
"39 474 LINE",
"39 458 LINE",
"70 458 LINE",
"70 0 LINE"
);
},
{
closed = 1;
nodes = (
"86 548 LINE SMOOTH",
"86 596 OFFCURVE",
"111 621 OFFCURVE",
"176 621 CURVE SMOOTH",
"198 621 OFFCURVE",
"233 617 OFFCURVE",
"257 607 CURVE",
"244 592 OFFCURVE",
"238 571 OFFCURVE",
"238 543 CURVE SMOOTH",
"238 474 LINE",
"86 474 LINE"
);
}
);
width = 490;
}
);
leftKerningGroup = f;
leftMetricsKey = f;
note = f_f_l;
rightKerningGroup = l;
rightMetricsKey = l;
},
{
color = 3;
glyphname = fi;
lastChange = "2022-05-31 12:05:56 +0000";
layers = (
{
anchors = (
{
name = caret_1;
position = "{161, 0}";
}
);
background = {
paths = (
{
closed = 1;
nodes = (
"254 0 LINE",
"254 474 LINE",
"238 474 LINE",
"238 0 LINE"
);
},
{
closed = 1;
nodes = (
"86 0 LINE",
"86 458 LINE",
"243 458 LINE",
"243 474 LINE",
"86 474 LINE",
"86 548 LINE SMOOTH",
"86 596 OFFCURVE",
"111 621 OFFCURVE",
"176 621 CURVE SMOOTH",
"199 621 OFFCURVE",
"235 617 OFFCURVE",
"260 606 CURVE",
"260 623 LINE",
"238 630 OFFCURVE",
"207 636 OFFCURVE",
"175 636 CURVE SMOOTH",
"104 636 OFFCURVE",
"70 607 OFFCURVE",
"70 543 CURVE SMOOTH",
"70 474 LINE",
"39 474 LINE",
"39 458 LINE",
"70 458 LINE",
"70 0 LINE"
);
}
);
};
layerId = "5E1A2ACF-25BB-4872-A226-5327BC7330DB";
paths = (
{
closed = 1;
nodes = (
"86 0 LINE",
"86 458 LINE",
"238 458 LINE",
"238 0 LINE",
"254 0 LINE",
"254 474 LINE",
"86 474 LINE",
"86 548 LINE SMOOTH",
"86 596 OFFCURVE",
"111 621 OFFCURVE",
"176 621 CURVE SMOOTH",
"199 621 OFFCURVE",
"235 617 OFFCURVE",
"260 606 CURVE",
"260 623 LINE",
"238 630 OFFCURVE",
"207 636 OFFCURVE",
"175 636 CURVE SMOOTH",
"104 636 OFFCURVE",
"70 607 OFFCURVE",
"70 543 CURVE SMOOTH",
"70 474 LINE",
"39 474 LINE",
"39 458 LINE",
"70 458 LINE",
"70 0 LINE"
);
}
);
width = 322;
}
);
leftKerningGroup = f;
leftMetricsKey = f;
note = fi;
rightKerningGroup = i;
rightMetricsKey = i;
unicode = FB01;
},
{
color = 3;
glyphname = fl;
lastChange = "2022-05-31 12:05:56 +0000";
layers = (
{
anchors = (
{
name = caret_1;
position = "{161, 0}";
}
);
background = {
paths = (
{
closed = 1;
nodes = (
"254 0 LINE",
"254 625 LINE",
"238 617 LINE",
"238 0 LINE"
);
},
{
closed = 1;
nodes = (
"86 0 LINE",
"86 458 LINE",
"181 458 LINE",
"181 474 LINE",
"86 474 LINE",
"86 548 LINE SMOOTH",
"86 596 OFFCURVE",
"111 621 OFFCURVE",
"176 621 CURVE SMOOTH",
"199 621 OFFCURVE",
"235 617 OFFCURVE",
"260 606 CURVE",
"260 623 LINE",
"238 630 OFFCURVE",
"207 636 OFFCURVE",
"175 636 CURVE SMOOTH",
"104 636 OFFCURVE",
"70 607 OFFCURVE",
"70 543 CURVE SMOOTH",
"70 474 LINE",
"39 474 LINE",
"39 458 LINE",
"70 458 LINE",
"70 0 LINE"
);
}
);
};
layerId = "5E1A2ACF-25BB-4872-A226-5327BC7330DB";
paths = (
{
closed = 1;
nodes = (
"86 0 LINE",
"86 458 LINE",
"181 458 LINE",
"181 474 LINE",
"86 474 LINE",
"86 548 LINE SMOOTH",
"86 596 OFFCURVE",
"111 621 OFFCURVE",
"176 621 CURVE SMOOTH",
"193 621 OFFCURVE",
"217 619 OFFCURVE",
"238 613 CURVE",
"238 0 LINE",
"254 0 LINE",
"254 625 LINE",
"232 631 OFFCURVE",
"204 636 OFFCURVE",
"175 636 CURVE SMOOTH",
"104 636 OFFCURVE",
"70 607 OFFCURVE",
"70 543 CURVE SMOOTH",
"70 474 LINE",
"39 474 LINE",
"39 458 LINE",
"70 458 LINE",
"70 0 LINE"
);
}
);
width = 322;
}
);
leftKerningGroup = f;
leftMetricsKey = f;
note = fl;
rightKerningGroup = l;
rightMetricsKey = l;
unicode = FB02;
},
{
color = 3;
glyphname = longs_t;
lastChange = "2022-06-09 17:10:02 +0000";
layers = (
{
anchors = (
{
name = caret_1;
position = "{106, 0}";
}
);
background = {
paths = (
{
closed = 1;
nodes = (
"265 625 LINE",
"243 631 OFFCURVE",
"215 636 OFFCURVE",
"186 636 CURVE SMOOTH",
"115 636 OFFCURVE",
"81 607 OFFCURVE",
"81 543 CURVE SMOOTH",
"81 474 LINE",
"50 474 LINE",
"50 458 LINE",
"81 458 LINE",
"81 0 LINE",
"97 0 LINE",
"97 458 LINE",
"192 458 LINE",
"192 474 LINE",
"97 474 LINE",
"97 548 LINE SMOOTH",
"97 596 OFFCURVE",
"122 621 OFFCURVE",
"187 621 CURVE SMOOTH",
"204 621 OFFCURVE",
"228 619 OFFCURVE",
"249 613 CURVE",
"249 0 LINE",
"265 0 LINE"
);
}
);
};
layerId = "5E1A2ACF-25BB-4872-A226-5327BC7330DB";
paths = (
{
closed = 1;
nodes = (
"62 -144 OFFCURVE",
"86 -114 OFFCURVE",
"86 -61 CURVE SMOOTH",
"86 548 LINE SMOOTH",
"86 596 OFFCURVE",
"111 621 OFFCURVE",
"176 621 CURVE SMOOTH",
"204 621 OFFCURVE",
"228 619 OFFCURVE",
"249 613 CURVE",
"265 625 LINE",
"243 631 OFFCURVE",
"215 636 OFFCURVE",
"175 636 CURVE SMOOTH",
"104 636 OFFCURVE",
"70 607 OFFCURVE",
"70 543 CURVE SMOOTH",
"70 442 LINE",
"39 442 LINE",
"39 426 LINE",
"70 426 LINE",
"70 -60 LINE SMOOTH",
"70 -96 OFFCURVE",
"57 -129 OFFCURVE",
"14 -129 CURVE SMOOTH",
"-5 -129 OFFCURVE",
"-22 -127 OFFCURVE",
"-36 -125 CURVE",
"-36 -141 LINE",
"-37 -141 OFFCURVE",
"-12 -144 OFFCURVE",
"13 -144 CURVE SMOOTH"
);
},
{
closed = 1;
nodes = (
"347 0 OFFCURVE",
"372 3 OFFCURVE",
"381 4 CURVE",
"381 20 LINE",
"357 17 OFFCURVE",
"340 15 OFFCURVE",
"321 15 CURVE SMOOTH",
"276 15 OFFCURVE",
"265 51 OFFCURVE",
"265 88 CURVE SMOOTH",
"265 479 LINE",
"381 479 LINE",
"381 495 LINE",
"265 495 LINE",
"265 625 LINE",
"249 623 LINE",
"249 495 LINE",
"211 493 LINE",
"211 479 LINE",
"249 479 LINE",
"249 93 LINE SMOOTH",
"249 31 OFFCURVE",
"270 0 OFFCURVE",
"322 0 CURVE SMOOTH"
);
}
);
width = 393;
}
);
leftKerningGroup = long;
note = longs_t;
rightMetricsKey = t;
},
{
color = 3;
glyphname = s_t;
lastChange = "2022-06-09 17:10:02 +0000";
layers = (
{
anchors = (
{
name = caret_1;
position = "{341, 0}";
}
);
background = {
paths = (
{
closed = 1;
nodes = (
"281 401 LINE SMOOTH",
"281 473 OFFCURVE",
"231 502 OFFCURVE",
"162 502 CURVE SMOOTH",
"86 502 OFFCURVE",
"41 460 OFFCURVE",
"41 404 CURVE SMOOTH",
"41 370 LINE SMOOTH",
"41 304 OFFCURVE",
"92 282 OFFCURVE",
"155 254 CURVE SMOOTH",
"210 230 OFFCURVE",
"264 209 OFFCURVE",
"264 134 CURVE SMOOTH",
"264 96 LINE SMOOTH",
"264 34 OFFCURVE",
"223 10 OFFCURVE",
"160 10 CURVE SMOOTH",
"100 10 OFFCURVE",
"58 40 OFFCURVE",
"58 99 CURVE SMOOTH",
"58 166 LINE",
"42 166 LINE",
"42 99 LINE SMOOTH",
"42 26 OFFCURVE",
"91 -6 OFFCURVE",
"160 -6 CURVE",
"223 -6 OFFCURVE",
"280 19 OFFCURVE",
"280 96 CURVE SMOOTH",
"280 134 LINE SMOOTH",
"280 217 OFFCURVE",
"219 242 OFFCURVE",
"160 269 CURVE SMOOTH",
"117 289 OFFCURVE",
"57 311 OFFCURVE",
"57 377 CURVE SMOOTH",
"57 395 LINE SMOOTH",
"57 449 OFFCURVE",
"95 486 OFFCURVE",
"162 486 CURVE SMOOTH",
"229 486 OFFCURVE",
"265 459 OFFCURVE",
"265 395 CURVE SMOOTH",
"265 336 LINE",
"281 336 LINE"
);
},
{
closed = 1;
nodes = (
"379 31 OFFCURVE",
"400 0 OFFCURVE",
"452 0 CURVE SMOOTH",
"477 0 OFFCURVE",
"502 3 OFFCURVE",
"511 4 CURVE",
"511 20 LINE",
"487 17 OFFCURVE",
"470 15 OFFCURVE",
"451 15 CURVE SMOOTH",
"406 15 OFFCURVE",
"395 51 OFFCURVE",
"395 88 CURVE SMOOTH",
"395 479 LINE",
"511 479 LINE",
"511 495 LINE",
"395 495 LINE",
"395 625 LINE",
"382 625 LINE",
"379 495 LINE",
"341 493 LINE",
"341 479 LINE",
"379 479 LINE",
"379 93 LINE"
);
},
{
closed = 1;
nodes = (
"281 548 LINE",
"281 585 OFFCURVE",
"293 618 OFFCURVE",
"346 618 CURVE SMOOTH",
"358 618 OFFCURVE",
"375 615 OFFCURVE",
"382 613 CURVE",
"395 625 LINE",
"378 630 OFFCURVE",
"362 633 OFFCURVE",
"344 633 CURVE SMOOTH",
"287 633 OFFCURVE",
"265 605 OFFCURVE",
"265 543 CURVE SMOOTH",
"265 388 LINE",
"281 387 LINE"
);
}
);
};
layerId = "5E1A2ACF-25BB-4872-A226-5327BC7330DB";
paths = (
{
closed = 1;
nodes = (
"223 -6 OFFCURVE",
"280 19 OFFCURVE",
"280 96 CURVE SMOOTH",
"280 134 LINE SMOOTH",
"280 217 OFFCURVE",
"219 242 OFFCURVE",
"160 269 CURVE SMOOTH",
"117 289 OFFCURVE",
"57 311 OFFCURVE",
"57 377 CURVE SMOOTH",
"57 395 LINE SMOOTH",
"57 449 OFFCURVE",
"95 486 OFFCURVE",
"162 486 CURVE SMOOTH",
"229 486 OFFCURVE",
"265 459 OFFCURVE",
"265 395 CURVE SMOOTH",
"265 336 LINE",
"281 336 LINE",
"281 401 LINE SMOOTH",
"281 473 OFFCURVE",
"231 502 OFFCURVE",
"162 502 CURVE SMOOTH",
"86 502 OFFCURVE",
"41 460 OFFCURVE",
"41 404 CURVE SMOOTH",
"41 370 LINE SMOOTH",
"41 304 OFFCURVE",
"92 282 OFFCURVE",
"155 254 CURVE SMOOTH",
"210 230 OFFCURVE",
"264 209 OFFCURVE",
"264 134 CURVE SMOOTH",
"264 96 LINE SMOOTH",
"264 34 OFFCURVE",
"223 10 OFFCURVE",
"160 10 CURVE SMOOTH",
"100 10 OFFCURVE",
"58 40 OFFCURVE",
"58 99 CURVE SMOOTH",
"58 166 LINE",
"42 166 LINE",
"42 99 LINE SMOOTH",
"42 26 OFFCURVE",
"91 -6 OFFCURVE",
"160 -6 CURVE SMOOTH"
);
},
{
closed = 1;
nodes = (
"477 0 OFFCURVE",
"502 3 OFFCURVE",
"511 4 CURVE",
"511 20 LINE",
"487 17 OFFCURVE",
"470 15 OFFCURVE",
"451 15 CURVE SMOOTH",
"406 15 OFFCURVE",
"395 51 OFFCURVE",
"395 88 CURVE SMOOTH",
"395 479 LINE",
"511 479 LINE",
"511 495 LINE",
"395 495 LINE",
"395 625 LINE",
"382 625 LINE",
"379 495 LINE",
"341 493 LINE",
"341 479 LINE",
"379 479 LINE",
"379 93 LINE SMOOTH",
"379 31 OFFCURVE",
"400 0 OFFCURVE",
"452 0 CURVE SMOOTH"
);
},
{
closed = 1;
nodes = (
"281 552 LINE SMOOTH",
"281 589 OFFCURVE",
"293 618 OFFCURVE",
"346 618 CURVE SMOOTH",
"358 618 OFFCURVE",
"375 615 OFFCURVE",
"382 613 CURVE",
"395 625 LINE",
"378 630 OFFCURVE",
"362 633 OFFCURVE",
"344 633 CURVE SMOOTH",
"289 633 OFFCURVE",
"265 605 OFFCURVE",
"265 543 CURVE SMOOTH",
"265 388 LINE",
"281 387 LINE"
);
}
);
width = 523;
}
);
leftKerningGroup = s;
leftMetricsKey = s;
note = s_t;
rightKerningGroup = t;
rightMetricsKey = t;
},
{
color = 3;
glyphname = t_i;
lastChange = "2022-06-09 17:10:02 +0000";
layers = (
{
anchors = (
{
name = bottom;
position = "{277, 0}";
},
{
name = caret_1;
position = "{224, 0}";
},
{
name = center;
position = "{111, 378}";
},
{
name = ogonek;
position = "{285, 0}";
},
{
name = top;
position = "{280, 570}";
},
{
name = topright;
position = "{142, 528}";
}
);
layerId = "5E1A2ACF-25BB-4872-A226-5327BC7330DB";
paths = (
{
closed = 1;
nodes = (
"166 0 OFFCURVE",
"191 3 OFFCURVE",
"200 4 CURVE",
"200 20 LINE",
"176 17 OFFCURVE",
"159 15 OFFCURVE",
"140 15 CURVE SMOOTH",
"95 15 OFFCURVE",
"84 51 OFFCURVE",
"84 88 CURVE SMOOTH",
"84 479 LINE",
"278 479 LINE",
"278 495 LINE",
"84 495 LINE",
"84 592 LINE",
"71 592 LINE",
"68 495 LINE",
"30 493 LINE",
"30 479 LINE",
"68 479 LINE",
"68 93 LINE SMOOTH",
"68 31 OFFCURVE",
"89 0 OFFCURVE",
"141 0 CURVE SMOOTH"
);
},
{
closed = 1;
nodes = (
"288 0 LINE",
"288 495 LINE",
"272 495 LINE",
"272 0 LINE"
);
},
{
closed = 1;
nodes = (
"290 566 OFFCURVE",
"294 570 OFFCURVE",
"294 580 CURVE SMOOTH",
"294 590 OFFCURVE",
"290 594 OFFCURVE",
"280 594 CURVE SMOOTH",
"270 594 OFFCURVE",
"266 590 OFFCURVE",
"266 580 CURVE SMOOTH",
"266 570 OFFCURVE",
"270 566 OFFCURVE",
"280 566 CURVE SMOOTH"
);
}
);
width = 356;
}
);
leftKerningGroup = t;
leftMetricsKey = t;
note = t_i;
rightKerningGroup = i;
rightMetricsKey = i;
},
{
color = 3;
glyphname = t_u;
lastChange = "2022-06-09 17:10:02 +0000";
layers = (
{
anchors = (
{
name = caret_1;
position = "{218, 0}";
}
);
layerId = "5E1A2ACF-25BB-4872-A226-5327BC7330DB";
paths = (
{
closed = 1;
nodes = (
"166 0 OFFCURVE",
"191 3 OFFCURVE",
"200 4 CURVE",
"200 20 LINE",
"176 17 OFFCURVE",
"159 15 OFFCURVE",
"140 15 CURVE SMOOTH",
"95 15 OFFCURVE",
"84 51 OFFCURVE",
"84 88 CURVE SMOOTH",
"84 479 LINE",
"281 479 LINE",
"281 495 LINE",
"84 495 LINE",
"84 592 LINE",
"71 592 LINE",
"68 495 LINE",
"30 493 LINE",
"30 479 LINE",
"68 479 LINE",
"68 93 LINE SMOOTH",
"68 31 OFFCURVE",
"89 0 OFFCURVE",
"141 0 CURVE SMOOTH"
);
},
{
closed = 1;
nodes = (
"447 -8 OFFCURVE",
"478 19 OFFCURVE",
"493 50 CURVE",
"495 0 LINE",
"509 0 LINE",
"509 495 LINE",
"493 495 LINE",
"493 106 LINE",
"488 49 OFFCURVE",
"457 8 OFFCURVE",
"384 8 CURVE SMOOTH",
"284 8 OFFCURVE",
"281 73 OFFCURVE",
"281 132 CURVE SMOOTH",
"281 495 LINE",
"265 495 LINE",
"265 123 LINE SMOOTH",
"265 62 OFFCURVE",
"271 -8 OFFCURVE",
"384 -8 CURVE SMOOTH"
);
}
);
width = 577;
}
);
leftKerningGroup = t;
leftMetricsKey = t;
note = t_u;
rightKerningGroup = u;
rightMetricsKey = u;
},
{
color = 6;
glyphname = ordfeminine;
lastChange = "2022-05-31 12:05:51 +0000";
layers = (
{
layerId = "5E1A2ACF-25BB-4872-A226-5327BC7330DB";
paths = (
{
closed = 1;
nodes = (
"159 288 OFFCURVE",
"186 305 OFFCURVE",
"197 334 CURVE",
"191 335 LINE",
"192 292 LINE",
"205 292 LINE",
"205 536 LINE SMOOTH",
"205 568 OFFCURVE",
"203 599 OFFCURVE",
"135 599 CURVE SMOOTH",
"84 599 OFFCURVE",
"63 576 OFFCURVE",
"63 521 CURVE SMOOTH",
"63 492 LINE",
"78 492 LINE",
"78 520 LINE SMOOTH",
"78 557 OFFCURVE",
"84 584 OFFCURVE",
"135 584 CURVE SMOOTH",
"163 584 OFFCURVE",
"190 581 OFFCURVE",
"190 543 CURVE SMOOTH",
"190 535 LINE SMOOTH",
"190 508 OFFCURVE",
"178 496 OFFCURVE",
"129 469 CURVE SMOOTH",
"114 461 OFFCURVE",
"56 436 OFFCURVE",
"56 383 CURVE SMOOTH",
"56 362 LINE SMOOTH",
"56 290 OFFCURVE",
"95 288 OFFCURVE",
"123 288 CURVE SMOOTH"
);
},
{
closed = 1;
nodes = (
"98 303 OFFCURVE",
"72 305 OFFCURVE",
"72 362 CURVE SMOOTH",
"72 378 LINE SMOOTH",
"72 420 OFFCURVE",
"96 433 OFFCURVE",
"142 458 CURVE SMOOTH",
"163 469 OFFCURVE",
"178 480 OFFCURVE",
"189 492 CURVE",
"189 389 LINE SMOOTH",
"189 328 OFFCURVE",
"167 303 OFFCURVE",
"120 303 CURVE SMOOTH"
);
}
);
width = 262;
}
);
note = ordfeminine;
unicode = 00AA;
},
{
color = 6;
glyphname = ordmasculine;
lastChange = "2022-05-31 12:05:51 +0000";
layers = (
{
layerId = "5E1A2ACF-25BB-4872-A226-5327BC7330DB";
paths = (
{
closed = 1;
nodes = (
"185 291 OFFCURVE",
"202 309 OFFCURVE",
"202 370 CURVE SMOOTH",
"202 529 LINE SMOOTH",
"202 585 OFFCURVE",
"184 603 OFFCURVE",
"129 603 CURVE SMOOTH",
"73 603 OFFCURVE",
"55 586 OFFCURVE",
"55 529 CURVE SMOOTH",
"55 370 LINE SMOOTH",
"55 309 OFFCURVE",
"73 291 OFFCURVE",
"129 291 CURVE SMOOTH"
);
},
{
closed = 1;
nodes = (
"83 306 OFFCURVE",
"71 320 OFFCURVE",
"71 370 CURVE SMOOTH",
"71 529 LINE SMOOTH",
"71 574 OFFCURVE",
"85 590 OFFCURVE",
"129 590 CURVE SMOOTH",
"172 590 OFFCURVE",
"186 575 OFFCURVE",
"186 529 CURVE SMOOTH",
"186 370 LINE SMOOTH",
"186 321 OFFCURVE",
"173 306 OFFCURVE",
"128 306 CURVE SMOOTH"
);
}
);
width = 257;
}
);
note = ordmasculine;
unicode = 00BA;
},
{
color = 6;
glyphname = "Be-cy";
lastChange = "2022-05-31 12:05:51 +0000";
layers = (
{
layerId = "5E1A2ACF-25BB-4872-A226-5327BC7330DB";
paths = (
{
closed = 1;
nodes = (
"196 0 LINE SMOOTH",
"309 0 OFFCURVE",
"315 69 OFFCURVE",
"315 131 CURVE SMOOTH",
"315 304 LINE SMOOTH",
"315 365 OFFCURVE",
"309 435 OFFCURVE",
"196 435 CURVE SMOOTH",
"92 435 LINE",
"92 575 LINE",
"317 575 LINE",
"317 591 LINE",
"76 591 LINE",
"76 0 LINE"
);
},
{
closed = 1;
nodes = (
"92 419 LINE",
"196 419 LINE SMOOTH",
"294 419 OFFCURVE",
"299 354 OFFCURVE",
"299 295 CURVE SMOOTH",
"299 140 LINE SMOOTH",
"299 81 OFFCURVE",
"294 16 OFFCURVE",
"196 16 CURVE SMOOTH",
"92 16 LINE"
);
}
);
width = 378;
}
);
leftKerningGroup = H;
leftMetricsKey = H;
note = uni0411;
unicode = 0411;
},
{
color = 3;
glyphname = "Ge-cy";
lastChange = "2022-05-31 12:05:51 +0000";
layers = (
{
anchors = (
{
name = bottomright;
position = "{308, 0}";
},
{
name = top;
position = "{197, 591}";
}
);
layerId = "5E1A2ACF-25BB-4872-A226-5327BC7330DB";
paths = (
{
closed = 1;
nodes = (
"92 0 LINE",
"92 575 LINE",
"317 575 LINE",
"317 591 LINE",
"76 591 LINE",
"76 0 LINE"
);
}
);
width = 328;
}
);
leftKerningGroup = H;
leftMetricsKey = H;
note = uni0413;
rightKerningGroup = T;
unicode = 0413;
},
{
color = 6;
glyphname = "De-cy";
lastChange = "2022-05-31 12:05:51 +0000";
layers = (
{
layerId = "5E1A2ACF-25BB-4872-A226-5327BC7330DB";
paths = (
{
closed = 1;
nodes = (
"32 -99 LINE",
"32 -5 LINE",
"414 -5 LINE",
"414 -99 LINE",
"430 -99 LINE",
"430 11 LINE",
"354 11 LINE",
"354 591 LINE",
"152 591 LINE",
"116 92 LINE SMOOTH",
"112 40 OFFCURVE",
"99 13 OFFCURVE",
"66 11 CURVE SMOOTH",
"16 11 LINE",
"16 -99 LINE"
);
},
{
closed = 1;
nodes = (
"128 32 OFFCURVE",
"131 80 OFFCURVE",
"132 92 CURVE SMOOTH",
"167 575 LINE",
"338 575 LINE",
"338 11 LINE",
"104 11 LINE"
);
}
);
width = 443;
}
);
leftKerningGroup = De;
note = uni0414;
rightKerningGroup = De;
unicode = 0414;
},
{
color = 6;
glyphname = "Zhe-cy";
lastChange = "2022-05-31 12:05:51 +0000";
layers = (
{
layerId = "5E1A2ACF-25BB-4872-A226-5327BC7330DB";
paths = (
{
closed = 1;
nodes = (
"32 0 LINE",
"210 294 LINE",
"242 294 LINE",
"242 0 LINE",
"258 0 LINE",
"258 294 LINE",
"290 294 LINE",
"468 0 LINE",
"487 0 LINE",
"301 306 LINE",
"482 591 LINE",
"464 591 LINE",
"285 310 LINE",
"258 310 LINE",
"258 591 LINE",
"242 591 LINE",
"242 310 LINE",
"214 310 LINE",
"36 591 LINE",
"18 591 LINE",
"199 306 LINE",
"13 0 LINE"
);
}
);
width = 500;
}
);
leftKerningGroup = Zhe;
note = uni0416;
rightKerningGroup = K;
unicode = 0416;
},
{
color = 6;
glyphname = "Ii-cy";
lastChange = "2022-05-31 14:20:07 +0000";
layers = (
{
anchors = (
{
name = bottom;
position = "{213, 0}";
},
{
name = bottomright;
position = "{409, 0}";
},
{
name = top;
position = "{215, 591}";
}
);
layerId = "5E1A2ACF-25BB-4872-A226-5327BC7330DB";
paths = (
{
closed = 1;
nodes = (
"358 591 LINE",
"336 591 LINE",
"92 29 LINE",
"92 591 LINE",
"76 591 LINE",
"76 0 LINE",
"97 0 LINE",
"342 565 LINE",
"342 0 LINE",
"358 0 LINE"
);
}
);
width = 434;
}
);
leftKerningGroup = H;
note = uni0418;
rightKerningGroup = H;
unicode = 0418;
},
{
color = 3;
glyphname = "Ka-cy";
lastChange = "2022-05-31 12:05:51 +0000";
layers = (
{
anchors = (
{
name = bottomright;
position = "{312, 0}";
},
{
name = top;
position = "{194, 591}";
}
);
layerId = "5E1A2ACF-25BB-4872-A226-5327BC7330DB";
paths = (
{
closed = 1;
nodes = (
"92 0 LINE",
"92 296 LINE",
"123 296 LINE",
"300 0 LINE",
"319 0 LINE",
"135 306 LINE",
"314 591 LINE",
"296 591 LINE",
"121 312 LINE",
"92 312 LINE",
"92 591 LINE",
"76 591 LINE",
"76 0 LINE"
);
}
);
width = 332;
}
);
leftKerningGroup = H;
leftMetricsKey = H;
note = uni041A;
rightKerningGroup = K;
rightMetricsKey = K;
unicode = 041A;
},
{
color = 6;
glyphname = "El-cy";
lastChange = "2022-05-31 12:05:51 +0000";
layers = (
{
layerId = "5E1A2ACF-25BB-4872-A226-5327BC7330DB";
paths = (
{
closed = 1;
nodes = (
"110 0 OFFCURVE",
"116 77 OFFCURVE",
"116 92 CURVE",
"151 575 LINE",
"323 575 LINE",
"323 1 LINE",
"339 1 LINE",
"339 591 LINE",
"135 591 LINE",
"100 92 LINE SMOOTH",
"96 41 OFFCURVE",
"82 16 OFFCURVE",
"55 16 CURVE",
"55 0 LINE"
);
}
);
width = 415;
}
);
leftKerningGroup = El;
note = uni041B;
rightKerningGroup = H;
rightMetricsKey = H;
unicode = 041B;
},
{
color = 6;
glyphname = "Pe-cy";
lastChange = "2022-05-31 12:05:51 +0000";
layers = (
{
background = {
paths = (
{
closed = 1;
nodes = (
"89 0 LINE",
"89 580 LINE",
"306 580 LINE",
"306 0 LINE",
"318 0 LINE",
"318 591 LINE",
"77 591 LINE",
"77 0 LINE"
);
}
);
};
layerId = "5E1A2ACF-25BB-4872-A226-5327BC7330DB";
paths = (
{
closed = 1;
nodes = (
"92 0 LINE",
"92 575 LINE",
"301 575 LINE",
"301 0 LINE",
"317 0 LINE",
"317 591 LINE",
"76 591 LINE",
"76 0 LINE"
);
}
);
width = 393;
}
);
leftKerningGroup = H;
leftMetricsKey = H;
note = uni041F;
rightKerningGroup = H;
rightMetricsKey = H;
unicode = 041F;
},
{
color = 6;
glyphname = "Ef-cy";
lastChange = "2022-05-31 12:05:51 +0000";
layers = (
{
layerId = "5E1A2ACF-25BB-4872-A226-5327BC7330DB";
paths = (
{
closed = 1;
nodes = (
"230 0 LINE",
"230 59 LINE",
"239 59 LINE SMOOTH",
"319 59 OFFCURVE",
"376 73 OFFCURVE",
"376 189 CURVE SMOOTH",
"376 403 LINE SMOOTH",
"376 517 OFFCURVE",
"317 533 OFFCURVE",
"240 533 CURVE SMOOTH",
"230 533 LINE",
"230 591 LINE",
"214 591 LINE",
"214 533 LINE",
"203 533 LINE SMOOTH",
"126 533 OFFCURVE",
"67 519 OFFCURVE",
"67 403 CURVE SMOOTH",
"67 189 LINE SMOOTH",
"67 75 OFFCURVE",
"126 59 OFFCURVE",
"202 59 CURVE SMOOTH",
"214 59 LINE",
"214 0 LINE"
);
},
{
closed = 1;
nodes = (
"133 74 OFFCURVE",
"83 83 OFFCURVE",
"83 186 CURVE SMOOTH",
"83 406 LINE SMOOTH",
"83 510 OFFCURVE",
"138 518 OFFCURVE",
"203 518 CURVE SMOOTH",
"214 518 LINE",
"214 74 LINE",
"201 74 LINE SMOOTH"
);
},
{
closed = 1;
nodes = (
"230 518 LINE",
"240 518 LINE SMOOTH",
"303 518 OFFCURVE",
"360 509 OFFCURVE",
"360 406 CURVE SMOOTH",
"360 186 LINE SMOOTH",
"360 82 OFFCURVE",
"309 74 OFFCURVE",
"239 74 CURVE SMOOTH",
"230 74 LINE"
);
}
);
width = 443;
}
);
leftKerningGroup = O;
note = uni0424;
rightKerningGroup = O;
unicode = 0424;
},
{
color = 6;
glyphname = "Che-cy";
lastChange = "2022-05-31 12:05:51 +0000";
layers = (
{
background = {
paths = (
{
closed = 1;
nodes = (
"310 0 LINE",
"322 0 LINE",
"322 591 LINE",
"310 591 LINE",
"310 187 LINE",
"299 176 OFFCURVE",
"273 146 OFFCURVE",
"201 146 CURVE SMOOTH",
"97 146 OFFCURVE",
"94 211 OFFCURVE",
"94 270 CURVE SMOOTH",
"94 591 LINE",
"82 591 LINE",
"82 267 LINE SMOOTH",
"82 205 OFFCURVE",
"88 136 OFFCURVE",
"201 136 CURVE SMOOTH",
"264 136 OFFCURVE",
"301 159 OFFCURVE",
"310 174 CURVE"
);
}
);
};
layerId = "5E1A2ACF-25BB-4872-A226-5327BC7330DB";
paths = (
{
closed = 1;
nodes = (
"320 0 LINE",
"320 591 LINE",
"304 591 LINE",
"304 245 LINE",
"299 188 OFFCURVE",
"268 147 OFFCURVE",
"195 147 CURVE SMOOTH",
"95 147 OFFCURVE",
"92 212 OFFCURVE",
"92 271 CURVE SMOOTH",
"92 591 LINE",
"76 591 LINE",
"76 262 LINE SMOOTH",
"76 201 OFFCURVE",
"82 131 OFFCURVE",
"195 131 CURVE SMOOTH",
"258 131 OFFCURVE",
"289 158 OFFCURVE",
"304 189 CURVE",
"304 0 LINE"
);
}
);
width = 396;
}
);
note = uni0427;
rightKerningGroup = H;
rightMetricsKey = H;
unicode = 0427;
},
{
color = 6;
glyphname = "Tse-cy";
lastChange = "2022-05-31 12:05:51 +0000";
layers = (
{
layerId = "5E1A2ACF-25BB-4872-A226-5327BC7330DB";
paths = (
{
closed = 1;
nodes = (
"345 -74 LINE",
"345 16 LINE",
"325 16 LINE",
"325 591 LINE",
"309 591 LINE",
"309 16 LINE",
"92 16 LINE",
"92 591 LINE",
"76 591 LINE",
"76 0 LINE",
"329 0 LINE",
"329 -74 LINE"
);
}
);
width = 401;
}
);
leftKerningGroup = H;
leftMetricsKey = H;
note = uni0426;
rightKerningGroup = Tse;
unicode = 0426;
},
{
color = 6;
glyphname = "Sha-cy";
lastChange = "2022-05-31 12:05:51 +0000";
layers = (
{
layerId = "5E1A2ACF-25BB-4872-A226-5327BC7330DB";
paths = (
{
closed = 1;
nodes = (
"550 0 LINE",
"550 591 LINE",
"534 591 LINE",
"534 16 LINE",
"321 16 LINE",
"321 591 LINE",
"305 591 LINE",
"305 16 LINE",
"92 16 LINE",
"92 591 LINE",
"76 591 LINE",
"76 0 LINE"
);
}
);
width = 626;
}
);
leftKerningGroup = H;
leftMetricsKey = H;
note = uni0428;
rightKerningGroup = H;
rightMetricsKey = H;
unicode = 0428;
},
{
color = 6;
glyphname = "Shcha-cy";
lastChange = "2022-05-31 12:05:51 +0000";
layers = (
{
layerId = "5E1A2ACF-25BB-4872-A226-5327BC7330DB";
paths = (
{
closed = 1;
nodes = (
"578 -74 LINE",
"578 16 LINE",
"558 16 LINE",
"558 591 LINE",
"542 591 LINE",
"542 16 LINE",
"325 16 LINE",
"325 591 LINE",
"309 591 LINE",
"309 0 LINE",
"562 0 LINE",
"562 -74 LINE"
);
},
{
closed = 1;
nodes = (
"329 0 LINE",
"325 16 LINE",
"325 591 LINE",
"309 591 LINE",
"309 16 LINE",
"92 16 LINE",
"92 591 LINE",
"76 591 LINE",
"76 0 LINE"
);
}
);
width = 634;
}
);
leftKerningGroup = H;
leftMetricsKey = H;
note = uni0429;
rightKerningGroup = Tse;
rightMetricsKey = "Tse-cy";
unicode = 0429;
},
{
color = 6;
glyphname = "Dzhe-cy";
lastChange = "2022-05-31 12:05:51 +0000";
layers = (
{
layerId = "5E1A2ACF-25BB-4872-A226-5327BC7330DB";
paths = (
{
closed = 1;
nodes = (
"206 -99 LINE",
"206 0 LINE",
"321 0 LINE",
"321 591 LINE",
"307 591 LINE",
"307 16 LINE",
"90 16 LINE",
"90 591 LINE",
"76 591 LINE",
"76 0 LINE",
"191 0 LINE",
"191 -99 LINE"
);
}
);
width = 397;
}
);
leftKerningGroup = H;
leftMetricsKey = H;
note = uni040F;
rightKerningGroup = H;
rightMetricsKey = H;
unicode = 040F;
},
{
color = 6;
glyphname = "Softsign-cy";
lastChange = "2022-05-31 12:05:51 +0000";
layers = (
{
layerId = "5E1A2ACF-25BB-4872-A226-5327BC7330DB";
paths = (
{
closed = 1;
nodes = (
"200 0 LINE SMOOTH",
"313 0 OFFCURVE",
"319 69 OFFCURVE",
"319 131 CURVE SMOOTH",
"319 304 LINE SMOOTH",
"319 365 OFFCURVE",
"313 435 OFFCURVE",
"200 435 CURVE SMOOTH",
"91 435 LINE",
"91 588 LINE",
"76 588 LINE",
"76 0 LINE"
);
},
{
closed = 1;
nodes = (
"91 420 LINE",
"196 420 LINE SMOOTH",
"299 420 OFFCURVE",
"304 360 OFFCURVE",
"304 301 CURVE SMOOTH",
"304 134 LINE SMOOTH",
"304 75 OFFCURVE",
"299 15 OFFCURVE",
"196 15 CURVE SMOOTH",
"91 15 LINE"
);
}
);
width = 378;
}
);
leftKerningGroup = H;
leftMetricsKey = H;
note = uni042C;
rightKerningGroup = Softsign;
unicode = 042C;
},
{
color = 6;
glyphname = "Hardsign-cy";
lastChange = "2022-05-31 12:05:51 +0000";
layers = (
{
layerId = "5E1A2ACF-25BB-4872-A226-5327BC7330DB";
paths = (
{
closed = 1;
nodes = (
"202 0 LINE SMOOTH",
"315 0 OFFCURVE",
"321 69 OFFCURVE",
"321 131 CURVE SMOOTH",
"321 304 LINE SMOOTH",
"321 365 OFFCURVE",
"315 435 OFFCURVE",
"202 435 CURVE SMOOTH",
"93 435 LINE",
"93 591 LINE",
"14 591 LINE",
"14 575 LINE",
"78 575 LINE",
"78 0 LINE"
);
},
{
closed = 1;
nodes = (
"93 420 LINE",
"198 420 LINE SMOOTH",
"301 420 OFFCURVE",
"306 360 OFFCURVE",
"306 301 CURVE SMOOTH",
"306 134 LINE SMOOTH",
"306 75 OFFCURVE",
"301 15 OFFCURVE",
"198 15 CURVE SMOOTH",
"93 15 LINE"
);
}
);
width = 380;
}
);
note = uni042A;
rightKerningGroup = Softsign;
rightMetricsKey = "Softsign-cy";
unicode = 042A;
},
{
color = 6;
glyphname = "Yeru-cy";
lastChange = "2022-05-31 12:05:51 +0000";
layers = (
{
layerId = "5E1A2ACF-25BB-4872-A226-5327BC7330DB";
paths = (
{
closed = 1;
nodes = (
"200 0 LINE SMOOTH",
"313 0 OFFCURVE",
"319 69 OFFCURVE",
"319 131 CURVE SMOOTH",
"319 304 LINE SMOOTH",
"319 365 OFFCURVE",
"313 435 OFFCURVE",
"200 435 CURVE SMOOTH",
"91 435 LINE",
"91 591 LINE",
"76 591 LINE",
"76 0 LINE"
);
},
{
closed = 1;
nodes = (
"91 420 LINE",
"196 420 LINE SMOOTH",
"299 420 OFFCURVE",
"304 360 OFFCURVE",
"304 301 CURVE SMOOTH",
"304 134 LINE SMOOTH",
"304 75 OFFCURVE",
"299 15 OFFCURVE",
"196 15 CURVE SMOOTH",
"91 15 LINE"
);
},
{
closed = 1;
nodes = (
"430 0 LINE",
"430 591 LINE",
"414 591 LINE",
"414 0 LINE"
);
}
);
width = 506;
}
);
leftKerningGroup = H;
leftMetricsKey = H;
note = uni042B;
rightKerningGroup = H;
rightMetricsKey = H;
unicode = 042B;
},
{
color = 6;
glyphname = "Lje-cy";
lastChange = "2022-05-31 12:05:51 +0000";
layers = (
{
layerId = "5E1A2ACF-25BB-4872-A226-5327BC7330DB";
paths = (
{
closed = 1;
nodes = (
"110 0 OFFCURVE",
"116 77 OFFCURVE",
"116 92 CURVE",
"151 575 LINE",
"323 575 LINE",
"323 0 LINE",
"447 0 LINE SMOOTH",
"560 0 OFFCURVE",
"566 69 OFFCURVE",
"566 131 CURVE SMOOTH",
"566 304 LINE SMOOTH",
"566 365 OFFCURVE",
"560 435 OFFCURVE",
"447 435 CURVE SMOOTH",
"339 435 LINE",
"339 591 LINE",
"135 591 LINE",
"100 92 LINE SMOOTH",
"96 41 OFFCURVE",
"82 16 OFFCURVE",
"55 16 CURVE",
"55 0 LINE"
);
},
{
closed = 1;
nodes = (
"339 420 LINE",
"443 420 LINE SMOOTH",
"546 420 OFFCURVE",
"551 360 OFFCURVE",
"551 301 CURVE SMOOTH",
"551 134 LINE SMOOTH",
"551 75 OFFCURVE",
"546 15 OFFCURVE",
"443 15 CURVE SMOOTH",
"339 15 LINE"
);
}
);
width = 625;
}
);
leftKerningGroup = El;
leftMetricsKey = "El-cy";
note = uni0409;
rightKerningGroup = Softsign;
rightMetricsKey = "Softsign-cy";
unicode = 0409;
},
{
color = 3;
glyphname = "Nje-cy";
lastChange = "2022-05-31 12:05:51 +0000";
layers = (
{
layerId = "5E1A2ACF-25BB-4872-A226-5327BC7330DB";
paths = (
{
closed = 1;
nodes = (
"92 0 LINE",
"92 302 LINE",
"321 302 LINE",
"321 0 LINE",
"337 0 LINE",
"337 591 LINE",
"321 591 LINE",
"321 318 LINE",
"92 318 LINE",
"92 591 LINE",
"76 591 LINE",
"76 0 LINE"
);
},
{
closed = 1;
nodes = (
"337 420 LINE",
"442 420 LINE SMOOTH",
"545 420 OFFCURVE",
"550 360 OFFCURVE",
"550 301 CURVE SMOOTH",
"550 134 LINE SMOOTH",
"550 75 OFFCURVE",
"545 15 OFFCURVE",
"442 15 CURVE SMOOTH",
"337 15 LINE"
);
},
{
closed = 1;
nodes = (
"446 0 LINE SMOOTH",
"559 0 OFFCURVE",
"565 69 OFFCURVE",
"565 131 CURVE SMOOTH",
"565 304 LINE SMOOTH",
"565 365 OFFCURVE",
"559 435 OFFCURVE",
"446 435 CURVE SMOOTH",
"337 435 LINE",
"337 588 LINE",
"322 588 LINE",
"322 0 LINE"
);
}
);
width = 624;
}
);
leftKerningGroup = H;
leftMetricsKey = H;
note = uni040A;
rightKerningGroup = Softsign;
rightMetricsKey = "Softsign-cy";
unicode = 040A;
},
{
color = 6;
glyphname = "E-cy";
lastChange = "2022-05-31 12:05:51 +0000";
layers = (
{
layerId = "5E1A2ACF-25BB-4872-A226-5327BC7330DB";
paths = (
{
closed = 1;
nodes = (
"286 -12 OFFCURVE",
"344 2 OFFCURVE",
"344 118 CURVE SMOOTH",
"344 189 LINE",
"328 189 LINE",
"328 116 LINE SMOOTH",
"328 12 OFFCURVE",
"273 2 OFFCURVE",
"207 2 CURVE SMOOTH",
"138 2 OFFCURVE",
"83 12 OFFCURVE",
"83 116 CURVE SMOOTH",
"83 292 LINE",
"255 292 LINE",
"255 308 LINE",
"83 308 LINE",
"83 467 LINE SMOOTH",
"83 572 OFFCURVE",
"132 584 OFFCURVE",
"207 584 CURVE SMOOTH",
"278 584 OFFCURVE",
"328 574 OFFCURVE",
"328 473 CURVE SMOOTH",
"328 381 LINE",
"344 381 LINE",
"344 469 LINE SMOOTH",
"344 583 OFFCURVE",
"285 599 OFFCURVE",
"208 599 CURVE SMOOTH",
"127 599 OFFCURVE",
"67 585 OFFCURVE",
"67 469 CURVE SMOOTH",
"67 118 LINE SMOOTH",
"67 4 OFFCURVE",
"126 -12 OFFCURVE",
"206 -12 CURVE SMOOTH"
);
}
);
width = 408;
}
);
leftKerningGroup = O;
leftMetricsKey = O;
note = uni0404;
rightKerningGroup = C;
rightMetricsKey = C;
unicode = 0404;
},
{
color = 6;
glyphname = "Ereversed-cy";
lastChange = "2022-05-31 12:05:51 +0000";
layers = (
{
layerId = "5E1A2ACF-25BB-4872-A226-5327BC7330DB";
paths = (
{
closed = 1;
nodes = (
"282 -12 OFFCURVE",
"341 4 OFFCURVE",
"341 118 CURVE SMOOTH",
"341 469 LINE SMOOTH",
"341 585 OFFCURVE",
"281 599 OFFCURVE",
"200 599 CURVE SMOOTH",
"123 599 OFFCURVE",
"64 583 OFFCURVE",
"64 469 CURVE SMOOTH",
"64 381 LINE",
"80 381 LINE",
"80 473 LINE SMOOTH",
"80 574 OFFCURVE",
"130 584 OFFCURVE",
"201 584 CURVE SMOOTH",
"276 584 OFFCURVE",
"325 572 OFFCURVE",
"325 467 CURVE SMOOTH",
"325 308 LINE",
"153 308 LINE",
"153 292 LINE",
"325 292 LINE",
"325 116 LINE SMOOTH",
"325 12 OFFCURVE",
"270 2 OFFCURVE",
"201 2 CURVE SMOOTH",
"135 2 OFFCURVE",
"80 12 OFFCURVE",
"80 116 CURVE SMOOTH",
"80 189 LINE",
"64 189 LINE",
"64 118 LINE SMOOTH",
"64 2 OFFCURVE",
"122 -12 OFFCURVE",
"202 -12 CURVE SMOOTH"
);
}
);
width = 408;
}
);
leftMetricsKey = "=|C";
note = uni042D;
rightKerningGroup = O;
rightMetricsKey = O;
unicode = 042D;
},
{
color = 6;
glyphname = "Tshe-cy";
lastChange = "2022-05-31 12:05:51 +0000";
layers = (
{
layerId = "5E1A2ACF-25BB-4872-A226-5327BC7330DB";
paths = (
{
closed = 1;
nodes = (
"138 0 LINE",
"138 323 LINE",
"143 380 OFFCURVE",
"174 421 OFFCURVE",
"247 421 CURVE SMOOTH",
"347 421 OFFCURVE",
"350 356 OFFCURVE",
"350 297 CURVE SMOOTH",
"350 0 LINE",
"366 0 LINE",
"366 306 LINE SMOOTH",
"366 367 OFFCURVE",
"360 437 OFFCURVE",
"247 437 CURVE SMOOTH",
"184 437 OFFCURVE",
"153 410 OFFCURVE",
"138 379 CURVE",
"138 575 LINE",
"250 575 LINE",
"250 591 LINE",
"11 591 LINE",
"11 575 LINE",
"122 575 LINE",
"122 0 LINE"
);
}
);
width = 433;
}
);
leftKerningGroup = T;
leftMetricsKey = T;
note = uni040B;
rightKerningGroup = n;
unicode = 040B;
},
{
color = 3;
glyphname = "Iu-cy";
lastChange = "2022-05-31 12:05:51 +0000";
layers = (
{
layerId = "5E1A2ACF-25BB-4872-A226-5327BC7330DB";
paths = (
{
closed = 1;
nodes = (
"540 -12 OFFCURVE",
"602 2 OFFCURVE",
"602 118 CURVE SMOOTH",
"602 469 LINE SMOOTH",
"602 583 OFFCURVE",
"539 599 OFFCURVE",
"462 599 CURVE SMOOTH",
"385 599 OFFCURVE",
"321 585 OFFCURVE",
"321 469 CURVE SMOOTH",
"321 118 LINE SMOOTH",
"321 4 OFFCURVE",
"384 -12 OFFCURVE",
"460 -12 CURVE SMOOTH"
);
},
{
closed = 1;
nodes = (
"92 0 LINE",
"92 302 LINE",
"330 302 LINE",
"330 318 LINE",
"92 318 LINE",
"92 591 LINE",
"76 591 LINE",
"76 0 LINE"
);
},
{
closed = 1;
nodes = (
"392 4 OFFCURVE",
"337 17 OFFCURVE",
"337 121 CURVE SMOOTH",
"337 466 LINE SMOOTH",
"337 570 OFFCURVE",
"392 583 OFFCURVE",
"461 583 CURVE SMOOTH",
"529 583 OFFCURVE",
"586 570 OFFCURVE",
"586 466 CURVE SMOOTH",
"586 121 LINE SMOOTH",
"586 17 OFFCURVE",
"531 4 OFFCURVE",
"461 4 CURVE SMOOTH"
);
}
);
width = 669;
}
);
leftKerningGroup = H;
leftMetricsKey = H;
note = uni042E;
rightKerningGroup = O;
rightMetricsKey = O;
unicode = 042E;
},
{
color = 6;
glyphname = "Ia-cy";
lastChange = "2022-05-31 14:24:13 +0000";
layers = (
{
anchors = (
{
name = bottom;
position = "{201, 0}";
},
{
name = top;
position = "{206, 591}";
}
);
layerId = "5E1A2ACF-25BB-4872-A226-5327BC7330DB";
paths = (
{
closed = 1;
nodes = (
"334 591 LINE",
"168 591 LINE SMOOTH",
"111 591 OFFCURVE",
"62 566 OFFCURVE",
"62 494 CURVE SMOOTH",
"62 411 LINE SMOOTH",
"62 328 OFFCURVE",
"113 297 OFFCURVE",
"162 291 CURVE",
"141 288 OFFCURVE",
"117 256 OFFCURVE",
"107 224 CURVE SMOOTH",
"38 0 LINE",
"55 0 LINE",
"116 200 LINE SMOOTH",
"132 252 OFFCURVE",
"158 287 OFFCURVE",
"207 287 CURVE SMOOTH",
"318 287 LINE",
"318 0 LINE",
"334 0 LINE"
);
},
{
closed = 1;
nodes = (
"197 303 LINE SMOOTH",
"129 303 OFFCURVE",
"78 331 OFFCURVE",
"78 409 CURVE SMOOTH",
"78 491 LINE SMOOTH",
"78 548 OFFCURVE",
"119 575 OFFCURVE",
"164 575 CURVE SMOOTH",
"318 575 LINE",
"318 303 LINE"
);
}
);
width = 410;
}
);
note = uni042F;
rightKerningGroup = H;
unicode = 042F;
},
{
color = 6;
glyphname = "Dje-cy";
lastChange = "2022-05-31 12:05:51 +0000";
layers = (
{
layerId = "5E1A2ACF-25BB-4872-A226-5327BC7330DB";
paths = (
{
closed = 1;
nodes = (
"138 0 LINE",
"138 323 LINE",
"143 380 OFFCURVE",
"174 421 OFFCURVE",
"247 421 CURVE SMOOTH",
"347 421 OFFCURVE",
"350 356 OFFCURVE",
"350 297 CURVE SMOOTH",
"350 142 LINE SMOOTH",
"350 55 OFFCURVE",
"331 16 OFFCURVE",
"230 16 CURVE",
"230 0 LINE",
"348 0 OFFCURVE",
"366 45 OFFCURVE",
"366 146 CURVE SMOOTH",
"366 306 LINE SMOOTH",
"366 367 OFFCURVE",
"360 437 OFFCURVE",
"247 437 CURVE SMOOTH",
"184 437 OFFCURVE",
"153 410 OFFCURVE",
"138 379 CURVE",
"138 575 LINE",
"250 575 LINE",
"250 591 LINE",
"11 591 LINE",
"11 575 LINE",
"122 575 LINE",
"122 0 LINE"
);
}
);
width = 433;
}
);
leftKerningGroup = T;
leftMetricsKey = T;
note = uni0402;
rightKerningGroup = Softsign;
unicode = 0402;
},
{
glyphname = "Yat-cy";
lastChange = "2022-06-09 13:41:19 +0000";
layers = (
{
layerId = "5E1A2ACF-25BB-4872-A226-5327BC7330DB";
paths = (
{
closed = 1;
nodes = (
"209 0 LINE SMOOTH",
"322 0 OFFCURVE",
"328 69 OFFCURVE",
"328 131 CURVE SMOOTH",
"328 304 LINE SMOOTH",
"328 365 OFFCURVE",
"322 435 OFFCURVE",
"209 435 CURVE SMOOTH",
"100 435 LINE",
"100 588 LINE",
"85 588 LINE",
"85 0 LINE"
);
},
{
closed = 1;
nodes = (
"100 0 LINE",
"100 591 LINE",
"84 591 LINE",
"84 0 LINE"
);
},
{
closed = 1;
nodes = (
"100 420 LINE",
"205 420 LINE SMOOTH",
"308 420 OFFCURVE",
"313 360 OFFCURVE",
"313 301 CURVE SMOOTH",
"313 134 LINE SMOOTH",
"313 75 OFFCURVE",
"308 15 OFFCURVE",
"205 15 CURVE SMOOTH",
"100 15 LINE"
);
},
{
closed = 1;
nodes = (
"247.504 519.875 LINE",
"247.504 535.735 LINE",
"-3.019 535.735 LINE",
"-3.019 519.875 LINE"
);
}
);
width = 387;
}
);
rightKerningGroup = Softsign;
rightMetricsKey = "Softsign-cy";
unicode = 0462;
},
{
color = 4;
glyphname = "Yusbig-cy";
lastChange = "2022-06-09 13:41:19 +0000";
layers = (
{
layerId = "5E1A2ACF-25BB-4872-A226-5327BC7330DB";
paths = (
{
closed = 1;
nodes = (
"58 0 LINE",
"122 223 LINE SMOOTH",
"134 265 OFFCURVE",
"151 309 OFFCURVE",
"218 309 CURVE SMOOTH",
"318 309 LINE",
"318 0 LINE",
"334 0 LINE",
"334 309 LINE",
"435 309 LINE SMOOTH",
"502 309 OFFCURVE",
"519 265 OFFCURVE",
"531 223 CURVE SMOOTH",
"595 0 LINE",
"612 0 LINE",
"547 226 LINE SMOOTH",
"531 280 OFFCURVE",
"512 325 OFFCURVE",
"431 325 CURVE SMOOTH",
"341 325 LINE",
"634 576 LINE",
"634 591 LINE",
"27 591 LINE",
"27 576 LINE",
"312 325 LINE",
"212 325 LINE SMOOTH",
"141 325 OFFCURVE",
"120 274 OFFCURVE",
"106 226 CURVE SMOOTH",
"41 0 LINE"
);
},
{
closed = 1;
nodes = (
"52 575 LINE",
"608 575 LINE",
"327 332 LINE"
);
}
);
width = 661;
}
);
unicode = 046A;
},
{
color = 6;
glyphname = "be-cy";
lastChange = "2022-05-31 12:05:51 +0000";
layers = (
{
layerId = "5E1A2ACF-25BB-4872-A226-5327BC7330DB";
paths = (
{
closed = 1;
nodes = (
"300 -10 OFFCURVE",
"304 62 OFFCURVE",
"304 124 CURVE SMOOTH",
"304 316 LINE SMOOTH",
"304 377 OFFCURVE",
"298 450 OFFCURVE",
"182 450 CURVE SMOOTH",
"122 450 OFFCURVE",
"86 432 OFFCURVE",
"70 394 CURVE",
"76 393 LINE",
"76 493 LINE SMOOTH",
"76 576 OFFCURVE",
"116 593 OFFCURVE",
"176 593 CURVE SMOOTH",
"202 593 LINE SMOOTH",
"243 593 OFFCURVE",
"264 600 OFFCURVE",
"264 616 CURVE SMOOTH",
"264 626 LINE",
"258 626 LINE",
"253 613 OFFCURVE",
"234 609 OFFCURVE",
"210 609 CURVE SMOOTH",
"173 609 LINE SMOOTH",
"110 609 OFFCURVE",
"59 592 OFFCURVE",
"59 493 CURVE SMOOTH",
"59 124 LINE SMOOTH",
"59 62 OFFCURVE",
"67 -10 OFFCURVE",
"182 -10 CURVE SMOOTH"
);
},
{
closed = 1;
nodes = (
"82 6 OFFCURVE",
"75 68 OFFCURVE",
"75 127 CURVE SMOOTH",
"75 331 LINE SMOOTH",
"75 384 OFFCURVE",
"91 434 OFFCURVE",
"182 434 CURVE SMOOTH",
"282 434 OFFCURVE",
"288 372 OFFCURVE",
"288 313 CURVE SMOOTH",
"288 127 LINE SMOOTH",
"288 68 OFFCURVE",
"282 6 OFFCURVE",
"182 6 CURVE SMOOTH"
);
}
);
width = 363;
}
);
leftKerningGroup = be;
note = uni0431;
rightKerningGroup = o;
rightMetricsKey = o;
unicode = 0431;
},
{
color = 6;
glyphname = "ve-cy";
lastChange = "2022-05-31 12:05:51 +0000";
layers = (
{
layerId = "5E1A2ACF-25BB-4872-A226-5327BC7330DB";
paths = (
{
closed = 1;
nodes = (
"222 0 LINE SMOOTH",
"295 0 OFFCURVE",
"345 16 OFFCURVE",
"345 120 CURVE SMOOTH",
"345 163 LINE SMOOTH",
"345 223 OFFCURVE",
"307 266 OFFCURVE",
"259 266 CURVE",
"306 275 OFFCURVE",
"340 317 OFFCURVE",
"340 381 CURVE SMOOTH",
"340 398 LINE SMOOTH",
"340 470 OFFCURVE",
"292 495 OFFCURVE",
"231 495 CURVE SMOOTH",
"68 495 LINE",
"68 0 LINE"
);
},
{
closed = 1;
nodes = (
"84 257 LINE",
"215 257 LINE SMOOTH",
"279 257 OFFCURVE",
"329 238 OFFCURVE",
"329 150 CURVE SMOOTH",
"329 125 LINE SMOOTH",
"329 31 OFFCURVE",
"289 16 OFFCURVE",
"219 16 CURVE SMOOTH",
"84 16 LINE"
);
},
{
closed = 1;
nodes = (
"84 479 LINE",
"231 479 LINE SMOOTH",
"284 479 OFFCURVE",
"324 452 OFFCURVE",
"324 400 CURVE SMOOTH",
"324 380 LINE SMOOTH",
"324 311 OFFCURVE",
"285 273 OFFCURVE",
"210 273 CURVE SMOOTH",
"84 273 LINE"
);
}
);
width = 398;
}
);
leftKerningGroup = n;
note = uni0432;
rightKerningGroup = uni0432;
unicode = 0432;
},
{
color = 3;
glyphname = "ge-cy";
lastChange = "2022-05-31 12:05:51 +0000";
layers = (
{
anchors = (
{
name = bottomright;
position = "{271, 0}";
},
{
name = top;
position = "{175, 495}";
}
);
layerId = "5E1A2ACF-25BB-4872-A226-5327BC7330DB";
paths = (
{
closed = 1;
nodes = (
"84 0 LINE",
"84 479 LINE",
"281 479 LINE",
"281 495 LINE",
"68 495 LINE",
"68 0 LINE"
);
}
);
width = 291;
}
);
leftKerningGroup = n;
leftMetricsKey = n;
note = uni0433;
rightKerningGroup = ge;
unicode = 0433;
},
{
color = 6;
glyphname = "de-cy";
lastChange = "2022-05-31 12:05:51 +0000";
layers = (
{
layerId = "5E1A2ACF-25BB-4872-A226-5327BC7330DB";
paths = (
{
closed = 1;
nodes = (
"31 -99 LINE",
"31 -5 LINE",
"405 -5 LINE",
"405 -99 LINE",
"420 -99 LINE",
"420 11 LINE",
"351 11 LINE",
"351 495 LINE",
"147 495 LINE",
"112 92 LINE SMOOTH",
"107 40 OFFCURVE",
"94 13 OFFCURVE",
"71 11 CURVE",
"16 11 LINE",
"16 -99 LINE"
);
},
{
closed = 1;
nodes = (
"124 32 OFFCURVE",
"128 80 OFFCURVE",
"128 92 CURVE",
"163 479 LINE",
"335 479 LINE",
"335 11 LINE",
"100 11 LINE"
);
}
);
width = 436;
}
);
leftKerningGroup = de;
note = uni0434;
rightKerningGroup = de;
unicode = 0434;
},
{
color = 6;
glyphname = "zhe-cy";
lastChange = "2022-05-31 12:05:51 +0000";
layers = (
{
layerId = "5E1A2ACF-25BB-4872-A226-5327BC7330DB";
paths = (
{
closed = 1;
nodes = (
"33 0 LINE",
"183 254 LINE",
"216 254 LINE",
"216 0 LINE",
"231 0 LINE",
"231 254 LINE",
"265 254 LINE",
"414 0 LINE",
"433 0 LINE",
"278 261 LINE",
"425 495 LINE",
"407 495 LINE",
"264 270 LINE",
"231 270 LINE",
"231 495 LINE",
"216 495 LINE",
"216 270 LINE",
"183 270 LINE",
"40 495 LINE",
"22 495 LINE",
"169 261 LINE",
"14 0 LINE"
);
}
);
width = 447;
}
);
leftKerningGroup = zhe;
note = uni0436;
rightKerningGroup = k;
unicode = 0436;
},
{
color = 6;
glyphname = "ze-cy";
lastChange = "2022-05-31 12:05:51 +0000";
layers = (
{
layerId = "5E1A2ACF-25BB-4872-A226-5327BC7330DB";
paths = (
{
closed = 1;
nodes = (
"295 -7 OFFCURVE",
"347 50 OFFCURVE",
"347 132 CURVE SMOOTH",
"347 186 OFFCURVE",
"316 253 OFFCURVE",
"251 264 CURVE",
"283 270 OFFCURVE",
"336 306 OFFCURVE",
"336 380 CURVE SMOOTH",
"336 463 OFFCURVE",
"295 499 OFFCURVE",
"206 499 CURVE SMOOTH",
"117 499 OFFCURVE",
"71 447 OFFCURVE",
"71 364 CURVE SMOOTH",
"71 333 LINE",
"87 333 LINE",
"87 363 LINE SMOOTH",
"87 429 OFFCURVE",
"122 483 OFFCURVE",
"206 483 CURVE SMOOTH",
"290 483 OFFCURVE",
"319 442 OFFCURVE",
"319 381 CURVE SMOOTH",
"319 306 OFFCURVE",
"265 271 OFFCURVE",
"206 271 CURVE SMOOTH",
"142 271 LINE",
"142 255 LINE",
"206 255 LINE SMOOTH",
"283 255 OFFCURVE",
"331 201 OFFCURVE",
"331 132 CURVE SMOOTH",
"331 71 OFFCURVE",
"296 8 OFFCURVE",
"206 8 CURVE SMOOTH",
"139 8 OFFCURVE",
"81 48 OFFCURVE",
"81 137 CURVE SMOOTH",
"81 158 LINE",
"65 158 LINE",
"65 137 LINE SMOOTH",
"65 44 OFFCURVE",
"116 -7 OFFCURVE",
"206 -7 CURVE SMOOTH"
);
}
);
width = 396;
}
);
leftKerningGroup = ze;
note = uni0437;
rightKerningGroup = ze;
unicode = 0437;
},
{
color = 6;
glyphname = "ii-cy";
lastChange = "2022-05-31 12:05:51 +0000";
layers = (
{
anchors = (
{
name = bottomright;
position = "{349, 0}";
},
{
name = top;
position = "{195, 495}";
}
);
layerId = "5E1A2ACF-25BB-4872-A226-5327BC7330DB";
paths = (
{
closed = 1;
nodes = (
"91 0 LINE",
"294 473 LINE",
"294 0 LINE",
"310 0 LINE",
"310 495 LINE",
"286 495 LINE",
"84 24 LINE",
"84 495 LINE",
"68 495 LINE",
"68 0 LINE"
);
}
);
width = 378;
}
);
leftKerningGroup = n;
leftMetricsKey = n;
note = uni0438;
rightKerningGroup = u;
rightMetricsKey = "=|n";
unicode = 0438;
},
{
color = 3;
glyphname = "ka-cy";
lastChange = "2022-05-31 12:05:51 +0000";
layers = (
{
anchors = (
{
name = bottomright;
position = "{298, 0}";
},
{
name = top;
position = "{189, 495}";
}
);
layerId = "5E1A2ACF-25BB-4872-A226-5327BC7330DB";
paths = (
{
closed = 1;
nodes = (
"84 0 LINE",
"84 190 LINE",
"87 218 OFFCURVE",
"108 261 OFFCURVE",
"132 304 CURVE",
"281 0 LINE",
"299 0 LINE",
"143 318 LINE",
"177 375 OFFCURVE",
"237 447 OFFCURVE",
"300 468 CURVE",
"300 484 LINE",
"240 470 OFFCURVE",
"144 384 OFFCURVE",
"84 241 CURVE",
"84 496 LINE",
"68 496 LINE",
"68 0 LINE"
);
}
);
width = 318;
}
);
leftKerningGroup = n;
leftMetricsKey = n;
note = uni043A;
rightKerningGroup = k;
unicode = 043A;
},
{
color = 6;
glyphname = "el-cy";
lastChange = "2022-05-31 12:05:51 +0000";
layers = (
{
layerId = "5E1A2ACF-25BB-4872-A226-5327BC7330DB";
paths = (
{
closed = 1;
nodes = (
"77 0 OFFCURVE",
"81 70 OFFCURVE",
"83 92 CURVE SMOOTH",
"118 479 LINE",
"290 479 LINE",
"290 1 LINE",
"306 1 LINE",
"306 495 LINE",
"102 495 LINE",
"67 94 LINE SMOOTH",
"62 38 OFFCURVE",
"49 16 OFFCURVE",
"22 16 CURVE",
"22 0 LINE"
);
}
);
width = 374;
}
);
leftKerningGroup = el;
note = uni043B;
rightKerningGroup = u;
rightMetricsKey = "=|n";
unicode = 043B;
},
{
color = 6;
glyphname = "em-cy";
lastChange = "2022-05-31 12:05:51 +0000";
layers = (
{
layerId = "5E1A2ACF-25BB-4872-A226-5327BC7330DB";
paths = (
{
closed = 1;
nodes = (
"84 0 LINE",
"84 447 LINE",
"233 0 LINE",
"250 0 LINE",
"399 447 LINE",
"399 0 LINE",
"415 0 LINE",
"415 495 LINE",
"398 495 LINE",
"242 24 LINE",
"85 495 LINE",
"68 495 LINE",
"68 0 LINE"
);
}
);
width = 483;
}
);
leftKerningGroup = n;
leftMetricsKey = n;
note = uni043C;
rightKerningGroup = u;
rightMetricsKey = "=|n";
unicode = 043C;
},
{
color = 6;
glyphname = "en-cy";
lastChange = "2022-05-31 12:05:51 +0000";
layers = (
{
layerId = "5E1A2ACF-25BB-4872-A226-5327BC7330DB";
paths = (
{
closed = 1;
nodes = (
"84 0 LINE",
"84 255 LINE",
"298 255 LINE",
"298 0 LINE",
"314 0 LINE",
"314 495 LINE",
"298 495 LINE",
"298 271 LINE",
"84 271 LINE",
"84 495 LINE",
"68 495 LINE",
"68 0 LINE"
);
}
);
width = 382;
}
);
leftKerningGroup = n;
leftMetricsKey = n;
note = uni043D;
rightKerningGroup = u;
rightMetricsKey = "=|n";
unicode = 043D;
},
{
color = 6;
glyphname = "pe-cy";
lastChange = "2022-05-31 12:05:51 +0000";
layers = (
{
layerId = "5E1A2ACF-25BB-4872-A226-5327BC7330DB";
paths = (
{
closed = 1;
nodes = (
"84 0 LINE",
"84 479 LINE",
"293 479 LINE",
"293 0 LINE",
"309 0 LINE",
"309 495 LINE",
"68 495 LINE",
"68 0 LINE"
);
}
);
width = 377;
}
);
leftKerningGroup = n;
leftMetricsKey = n;
note = uni043F;
rightKerningGroup = u;
rightMetricsKey = "=|n";
unicode = 043F;
},
{
color = 6;
glyphname = "te-cy";
lastChange = "2022-05-31 12:05:51 +0000";
layers = (
{
layerId = "5E1A2ACF-25BB-4872-A226-5327BC7330DB";
paths = (
{
closed = 1;
nodes = (
"142 0 LINE",
"142 479 LINE",
"254 479 LINE",
"254 495 LINE",
"15 495 LINE",
"15 479 LINE",
"126 479 LINE",
"126 0 LINE"
);
}
);
width = 269;
}
);
leftKerningGroup = te;
note = uni0442;
rightKerningGroup = te;
unicode = 0442;
},
{
color = 6;
glyphname = "u-cy";
lastChange = "2022-05-31 12:05:51 +0000";
layers = (
{
anchors = (
{
name = bottom;
position = "{202, 0}";
},
{
name = top;
position = "{147, 495}";
}
);
layerId = "5E1A2ACF-25BB-4872-A226-5327BC7330DB";
paths = (
{
closed = 1;
nodes = (
"112 -115 OFFCURVE",
"140 -70 OFFCURVE",
"157 -1 CURVE SMOOTH",
"278 495 LINE",
"262 495 LINE",
"148 27 LINE",
"35 495 LINE",
"19 495 LINE",
"140 -4 LINE",
"127 -82 OFFCURVE",
"83 -101 OFFCURVE",
"52 -101 CURVE SMOOTH",
"29 -101 OFFCURVE",
"6 -96 OFFCURVE",
"3 -95 CURVE",
"3 -109 LINE",
"6 -110 OFFCURVE",
"32 -115 OFFCURVE",
"52 -115 CURVE SMOOTH"
);
}
);
width = 297;
}
);
leftKerningGroup = y;
widthMetricsKey = v;
note = uni0443;
rightKerningGroup = v;
rightMetricsKey = y;
unicode = 0443;
},
{
color = 6;
glyphname = "ushort-cy";
lastChange = "2022-05-31 12:05:51 +0000";
layers = (
{
anchors = (
{
name = bottom;
position = "{202, 0}";
},
{
name = top;
position = "{147, 591}";
}
);
layerId = "5E1A2ACF-25BB-4872-A226-5327BC7330DB";
paths = (
{
closed = 1;
nodes = (
"112 -115 OFFCURVE",
"140 -70 OFFCURVE",
"157 -1 CURVE SMOOTH",
"278 495 LINE",
"262 495 LINE",
"148 27 LINE",
"35 495 LINE",
"19 495 LINE",
"140 -4 LINE",
"127 -82 OFFCURVE",
"83 -101 OFFCURVE",
"52 -101 CURVE SMOOTH",
"29 -101 OFFCURVE",
"6 -96 OFFCURVE",
"3 -95 CURVE",
"3 -109 LINE",
"6 -110 OFFCURVE",
"32 -115 OFFCURVE",
"52 -115 CURVE SMOOTH"
);
},
{
closed = 1;
nodes = (
"204 546 OFFCURVE",
"235 585 OFFCURVE",
"235 623 CURVE",
"219 623 LINE",
"219 582 OFFCURVE",
"181 562 OFFCURVE",
"146 562 CURVE SMOOTH",
"112 562 OFFCURVE",
"85 579 OFFCURVE",
"84 623 CURVE",
"68 623 LINE",
"68 586 OFFCURVE",
"87 546 OFFCURVE",
"145 546 CURVE SMOOTH"
);
}
);
width = 297;
}
);
leftKerningGroup = y;
widthMetricsKey = v;
note = uni045E;
rightKerningGroup = v;
rightMetricsKey = y;
unicode = 045E;
},
{
color = 6;
glyphname = "ef-cy";
lastChange = "2022-05-31 12:05:51 +0000";
layers = (
{
layerId = "5E1A2ACF-25BB-4872-A226-5327BC7330DB";
paths = (
{
closed = 1;
nodes = (
"305 -116 LINE",
"305 37 LINE",
"320 11 OFFCURVE",
"350 -7 OFFCURVE",
"409 -7 CURVE SMOOTH",
"522 -7 OFFCURVE",
"533 62 OFFCURVE",
"533 124 CURVE SMOOTH",
"533 315 LINE SMOOTH",
"533 376 OFFCURVE",
"522 446 OFFCURVE",
"413 446 CURVE SMOOTH",
"352 446 OFFCURVE",
"321 427 OFFCURVE",
"305 401 CURVE",
"305 591 LINE",
"289 591 LINE",
"289 398 LINE",
"273 426 OFFCURVE",
"243 446 OFFCURVE",
"185 446 CURVE SMOOTH",
"66 446 OFFCURVE",
"61 376 OFFCURVE",
"61 315 CURVE SMOOTH",
"61 124 LINE SMOOTH",
"61 62 OFFCURVE",
"66 -7 OFFCURVE",
"181 -7 CURVE SMOOTH",
"242 -7 OFFCURVE",
"273 13 OFFCURVE",
"289 41 CURVE",
"289 -116 LINE"
);
},
{
closed = 1;
nodes = (
"77 9 OFFCURVE",
"77 74 OFFCURVE",
"77 127 CURVE SMOOTH",
"77 312 LINE SMOOTH",
"77 365 OFFCURVE",
"77 430 OFFCURVE",
"185 430 CURVE SMOOTH",
"284 430 OFFCURVE",
"289 365 OFFCURVE",
"289 312 CURVE SMOOTH",
"289 127 LINE SMOOTH",
"289 74 OFFCURVE",
"284 9 OFFCURVE",
"181 9 CURVE SMOOTH"
);
},
{
closed = 1;
nodes = (
"305 9 OFFCURVE",
"305 73 OFFCURVE",
"305 126 CURVE SMOOTH",
"305 313 LINE SMOOTH",
"305 366 OFFCURVE",
"305 430 OFFCURVE",
"413 430 CURVE SMOOTH",
"512 430 OFFCURVE",
"517 365 OFFCURVE",
"517 312 CURVE SMOOTH",
"517 127 LINE SMOOTH",
"517 74 OFFCURVE",
"512 9 OFFCURVE",
"409 9 CURVE SMOOTH"
);
}
);
width = 594;
}
);
leftKerningGroup = o;
leftMetricsKey = "=o+2";
note = uni0444;
rightKerningGroup = o;
rightMetricsKey = "=o+2";
unicode = 0444;
},
{
color = 6;
glyphname = "che-cy";
lastChange = "2022-05-31 12:05:51 +0000";
layers = (
{
layerId = "5E1A2ACF-25BB-4872-A226-5327BC7330DB";
paths = (
{
closed = 1;
nodes = (
"280 0 LINE",
"280 495 LINE",
"264 495 LINE",
"264 265 LINE",
"259 208 OFFCURVE",
"238 167 OFFCURVE",
"165 167 CURVE SMOOTH",
"85 167 OFFCURVE",
"82 232 OFFCURVE",
"82 291 CURVE SMOOTH",
"82 495 LINE",
"66 495 LINE",
"66 282 LINE SMOOTH",
"66 221 OFFCURVE",
"72 151 OFFCURVE",
"165 151 CURVE SMOOTH",
"228 151 OFFCURVE",
"249 178 OFFCURVE",
"264 209 CURVE",
"264 0 LINE"
);
}
);
width = 348;
}
);
note = uni0447;
rightKerningGroup = u;
rightMetricsKey = "=|n";
unicode = 0447;
},
{
color = 6;
glyphname = "tse-cy";
lastChange = "2022-05-31 12:05:51 +0000";
layers = (
{
layerId = "5E1A2ACF-25BB-4872-A226-5327BC7330DB";
paths = (
{
closed = 1;
nodes = (
"336 -65 LINE",
"336 16 LINE",
"312 16 LINE",
"312 495 LINE",
"296 495 LINE",
"296 16 LINE",
"84 16 LINE",
"84 495 LINE",
"68 495 LINE",
"68 0 LINE",
"321 0 LINE",
"321 -65 LINE"
);
}
);
width = 381;
}
);
leftKerningGroup = n;
leftMetricsKey = n;
note = uni0446;
rightKerningGroup = tse;
unicode = 0446;
},
{
color = 6;
glyphname = "sha-cy";
lastChange = "2022-05-31 12:05:51 +0000";
layers = (
{
layerId = "5E1A2ACF-25BB-4872-A226-5327BC7330DB";
paths = (
{
closed = 1;
nodes = (
"476 0 LINE",
"476 495 LINE",
"460 495 LINE",
"460 16 LINE",
"278 16 LINE",
"278 495 LINE",
"262 495 LINE",
"262 16 LINE",
"84 16 LINE",
"84 495 LINE",
"68 495 LINE",
"68 0 LINE"
);
}
);
width = 544;
}
);
leftKerningGroup = n;
leftMetricsKey = n;
note = uni0448;
rightKerningGroup = u;
rightMetricsKey = "=|n";
unicode = 0448;
},
{
color = 6;
glyphname = "shcha-cy";
lastChange = "2022-05-31 12:05:51 +0000";
layers = (
{
layerId = "5E1A2ACF-25BB-4872-A226-5327BC7330DB";
paths = (
{
closed = 1;
nodes = (
"500 -65 LINE",
"500 16 LINE",
"476 16 LINE",
"476 495 LINE",
"460 495 LINE",
"460 16 LINE",
"278 16 LINE",
"278 495 LINE",
"262 495 LINE",
"262 16 LINE",
"84 16 LINE",
"84 495 LINE",
"68 495 LINE",
"68 0 LINE",
"485 0 LINE",
"485 -65 LINE"
);
}
);
width = 545;
}
);
leftKerningGroup = n;
leftMetricsKey = n;
note = uni0449;
rightKerningGroup = tse;
rightMetricsKey = "tse-cy";
unicode = 0449;
},
{
color = 6;
glyphname = "dzhe-cy";
lastChange = "2022-05-31 12:05:51 +0000";
layers = (
{
layerId = "5E1A2ACF-25BB-4872-A226-5327BC7330DB";
paths = (
{
closed = 1;
nodes = (
"309 0 LINE",
"309 495 LINE",
"293 495 LINE",
"293 16 LINE",
"84 16 LINE",
"84 495 LINE",
"68 495 LINE",
"68 0 LINE"
);
},
{
closed = 1;
nodes = (
"198 -113 LINE",
"198 5 LINE",
"182 5 LINE",
"182 -113 LINE"
);
}
);
width = 377;
}
);
leftKerningGroup = n;
leftMetricsKey = n;
note = uni045F;
rightKerningGroup = u;
rightMetricsKey = "=|n";
unicode = 045F;
},
{
color = 6;
glyphname = "softsign-cy";
lastChange = "2022-05-31 12:05:51 +0000";
layers = (
{
layerId = "5E1A2ACF-25BB-4872-A226-5327BC7330DB";
paths = (
{
closed = 1;
nodes = (
"192 0 LINE SMOOTH",
"305 0 OFFCURVE",
"311 69 OFFCURVE",
"311 131 CURVE SMOOTH",
"311 207 LINE SMOOTH",
"311 268 OFFCURVE",
"305 338 OFFCURVE",
"192 338 CURVE SMOOTH",
"83 338 LINE",
"83 495 LINE",
"68 495 LINE",
"68 0 LINE"
);
},
{
closed = 1;
nodes = (
"83 323 LINE",
"188 323 LINE SMOOTH",
"291 323 OFFCURVE",
"296 263 OFFCURVE",
"296 204 CURVE SMOOTH",
"296 134 LINE SMOOTH",
"296 75 OFFCURVE",
"291 15 OFFCURVE",
"188 15 CURVE SMOOTH",
"83 15 LINE"
);
}
);
width = 351;
}
);
leftKerningGroup = n;
leftMetricsKey = n;
note = uni044C;
rightKerningGroup = soft;
unicode = 044C;
},
{
color = 6;
glyphname = "hardsign-cy";
lastChange = "2022-05-31 12:05:51 +0000";
layers = (
{
layerId = "5E1A2ACF-25BB-4872-A226-5327BC7330DB";
paths = (
{
closed = 1;
nodes = (
"217 0 LINE SMOOTH",
"330 0 OFFCURVE",
"337 69 OFFCURVE",
"336 131 CURVE SMOOTH",
"336 207 LINE SMOOTH",
"335 268 OFFCURVE",
"330 338 OFFCURVE",
"217 338 CURVE SMOOTH",
"108 338 LINE",
"108 495 LINE",
"93 495 LINE",
"93 0 LINE"
);
},
{
closed = 1;
nodes = (
"108 323 LINE",
"213 323 LINE SMOOTH",
"316 323 OFFCURVE",
"321 263 OFFCURVE",
"321 204 CURVE SMOOTH",
"321 134 LINE SMOOTH",
"321 75 OFFCURVE",
"316 15 OFFCURVE",
"213 15 CURVE SMOOTH",
"108 15 LINE"
);
},
{
closed = 1;
nodes = (
"105 479 LINE",
"105 495 LINE",
"5 495 LINE",
"5 479 LINE"
);
}
);
width = 376;
}
);
leftKerningGroup = hardsign;
note = uni044A;
rightKerningGroup = soft;
rightMetricsKey = "softsign-cy";
unicode = 044A;
},
{
color = 6;
glyphname = "lje-cy";
lastChange = "2022-05-31 12:05:51 +0000";
layers = (
{
layerId = "5E1A2ACF-25BB-4872-A226-5327BC7330DB";
paths = (
{
closed = 1;
nodes = (
"77 0 OFFCURVE",
"81 66 OFFCURVE",
"83 92 CURVE SMOOTH",
"116 479 LINE",
"270 479 LINE",
"263 495 LINE",
"102 495 LINE",
"67 92 LINE SMOOTH",
"62 36 OFFCURVE",
"49 15 OFFCURVE",
"22 15 CURVE",
"22 0 LINE"
);
},
{
closed = 1;
nodes = (
"283 323 LINE",
"388 323 LINE SMOOTH",
"491 323 OFFCURVE",
"496 263 OFFCURVE",
"496 204 CURVE SMOOTH",
"496 134 LINE SMOOTH",
"496 75 OFFCURVE",
"491 15 OFFCURVE",
"388 15 CURVE SMOOTH",
"283 15 LINE"
);
},
{
closed = 1;
nodes = (
"392 0 LINE SMOOTH",
"505 0 OFFCURVE",
"511 69 OFFCURVE",
"511 131 CURVE SMOOTH",
"511 207 LINE SMOOTH",
"511 268 OFFCURVE",
"505 338 OFFCURVE",
"392 338 CURVE SMOOTH",
"283 338 LINE",
"283 495 LINE",
"268 495 LINE",
"268 0 LINE"
);
},
{
closed = 1;
nodes = (
"280 479 LINE",
"280 495 LINE",
"180 495 LINE",
"180 479 LINE"
);
}
);
width = 551;
}
);
leftKerningGroup = el;
leftMetricsKey = "el-cy";
note = uni0459;
rightKerningGroup = soft;
rightMetricsKey = "softsign-cy";
unicode = 0459;
},
{
color = 3;
glyphname = "nje-cy";
lastChange = "2022-05-31 12:05:51 +0000";
layers = (
{
layerId = "5E1A2ACF-25BB-4872-A226-5327BC7330DB";
paths = (
{
closed = 1;
nodes = (
"412 0 LINE SMOOTH",
"525 0 OFFCURVE",
"531 69 OFFCURVE",
"531 131 CURVE SMOOTH",
"531 207 LINE SMOOTH",
"531 268 OFFCURVE",
"525 338 OFFCURVE",
"412 338 CURVE SMOOTH",
"303 338 LINE",
"303 495 LINE",
"288 495 LINE",
"288 0 LINE"
);
},
{
closed = 1;
nodes = (
"84 0 LINE",
"84 495 LINE",
"68 495 LINE",
"68 0 LINE"
);
},
{
closed = 1;
nodes = (
"296 256 LINE",
"296 272 LINE",
"75 272 LINE",
"75 256 LINE"
);
},
{
closed = 1;
nodes = (
"303 323 LINE",
"408 323 LINE SMOOTH",
"511 323 OFFCURVE",
"516 263 OFFCURVE",
"516 204 CURVE SMOOTH",
"516 134 LINE SMOOTH",
"516 75 OFFCURVE",
"511 15 OFFCURVE",
"408 15 CURVE SMOOTH",
"303 15 LINE"
);
}
);
width = 571;
}
);
leftKerningGroup = n;
leftMetricsKey = n;
note = uni045A;
rightKerningGroup = soft;
rightMetricsKey = "softsign-cy";
unicode = 045A;
},
{
color = 6;
glyphname = "e-cy";
lastChange = "2022-05-31 12:05:51 +0000";
layers = (
{
layerId = "5E1A2ACF-25BB-4872-A226-5327BC7330DB";
paths = (
{
closed = 1;
nodes = (
"297 -7 OFFCURVE",
"303 62 OFFCURVE",
"303 124 CURVE SMOOTH",
"303 167 LINE",
"287 167 LINE",
"287 127 LINE SMOOTH",
"287 68 OFFCURVE",
"282 9 OFFCURVE",
"184 9 CURVE SMOOTH",
"80 9 OFFCURVE",
"75 68 OFFCURVE",
"75 127 CURVE SMOOTH",
"75 242 LINE",
"236 242 LINE",
"236 258 LINE",
"75 258 LINE",
"75 369 LINE SMOOTH",
"75 428 OFFCURVE",
"80 487 OFFCURVE",
"184 487 CURVE SMOOTH",
"282 487 OFFCURVE",
"287 428 OFFCURVE",
"287 369 CURVE SMOOTH",
"287 328 LINE",
"303 328 LINE",
"303 372 LINE SMOOTH",
"303 433 OFFCURVE",
"297 503 OFFCURVE",
"184 503 CURVE SMOOTH",
"65 503 OFFCURVE",
"59 433 OFFCURVE",
"59 372 CURVE SMOOTH",
"59 124 LINE SMOOTH",
"59 62 OFFCURVE",
"65 -7 OFFCURVE",
"184 -7 CURVE SMOOTH"
);
}
);
width = 350;
}
);
leftKerningGroup = o;
leftMetricsKey = o;
note = uni0454;
rightKerningGroup = c;
rightMetricsKey = c;
unicode = 0454;
},
{
color = 6;
glyphname = "ereversed-cy";
lastChange = "2022-05-31 12:05:51 +0000";
layers = (
{
layerId = "5E1A2ACF-25BB-4872-A226-5327BC7330DB";
paths = (
{
closed = 1;
nodes = (
"285 -7 OFFCURVE",
"291 62 OFFCURVE",
"291 124 CURVE SMOOTH",
"291 372 LINE SMOOTH",
"291 433 OFFCURVE",
"285 503 OFFCURVE",
"166 503 CURVE SMOOTH",
"53 503 OFFCURVE",
"47 433 OFFCURVE",
"47 372 CURVE SMOOTH",
"47 328 LINE",
"63 328 LINE",
"63 369 LINE SMOOTH",
"63 428 OFFCURVE",
"68 487 OFFCURVE",
"166 487 CURVE SMOOTH",
"270 487 OFFCURVE",
"275 428 OFFCURVE",
"275 369 CURVE SMOOTH",
"275 258 LINE",
"114 258 LINE",
"114 242 LINE",
"275 242 LINE",
"275 127 LINE SMOOTH",
"275 68 OFFCURVE",
"270 9 OFFCURVE",
"166 9 CURVE SMOOTH",
"68 9 OFFCURVE",
"63 68 OFFCURVE",
"63 127 CURVE SMOOTH",
"63 167 LINE",
"47 167 LINE",
"47 124 LINE SMOOTH",
"47 62 OFFCURVE",
"53 -7 OFFCURVE",
"166 -7 CURVE SMOOTH"
);
}
);
width = 350;
}
);
leftMetricsKey = "=|c";
note = uni044D;
rightKerningGroup = o;
rightMetricsKey = o;
unicode = 044D;
},
{
color = 6;
glyphname = "tshe-cy";
lastChange = "2022-05-31 12:05:51 +0000";
layers = (
{
layerId = "5E1A2ACF-25BB-4872-A226-5327BC7330DB";
paths = (
{
closed = 1;
nodes = (
"84 0 LINE",
"84 323 LINE",
"89 380 OFFCURVE",
"120 421 OFFCURVE",
"193 421 CURVE SMOOTH",
"293 421 OFFCURVE",
"296 356 OFFCURVE",
"296 297 CURVE SMOOTH",
"296 0 LINE",
"312 0 LINE",
"312 306 LINE SMOOTH",
"312 367 OFFCURVE",
"306 437 OFFCURVE",
"193 437 CURVE SMOOTH",
"130 437 OFFCURVE",
"99 410 OFFCURVE",
"84 379 CURVE",
"84 532 LINE",
"200 532 LINE",
"200 548 LINE",
"17 548 LINE",
"17 532 LINE",
"68 532 LINE",
"68 0 LINE"
);
},
{
closed = 1;
nodes = (
"84 535 LINE",
"84 630 LINE",
"68 630 LINE",
"68 535 LINE"
);
}
);
width = 373;
}
);
leftKerningGroup = l;
note = uni045B;
rightKerningGroup = n;
unicode = 045B;
},
{
color = 3;
glyphname = "iu-cy";
lastChange = "2022-05-31 12:05:51 +0000";
layers = (
{
layerId = "5E1A2ACF-25BB-4872-A226-5327BC7330DB";
paths = (
{
closed = 1;
nodes = (
"477 -12 OFFCURVE",
"539 2 OFFCURVE",
"539 118 CURVE SMOOTH",
"539 376 LINE SMOOTH",
"539 490 OFFCURVE",
"476 506 OFFCURVE",
"413 506 CURVE SMOOTH",
"350 506 OFFCURVE",
"286 492 OFFCURVE",
"286 376 CURVE SMOOTH",
"286 118 LINE SMOOTH",
"286 4 OFFCURVE",
"349 -12 OFFCURVE",
"411 -12 CURVE SMOOTH"
);
},
{
closed = 1;
nodes = (
"84 0 LINE",
"84 255 LINE",
"295 255 LINE",
"295 271 LINE",
"84 271 LINE",
"84 498 LINE",
"68 498 LINE",
"68 0 LINE"
);
},
{
closed = 1;
nodes = (
"357 4 OFFCURVE",
"302 17 OFFCURVE",
"302 121 CURVE SMOOTH",
"302 373 LINE SMOOTH",
"302 477 OFFCURVE",
"357 490 OFFCURVE",
"412 490 CURVE SMOOTH",
"466 490 OFFCURVE",
"523 477 OFFCURVE",
"523 373 CURVE SMOOTH",
"523 121 LINE SMOOTH",
"523 17 OFFCURVE",
"468 4 OFFCURVE",
"412 4 CURVE SMOOTH"
);
}
);
width = 598;
}
);
leftKerningGroup = n;
leftMetricsKey = n;
note = uni044E;
rightKerningGroup = o;
rightMetricsKey = o;
unicode = 044E;
},
{
color = 6;
glyphname = "ia-cy";
lastChange = "2022-05-31 12:05:51 +0000";
layers = (
{
layerId = "5E1A2ACF-25BB-4872-A226-5327BC7330DB";
paths = (
{
closed = 1;
nodes = (
"62 0 LINE",
"100 104 LINE SMOOTH",
"119 155 OFFCURVE",
"142 238 OFFCURVE",
"191 238 CURVE SMOOTH",
"286 238 LINE",
"286 0 LINE",
"302 0 LINE",
"302 495 LINE",
"169 495 LINE SMOOTH",
"112 495 OFFCURVE",
"63 470 OFFCURVE",
"63 398 CURVE SMOOTH",
"63 362 LINE SMOOTH",
"63 279 OFFCURVE",
"97 253 OFFCURVE",
"163 244 CURVE",
"127 237 OFFCURVE",
"102 160 OFFCURVE",
"91 128 CURVE SMOOTH",
"45 0 LINE"
);
},
{
closed = 1;
nodes = (
"122 254 OFFCURVE",
"79 282 OFFCURVE",
"79 360 CURVE SMOOTH",
"79 395 LINE SMOOTH",
"79 452 OFFCURVE",
"120 479 OFFCURVE",
"165 479 CURVE SMOOTH",
"286 479 LINE",
"286 254 LINE",
"198 254 LINE SMOOTH"
);
}
);
width = 370;
}
);
note = uni044F;
rightKerningGroup = u;
rightMetricsKey = "=|n";
unicode = 044F;
},
{
color = 6;
glyphname = "dje-cy";
lastChange = "2022-05-31 12:05:51 +0000";
layers = (
{
layerId = "5E1A2ACF-25BB-4872-A226-5327BC7330DB";
paths = (
{
closed = 1;
nodes = (
"294 -101 OFFCURVE",
"312 -56 OFFCURVE",
"312 45 CURVE SMOOTH",
"312 306 LINE SMOOTH",
"312 367 OFFCURVE",
"306 437 OFFCURVE",
"193 437 CURVE SMOOTH",
"130 437 OFFCURVE",
"99 410 OFFCURVE",
"84 379 CURVE",
"84 532 LINE",
"200 532 LINE",
"200 548 LINE",
"17 548 LINE",
"17 532 LINE",
"68 532 LINE",
"68 0 LINE",
"84 0 LINE",
"84 323 LINE",
"89 380 OFFCURVE",
"120 421 OFFCURVE",
"193 421 CURVE SMOOTH",
"293 421 OFFCURVE",
"296 356 OFFCURVE",
"296 297 CURVE SMOOTH",
"296 41 LINE SMOOTH",
"296 -46 OFFCURVE",
"277 -85 OFFCURVE",
"176 -85 CURVE",
"176 -101 LINE"
);
},
{
closed = 1;
nodes = (
"84 535 LINE",
"84 630 LINE",
"68 630 LINE",
"68 535 LINE"
);
}
);
width = 373;
}
);
leftKerningGroup = l;
note = uni0452;
rightKerningGroup = n;
unicode = 0452;
},
{
glyphname = "yat-cy";
lastChange = "2022-06-09 13:41:19 +0000";
layers = (
{
layerId = "5E1A2ACF-25BB-4872-A226-5327BC7330DB";
paths = (
{
closed = 1;
nodes = (
"192 0 LINE SMOOTH",
"305 0 OFFCURVE",
"311 69 OFFCURVE",
"311 131 CURVE SMOOTH",
"311 207 LINE SMOOTH",
"311 268 OFFCURVE",
"305 338 OFFCURVE",
"192 338 CURVE SMOOTH",
"83 338 LINE",
"83 495 LINE",
"68 495 LINE",
"68 0 LINE"
);
},
{
closed = 1;
nodes = (
"83 323 LINE",
"188 323 LINE SMOOTH",
"291 323 OFFCURVE",
"296 263 OFFCURVE",
"296 204 CURVE SMOOTH",
"296 134 LINE SMOOTH",
"296 75 OFFCURVE",
"291 15 OFFCURVE",
"188 15 CURVE SMOOTH",
"83 15 LINE"
);
},
{
closed = 1;
nodes = (
"194.291 400.619 LINE",
"194.291 416.462 LINE",
"12.661 416.462 LINE",
"12.661 400.619 LINE"
);
}
);
width = 351;
}
);
rightKerningGroup = soft;
rightMetricsKey = "softsign-cy";
unicode = 0463;
},
{
glyphname = "yusbig-cy";
lastChange = "2022-06-09 13:41:19 +0000";
layers = (
{
layerId = "5E1A2ACF-25BB-4872-A226-5327BC7330DB";
paths = (
{
closed = 1;
nodes = (
"61 0 LINE",
"117 187 LINE SMOOTH",
"127 221 OFFCURVE",
"143 259 OFFCURVE",
"185 259 CURVE SMOOTH",
"374 259 LINE SMOOTH",
"416 258 OFFCURVE",
"433 221 OFFCURVE",
"443 187 CURVE SMOOTH",
"498 0 LINE",
"515 0 LINE",
"459 189 LINE SMOOTH",
"447 230 OFFCURVE",
"436 272 OFFCURVE",
"376 272 CURVE SMOOTH",
"303 272 LINE",
"533 479 LINE",
"533 495 LINE",
"25 495 LINE",
"25 479 LINE",
"254 272 LINE",
"180 272 LINE SMOOTH",
"127 272 OFFCURVE",
"112 230 OFFCURVE",
"100 189 CURVE SMOOTH",
"44 0 LINE"
);
},
{
closed = 1;
nodes = (
"289 0 LINE",
"289 591 LINE",
"273 591 LINE",
"273 0 LINE"
);
},
{
closed = 1;
nodes = (
"48 479 LINE",
"509 479 LINE",
"280 272 LINE"
);
}
);
width = 558;
}
);
unicode = 046B;
},
{
color = 6;
glyphname = Omega;
lastChange = "2022-05-31 12:05:51 +0000";
layers = (
{
background = {
paths = (
{
closed = 1;
nodes = (
"30 0 LINE",
"237 0 LINE",
"237 11 LINE",
"91 114 OFFCURVE",
"74 226 OFFCURVE",
"74 322 CURVE SMOOTH",
"74 453 OFFCURVE",
"149 548 OFFCURVE",
"279 548 CURVE SMOOTH",
"420 548 OFFCURVE",
"483 454 OFFCURVE",
"483 347 CURVE SMOOTH",
"483 227 OFFCURVE",
"468 118 OFFCURVE",
"319 11 CURVE",
"319 0 LINE",
"528 0 LINE",
"528 16 LINE",
"351 16 LINE",
"492 133 OFFCURVE",
"499 234 OFFCURVE",
"499 337 CURVE SMOOTH",
"499 465 OFFCURVE",
"427 564 OFFCURVE",
"279 564 CURVE SMOOTH",
"140 564 OFFCURVE",
"58 466 OFFCURVE",
"58 331 CURVE SMOOTH",
"58 231 OFFCURVE",
"68 134 OFFCURVE",
"206 16 CURVE",
"30 16 LINE"
);
}
);
};
layerId = "5E1A2ACF-25BB-4872-A226-5327BC7330DB";
paths = (
{
closed = 1;
nodes = (
"237 0 LINE",
"242 15 LINE",
"142 85 OFFCURVE",
"73 151 OFFCURVE",
"73 310 CURVE SMOOTH",
"73 474 OFFCURVE",
"138 549 OFFCURVE",
"278 549 CURVE SMOOTH",
"411 549 OFFCURVE",
"483 468 OFFCURVE",
"483 319 CURVE SMOOTH",
"483 185 OFFCURVE",
"429 88 OFFCURVE",
"314 15 CURVE",
"318 0 LINE",
"546 0 LINE",
"546 16 LINE",
"344 16 LINE",
"449 91 OFFCURVE",
"499 188 OFFCURVE",
"499 319 CURVE SMOOTH",
"499 476 OFFCURVE",
"420 565 OFFCURVE",
"278 565 CURVE SMOOTH",
"129 565 OFFCURVE",
"57 482 OFFCURVE",
"57 310 CURVE SMOOTH",
"57 155 OFFCURVE",
"122 83 OFFCURVE",
"212 16 CURVE",
"30 16 LINE",
"30 0 LINE"
);
}
);
width = 576;
}
);
note = uni03A9;
unicode = 03A9;
},
{
color = 6;
glyphname = pi;
lastChange = "2022-05-31 12:05:51 +0000";
layers = (
{
layerId = "5E1A2ACF-25BB-4872-A226-5327BC7330DB";
paths = (
{
closed = 1;
nodes = (
"122 0 LINE",
"157 168 OFFCURVE",
"188 344 OFFCURVE",
"188 478 CURVE",
"396 478 LINE",
"396 0 LINE",
"412 0 LINE",
"412 478 LINE",
"497 478 LINE",
"497 495 LINE",
"205 495 LINE SMOOTH",
"111 495 OFFCURVE",
"74 485 OFFCURVE",
"36 469 CURVE",
"36 452 LINE",
"77 468 OFFCURVE",
"115 476 OFFCURVE",
"172 479 CURVE",
"172 321 OFFCURVE",
"130 112 OFFCURVE",
"106 0 CURVE"
);
}
);
width = 527;
}
);
note = pi;
unicode = 03C0;
},
{
color = 6;
glyphname = zero;
lastChange = "2022-05-31 12:05:51 +0000";
layers = (
{
layerId = "5E1A2ACF-25BB-4872-A226-5327BC7330DB";
paths = (
{
closed = 1;
nodes = (
"284 -12 OFFCURVE",
"347 41 OFFCURVE",
"347 158 CURVE SMOOTH",
"347 428 LINE SMOOTH",
"347 544 OFFCURVE",
"284 599 OFFCURVE",
"207 599 CURVE SMOOTH",
"131 599 OFFCURVE",
"65 546 OFFCURVE",
"65 428 CURVE SMOOTH",
"65 158 LINE SMOOTH",
"65 41 OFFCURVE",
"129 -12 OFFCURVE",
"205 -12 CURVE SMOOTH"
);
},
{
closed = 1;
nodes = (
"134 4 OFFCURVE",
"81 63 OFFCURVE",
"81 161 CURVE SMOOTH",
"81 426 LINE SMOOTH",
"81 524 OFFCURVE",
"134 583 OFFCURVE",
"206 583 CURVE SMOOTH",
"278 583 OFFCURVE",
"331 524 OFFCURVE",
"331 426 CURVE SMOOTH",
"331 161 LINE SMOOTH",
"331 63 OFFCURVE",
"279 4 OFFCURVE",
"206 4 CURVE SMOOTH"
);
}
);
width = 412;
}
);
leftKerningGroup = zero;
note = zero;
rightKerningGroup = zero;
unicode = 0030;
},
{
color = 6;
glyphname = one;
lastChange = "2022-05-31 12:05:51 +0000";
layers = (
{
layerId = "5E1A2ACF-25BB-4872-A226-5327BC7330DB";
paths = (
{
closed = 1;
nodes = (
"125 0 LINE",
"125 591 LINE",
"110 591 LINE",
"110 552 LINE SMOOTH",
"110 528 OFFCURVE",
"99 511 OFFCURVE",
"71 511 CURVE SMOOTH",
"24 511 LINE",
"24 495 LINE",
"109 495 LINE",
"109 0 LINE"
);
}
);
width = 201;
}
);
leftKerningGroup = one;
note = one;
rightKerningGroup = one;
rightMetricsKey = H;
unicode = 0031;
},
{
color = 6;
glyphname = two;
lastChange = "2022-05-31 12:05:51 +0000";
layers = (
{
layerId = "5E1A2ACF-25BB-4872-A226-5327BC7330DB";
paths = (
{
closed = 1;
nodes = (
"338 0 LINE",
"338 16 LINE",
"84 16 LINE",
"84 105 LINE SMOOTH",
"84 184 OFFCURVE",
"138 215 OFFCURVE",
"206 254 CURVE SMOOTH",
"286 300 OFFCURVE",
"332 358 OFFCURVE",
"332 450 CURVE SMOOTH",
"332 545 OFFCURVE",
"289 595 OFFCURVE",
"196 595 CURVE SMOOTH",
"112 595 OFFCURVE",
"62 551 OFFCURVE",
"62 458 CURVE SMOOTH",
"62 409 LINE",
"78 409 LINE",
"78 462 LINE SMOOTH",
"78 543 OFFCURVE",
"126 578 OFFCURVE",
"196 578 CURVE SMOOTH",
"279 578 OFFCURVE",
"316 538 OFFCURVE",
"316 454 CURVE SMOOTH",
"316 440 LINE SMOOTH",
"316 355 OFFCURVE",
"263 307 OFFCURVE",
"195 266 CURVE SMOOTH",
"128 226 OFFCURVE",
"66 195 OFFCURVE",
"66 105 CURVE SMOOTH",
"66 0 LINE"
);
}
);
width = 385;
}
);
leftKerningGroup = two;
note = two;
rightKerningGroup = two;
unicode = 0032;
},
{
color = 6;
glyphname = three;
lastChange = "2022-05-31 12:05:51 +0000";
layers = (
{
layerId = "5E1A2ACF-25BB-4872-A226-5327BC7330DB";
paths = (
{
closed = 1;
nodes = (
"287 -8 OFFCURVE",
"341 41 OFFCURVE",
"341 137 CURVE SMOOTH",
"341 163 LINE SMOOTH",
"341 232 OFFCURVE",
"310 298 OFFCURVE",
"230 309 CURVE",
"294 321 OFFCURVE",
"335 373 OFFCURVE",
"335 442 CURVE SMOOTH",
"335 460 LINE SMOOTH",
"335 543 OFFCURVE",
"289 595 OFFCURVE",
"200 595 CURVE SMOOTH",
"111 595 OFFCURVE",
"65 543 OFFCURVE",
"65 460 CURVE SMOOTH",
"65 429 LINE",
"81 429 LINE",
"81 459 LINE SMOOTH",
"81 534 OFFCURVE",
"116 579 OFFCURVE",
"200 579 CURVE SMOOTH",
"284 579 OFFCURVE",
"318 534 OFFCURVE",
"318 459 CURVE SMOOTH",
"318 440 LINE SMOOTH",
"318 370 OFFCURVE",
"272 317 OFFCURVE",
"200 317 CURVE SMOOTH",
"136 317 LINE",
"136 301 LINE",
"200 301 LINE SMOOTH",
"283 301 OFFCURVE",
"325 247 OFFCURVE",
"325 163 CURVE SMOOTH",
"325 137 LINE SMOOTH",
"325 51 OFFCURVE",
"285 9 OFFCURVE",
"200 7 CURVE SMOOTH",
"118 9 OFFCURVE",
"75 48 OFFCURVE",
"75 137 CURVE SMOOTH",
"75 183 LINE",
"59 183 LINE",
"59 137 LINE SMOOTH",
"59 44 OFFCURVE",
"110 -8 OFFCURVE",
"200 -8 CURVE SMOOTH"
);
}
);
width = 390;
}
);
leftKerningGroup = three;
note = three;
rightKerningGroup = three;
unicode = 0033;
},
{
color = 6;
glyphname = four;
lastChange = "2022-05-31 12:05:51 +0000";
layers = (
{
background = {
paths = (
{
closed = 1;
nodes = (
"258 0 LINE",
"258 124 LINE",
"310 124 LINE",
"310 135 LINE",
"258 135 LINE",
"258 591 LINE",
"250 591 LINE",
"20 134 LINE",
"20 124 LINE",
"246 124 LINE",
"246 0 LINE"
);
},
{
closed = 1;
nodes = (
"246 559 LINE",
"246 135 LINE",
"33 135 LINE"
);
}
);
};
layerId = "5E1A2ACF-25BB-4872-A226-5327BC7330DB";
paths = (
{
closed = 1;
nodes = (
"277 0 LINE",
"277 119 LINE",
"329 119 LINE",
"329 135 LINE",
"277 135 LINE",
"277 591 LINE",
"264 591 LINE",
"35 134 LINE",
"35 119 LINE",
"261 119 LINE",
"261 0 LINE"
);
},
{
closed = 1;
nodes = (
"261 549 LINE",
"261 135 LINE",
"53 135 LINE"
);
}
);
width = 364;
}
);
leftKerningGroup = four;
note = four;
rightKerningGroup = parenright;
unicode = 0034;
},
{
color = 6;
glyphname = five;
lastChange = "2022-05-31 12:05:51 +0000";
layers = (
{
layerId = "5E1A2ACF-25BB-4872-A226-5327BC7330DB";
paths = (
{
closed = 1;
nodes = (
"294 -8 OFFCURVE",
"371 19 OFFCURVE",
"371 163 CURVE SMOOTH",
"371 241 LINE SMOOTH",
"371 360 OFFCURVE",
"312 392 OFFCURVE",
"226 392 CURVE SMOOTH",
"170 392 OFFCURVE",
"123 371 OFFCURVE",
"100 332 CURVE",
"104 326 LINE",
"104 575 LINE",
"346 575 LINE",
"346 591 LINE",
"89 591 LINE",
"89 296 LINE",
"104 296 LINE",
"107 332 OFFCURVE",
"149 376 OFFCURVE",
"226 376 CURVE SMOOTH",
"331 376 OFFCURVE",
"355 317 OFFCURVE",
"355 242 CURVE SMOOTH",
"355 160 LINE SMOOTH",
"355 56 OFFCURVE",
"303 4 OFFCURVE",
"223 4 CURVE SMOOTH",
"104 4 OFFCURVE",
"97 94 OFFCURVE",
"97 154 CURVE SMOOTH",
"97 168 LINE",
"81 168 LINE",
"81 151 LINE SMOOTH",
"81 0 OFFCURVE",
"167 -8 OFFCURVE",
"222 -8 CURVE SMOOTH"
);
}
);
width = 430;
}
);
leftKerningGroup = five;
note = five;
rightKerningGroup = five;
unicode = 0035;
},
{
color = 6;
glyphname = six;
lastChange = "2022-05-31 12:05:51 +0000";
layers = (
{
layerId = "5E1A2ACF-25BB-4872-A226-5327BC7330DB";
paths = (
{
closed = 1;
nodes = (
"288 -9 OFFCURVE",
"365 13 OFFCURVE",
"365 158 CURVE SMOOTH",
"365 205 LINE SMOOTH",
"365 322 OFFCURVE",
"308 355 OFFCURVE",
"226 355 CURVE SMOOTH",
"158 355 OFFCURVE",
"116 326 OFFCURVE",
"84 288 CURVE",
"84 454 LINE SMOOTH",
"84 525 OFFCURVE",
"133 577 OFFCURVE",
"213 577 CURVE SMOOTH",
"288 577 OFFCURVE",
"332 540 OFFCURVE",
"332 460 CURVE SMOOTH",
"332 449 LINE",
"348 449 LINE",
"348 456 LINE SMOOTH",
"348 549 OFFCURVE",
"300 593 OFFCURVE",
"213 593 CURVE SMOOTH",
"128 593 OFFCURVE",
"67 538 OFFCURVE",
"67 450 CURVE SMOOTH",
"67 149 LINE SMOOTH",
"67 -6 OFFCURVE",
"162 -9 OFFCURVE",
"215 -9 CURVE SMOOTH"
);
},
{
closed = 1;
nodes = (
"94 7 OFFCURVE",
"83 92 OFFCURVE",
"83 152 CURVE SMOOTH",
"83 234 LINE SMOOTH",
"83 279 OFFCURVE",
"145 339 OFFCURVE",
"226 339 CURVE SMOOTH",
"327 339 OFFCURVE",
"349 270 OFFCURVE",
"349 190 CURVE SMOOTH",
"349 158 LINE SMOOTH",
"349 54 OFFCURVE",
"298 7 OFFCURVE",
"215 7 CURVE SMOOTH"
);
}
);
width = 428;
}
);
leftKerningGroup = six;
note = six;
rightKerningGroup = six;
unicode = 0036;
},
{
color = 6;
glyphname = seven;
lastChange = "2022-05-31 12:05:51 +0000";
layers = (
{
layerId = "5E1A2ACF-25BB-4872-A226-5327BC7330DB";
paths = (
{
closed = 1;
nodes = (
"76 0 LINE",
"245 576 LINE",
"245 591 LINE",
"12 591 LINE",
"12 575 LINE",
"228 575 LINE",
"59 0 LINE"
);
}
);
width = 275;
}
);
leftKerningGroup = seven;
note = seven;
rightKerningGroup = seven;
unicode = 0037;
},
{
color = 6;
glyphname = eight;
lastChange = "2022-05-31 12:05:51 +0000";
layers = (
{
layerId = "5E1A2ACF-25BB-4872-A226-5327BC7330DB";
paths = (
{
closed = 1;
nodes = (
"289 -8 OFFCURVE",
"343 41 OFFCURVE",
"343 137 CURVE SMOOTH",
"343 163 LINE SMOOTH",
"343 232 OFFCURVE",
"315 298 OFFCURVE",
"232 309 CURVE",
"296 321 OFFCURVE",
"337 373 OFFCURVE",
"337 442 CURVE SMOOTH",
"337 460 LINE SMOOTH",
"337 543 OFFCURVE",
"291 595 OFFCURVE",
"202 595 CURVE SMOOTH",
"113 595 OFFCURVE",
"67 543 OFFCURVE",
"67 460 CURVE SMOOTH",
"67 442 LINE SMOOTH",
"67 373 OFFCURVE",
"108 321 OFFCURVE",
"172 309 CURVE",
"89 298 OFFCURVE",
"61 232 OFFCURVE",
"61 163 CURVE SMOOTH",
"61 137 LINE SMOOTH",
"61 44 OFFCURVE",
"112 -8 OFFCURVE",
"202 -8 CURVE SMOOTH"
);
},
{
closed = 1;
nodes = (
"123 10 OFFCURVE",
"77 54 OFFCURVE",
"77 137 CURVE SMOOTH",
"77 163 LINE SMOOTH",
"77 245 OFFCURVE",
"126 300 OFFCURVE",
"202 300 CURVE SMOOTH",
"279 300 OFFCURVE",
"327 245 OFFCURVE",
"327 163 CURVE SMOOTH",
"327 137 LINE SMOOTH",
"327 57 OFFCURVE",
"284 10 OFFCURVE",
"202 8 CURVE SMOOTH"
);
},
{
closed = 1;
nodes = (
"137 318 OFFCURVE",
"83 372 OFFCURVE",
"83 440 CURVE SMOOTH",
"83 459 LINE SMOOTH",
"83 530 OFFCURVE",
"120 579 OFFCURVE",
"202 579 CURVE SMOOTH",
"284 579 OFFCURVE",
"321 530 OFFCURVE",
"321 459 CURVE SMOOTH",
"321 440 LINE SMOOTH",
"321 372 OFFCURVE",
"268 318 OFFCURVE",
"202 318 CURVE SMOOTH"
);
}
);
width = 404;
}
);
leftKerningGroup = eight;
note = eight;
rightKerningGroup = eight;
unicode = 0038;
},
{
color = 6;
glyphname = nine;
lastChange = "2022-05-31 12:05:51 +0000";
layers = (
{
guideLines = (
{
position = "{-23, -8}";
}
);
layerId = "5E1A2ACF-25BB-4872-A226-5327BC7330DB";
paths = (
{
closed = 1;
nodes = (
"300 -9 OFFCURVE",
"361 46 OFFCURVE",
"361 134 CURVE SMOOTH",
"361 435 LINE SMOOTH",
"361 586 OFFCURVE",
"266 593 OFFCURVE",
"213 593 CURVE SMOOTH",
"140 593 OFFCURVE",
"63 571 OFFCURVE",
"63 426 CURVE SMOOTH",
"63 379 LINE SMOOTH",
"63 266 OFFCURVE",
"120 229 OFFCURVE",
"202 229 CURVE SMOOTH",
"270 229 OFFCURVE",
"312 258 OFFCURVE",
"344 296 CURVE",
"344 130 LINE SMOOTH",
"344 59 OFFCURVE",
"295 7 OFFCURVE",
"215 7 CURVE SMOOTH",
"140 7 OFFCURVE",
"96 44 OFFCURVE",
"96 124 CURVE SMOOTH",
"96 135 LINE",
"80 135 LINE",
"80 128 LINE SMOOTH",
"80 35 OFFCURVE",
"128 -9 OFFCURVE",
"215 -9 CURVE SMOOTH"
);
},
{
closed = 1;
nodes = (
"101 245 OFFCURVE",
"79 314 OFFCURVE",
"79 394 CURVE SMOOTH",
"79 426 LINE SMOOTH",
"79 530 OFFCURVE",
"126 577 OFFCURVE",
"213 577 CURVE SMOOTH",
"334 577 OFFCURVE",
"345 492 OFFCURVE",
"345 432 CURVE SMOOTH",
"345 327 LINE",
"332 301 OFFCURVE",
"283 245 OFFCURVE",
"202 245 CURVE SMOOTH"
);
}
);
width = 428;
}
);
leftKerningGroup = nine;
note = nine;
rightKerningGroup = nine;
unicode = 0039;
},
{
color = 3;
glyphname = onesuperior;
lastChange = "2022-05-31 12:05:51 +0000";
layers = (
{
layerId = "5E1A2ACF-25BB-4872-A226-5327BC7330DB";
paths = (
{
closed = 1;
nodes = (
"109 238 LINE",
"109 591 LINE",
"98 591 LINE",
"98 548 OFFCURVE",
"89 532 OFFCURVE",
"50 532 CURVE",
"50 522 LINE",
"93 522 LINE",
"93 238 LINE"
);
}
);
width = 186;
}
);
note = onesuperior;
unicode = 00B9;
},
{
color = 3;
glyphname = twosuperior;
lastChange = "2022-05-31 12:05:51 +0000";
layers = (
{
layerId = "5E1A2ACF-25BB-4872-A226-5327BC7330DB";
paths = (
{
closed = 1;
nodes = (
"221 237 LINE",
"221 252 LINE",
"72 252 LINE",
"72 301 LINE SMOOTH",
"72 340 OFFCURVE",
"90 359 OFFCURVE",
"120 376 CURVE",
"125 378 OFFCURVE",
"155 395 OFFCURVE",
"169 403 CURVE SMOOTH",
"199 420 OFFCURVE",
"218 455 OFFCURVE",
"218 505 CURVE SMOOTH",
"218 561 OFFCURVE",
"194 593 OFFCURVE",
"133 593 CURVE SMOOTH",
"81 593 OFFCURVE",
"50 566 OFFCURVE",
"50 510 CURVE SMOOTH",
"50 478 LINE",
"66 478 LINE",
"66 516 LINE SMOOTH",
"66 556 OFFCURVE",
"93 579 OFFCURVE",
"133 579 CURVE SMOOTH",
"180 579 OFFCURVE",
"202 550 OFFCURVE",
"202 510 CURVE SMOOTH",
"202 498 LINE SMOOTH",
"202 462 OFFCURVE",
"188 434 OFFCURVE",
"159 416 CURVE SMOOTH",
"146 408 OFFCURVE",
"115 391 OFFCURVE",
"108 387 CURVE SMOOTH",
"75 368 OFFCURVE",
"56 349 OFFCURVE",
"56 301 CURVE SMOOTH",
"56 237 LINE"
);
}
);
width = 271;
}
);
note = twosuperior;
unicode = 00B2;
},
{
color = 3;
glyphname = threesuperior;
lastChange = "2022-05-31 12:05:51 +0000";
layers = (
{
layerId = "5E1A2ACF-25BB-4872-A226-5327BC7330DB";
paths = (
{
closed = 1;
nodes = (
"193 238 OFFCURVE",
"222 272 OFFCURVE",
"222 332 CURVE SMOOTH",
"222 355 LINE SMOOTH",
"222 386 OFFCURVE",
"197 422 OFFCURVE",
"150 428 CURVE",
"189 434 OFFCURVE",
"219 472 OFFCURVE",
"219 512 CURVE SMOOTH",
"219 519 LINE SMOOTH",
"219 568 OFFCURVE",
"188 595 OFFCURVE",
"136 595 CURVE SMOOTH",
"83 595 OFFCURVE",
"55 570 OFFCURVE",
"55 511 CURVE SMOOTH",
"55 492 LINE",
"71 492 LINE",
"71 517 LINE SMOOTH",
"71 557 OFFCURVE",
"92 579 OFFCURVE",
"136 579 CURVE SMOOTH",
"178 579 OFFCURVE",
"203 552 OFFCURVE",
"203 518 CURVE SMOOTH",
"203 514 LINE SMOOTH",
"203 459 OFFCURVE",
"156 436 OFFCURVE",
"129 436 CURVE SMOOTH",
"99 436 LINE",
"99 420 LINE",
"131 420 LINE SMOOTH",
"165 420 OFFCURVE",
"206 397 OFFCURVE",
"206 346 CURVE SMOOTH",
"206 337 LINE SMOOTH",
"206 280 OFFCURVE",
"181 254 OFFCURVE",
"133 254 CURVE SMOOTH",
"87 254 OFFCURVE",
"61 272 OFFCURVE",
"61 330 CURVE SMOOTH",
"61 355 LINE",
"45 355 LINE",
"45 324 LINE SMOOTH",
"45 260 OFFCURVE",
"79 238 OFFCURVE",
"133 238 CURVE SMOOTH"
);
}
);
width = 267;
}
);
note = threesuperior;
unicode = 00B3;
},
{
color = 3;
glyphname = foursuperior;
lastChange = "2022-05-31 12:05:51 +0000";
layers = (
{
layerId = "5E1A2ACF-25BB-4872-A226-5327BC7330DB";
paths = (
{
closed = 1;
nodes = (
"185 242 LINE",
"185 313 LINE",
"226 313 LINE",
"226 329 LINE",
"185 329 LINE",
"185 597 LINE",
"171 597 LINE",
"33 322 LINE",
"33 313 LINE",
"169 313 LINE",
"169 242 LINE"
);
},
{
closed = 1;
nodes = (
"169 560 LINE",
"169 329 LINE",
"53 329 LINE"
);
}
);
width = 261;
}
);
unicode = 2074;
},
{
color = 3;
glyphname = fraction;
lastChange = "2022-05-31 12:05:51 +0000";
layers = (
{
layerId = "5E1A2ACF-25BB-4872-A226-5327BC7330DB";
paths = (
{
closed = 1;
nodes = (
"-33 0 LINE",
"288 585 LINE",
"269 585 LINE",
"-50 0 LINE"
);
}
);
width = 238;
}
);
note = fraction;
unicode = 2044;
},
{
color = 3;
glyphname = onehalf;
lastChange = "2022-04-11 19:59:34 +0000";
layers = (
{
background = {
paths = (
{
closed = 1;
nodes = (
"64 0 LINE",
"385 585 LINE",
"370 585 LINE",
"51 0 LINE"
);
}
);
};
components = (
{
alignment = -1;
name = onesuperior;
},
{
alignment = -1;
name = twosuperior;
transform = "{1, 0, 0, 1, 255, -236}";
},
{
name = fraction;
transform = "{1, 0, 0, 1, 100, 0}";
}
);
layerId = "5E1A2ACF-25BB-4872-A226-5327BC7330DB";
width = 526;
}
);
note = onehalf;
unicode = 00BD;
},
{
color = 6;
glyphname = period;
lastChange = "2022-05-31 12:05:51 +0000";
layers = (
{
layerId = "5E1A2ACF-25BB-4872-A226-5327BC7330DB";
paths = (
{
closed = 1;
nodes = (
"77 -3 OFFCURVE",
"82 2 OFFCURVE",
"82 13 CURVE SMOOTH",
"82 24 OFFCURVE",
"77 29 OFFCURVE",
"66 29 CURVE SMOOTH",
"55 29 OFFCURVE",
"50 24 OFFCURVE",
"50 13 CURVE SMOOTH",
"50 2 OFFCURVE",
"55 -3 OFFCURVE",
"66 -3 CURVE SMOOTH"
);
}
);
width = 132;
}
);
leftKerningGroup = period;
note = period;
rightKerningGroup = period;
unicode = 002E;
},
{
color = 6;
glyphname = comma;
lastChange = "2022-05-31 12:05:51 +0000";
layers = (
{
layerId = "5E1A2ACF-25BB-4872-A226-5327BC7330DB";
paths = (
{
closed = 1;
nodes = (
"54 -87 LINE",
"71 -62 OFFCURVE",
"89 -23 OFFCURVE",
"89 4 CURVE SMOOTH",
"89 17 OFFCURVE",
"83 29 OFFCURVE",
"68 29 CURVE SMOOTH",
"57 29 OFFCURVE",
"51 19 OFFCURVE",
"51 10 CURVE SMOOTH",
"51 -10 OFFCURVE",
"66 -10 OFFCURVE",
"66 -23 CURVE SMOOTH",
"66 -41 OFFCURVE",
"49 -73 OFFCURVE",
"41 -87 CURVE"
);
}
);
width = 132;
}
);
leftKerningGroup = period;
note = comma;
rightKerningGroup = period;
unicode = 002C;
},
{
color = 6;
glyphname = colon;
lastChange = "2022-05-31 12:05:51 +0000";
layers = (
{
layerId = "5E1A2ACF-25BB-4872-A226-5327BC7330DB";
paths = (
{
closed = 1;
nodes = (
"77 317 OFFCURVE",
"82 322 OFFCURVE",
"82 333 CURVE SMOOTH",
"82 344 OFFCURVE",
"77 349 OFFCURVE",
"66 349 CURVE SMOOTH",
"55 349 OFFCURVE",
"50 344 OFFCURVE",
"50 333 CURVE SMOOTH",
"50 322 OFFCURVE",
"55 317 OFFCURVE",
"66 317 CURVE SMOOTH"
);
},
{
closed = 1;
nodes = (
"77 -3 OFFCURVE",
"82 2 OFFCURVE",
"82 13 CURVE SMOOTH",
"82 24 OFFCURVE",
"77 29 OFFCURVE",
"66 29 CURVE SMOOTH",
"55 29 OFFCURVE",
"50 24 OFFCURVE",
"50 13 CURVE SMOOTH",
"50 2 OFFCURVE",
"55 -3 OFFCURVE",
"66 -3 CURVE SMOOTH"
);
}
);
width = 132;
}
);
leftKerningGroup = colon;
note = colon;
rightKerningGroup = colon;
unicode = 003A;
},
{
color = 6;
glyphname = semicolon;
lastChange = "2022-05-31 12:05:51 +0000";
layers = (
{
layerId = "5E1A2ACF-25BB-4872-A226-5327BC7330DB";
paths = (
{
closed = 1;
nodes = (
"51 -87 LINE",
"59 -78 OFFCURVE",
"74 -53 OFFCURVE",
"81 -36 CURVE SMOOTH",
"85 -25 OFFCURVE",
"89 -10 OFFCURVE",
"89 9 CURVE SMOOTH",
"89 20 OFFCURVE",
"83 30 OFFCURVE",
"70 30 CURVE SMOOTH",
"59 30 OFFCURVE",
"53 21 OFFCURVE",
"53 13 CURVE SMOOTH",
"53 8 OFFCURVE",
"55 2 OFFCURVE",
"59 -3 CURVE SMOOTH",
"64 -8 OFFCURVE",
"69 -16 OFFCURVE",
"69 -26 CURVE SMOOTH",
"69 -29 OFFCURVE",
"68 -33 OFFCURVE",
"67 -37 CURVE SMOOTH",
"62 -56 OFFCURVE",
"45 -82 OFFCURVE",
"41 -87 CURVE"
);
},
{
closed = 1;
nodes = (
"80 317 OFFCURVE",
"85 322 OFFCURVE",
"85 333 CURVE SMOOTH",
"85 344 OFFCURVE",
"80 349 OFFCURVE",
"69 349 CURVE SMOOTH",
"58 349 OFFCURVE",
"53 344 OFFCURVE",
"53 333 CURVE SMOOTH",
"53 322 OFFCURVE",
"58 317 OFFCURVE",
"69 317 CURVE SMOOTH"
);
}
);
width = 132;
}
);
leftKerningGroup = colon;
leftMetricsKey = comma;
note = semicolon;
rightKerningGroup = colon;
unicode = 003B;
},
{
color = 6;
glyphname = exclam;
lastChange = "2022-05-31 12:05:51 +0000";
layers = (
{
layerId = "5E1A2ACF-25BB-4872-A226-5327BC7330DB";
paths = (
{
closed = 1;
nodes = (
"80 195 LINE",
"84 357 LINE",
"84 630 LINE",
"68 630 LINE",
"68 357 LINE",
"71 195 LINE"
);
},
{
closed = 1;
nodes = (
"87 -3 OFFCURVE",
"92 2 OFFCURVE",
"92 13 CURVE SMOOTH",
"92 24 OFFCURVE",
"87 29 OFFCURVE",
"76 29 CURVE SMOOTH",
"65 29 OFFCURVE",
"60 24 OFFCURVE",
"60 13 CURVE SMOOTH",
"60 2 OFFCURVE",
"65 -3 OFFCURVE",
"76 -3 CURVE SMOOTH"
);
}
);
width = 152;
}
);
note = exclam;
unicode = 0021;
},
{
color = 6;
glyphname = exclamdown;
lastChange = "2022-05-31 12:05:51 +0000";
layers = (
{
layerId = "5E1A2ACF-25BB-4872-A226-5327BC7330DB";
paths = (
{
closed = 1;
nodes = (
"84 -151 LINE",
"84 122 LINE",
"80 284 LINE",
"71 284 LINE",
"68 122 LINE",
"68 -151 LINE"
);
},
{
closed = 1;
nodes = (
"87 415 OFFCURVE",
"92 420 OFFCURVE",
"92 431 CURVE SMOOTH",
"92 442 OFFCURVE",
"87 447 OFFCURVE",
"76 447 CURVE SMOOTH",
"65 447 OFFCURVE",
"60 442 OFFCURVE",
"60 431 CURVE SMOOTH",
"60 420 OFFCURVE",
"65 415 OFFCURVE",
"76 415 CURVE SMOOTH"
);
}
);
width = 152;
}
);
note = exclamdown;
unicode = 00A1;
},
{
color = 6;
glyphname = question;
lastChange = "2022-06-09 17:21:02 +0000";
layers = (
{
layerId = "5E1A2ACF-25BB-4872-A226-5327BC7330DB";
paths = (
{
closed = 1;
nodes = (
"142 144 LINE",
"142 250 LINE",
"189 250 LINE SMOOTH",
"240 250 OFFCURVE",
"316 285 OFFCURVE",
"316 378 CURVE SMOOTH",
"316 449 LINE SMOOTH",
"316 550 OFFCURVE",
"275 595 OFFCURVE",
"177 595 CURVE SMOOTH",
"96 595 OFFCURVE",
"55 549 OFFCURVE",
"55 458 CURVE SMOOTH",
"55 429 LINE",
"71 429 LINE",
"71 462 LINE SMOOTH",
"71 538 OFFCURVE",
"109 579 OFFCURVE",
"179 579 CURVE SMOOTH",
"260 579 OFFCURVE",
"300 534 OFFCURVE",
"300 451 CURVE SMOOTH",
"300 386 LINE SMOOTH",
"300 300 OFFCURVE",
"232 266 OFFCURVE",
"185 266 CURVE SMOOTH",
"126 266 LINE",
"126 144 LINE"
);
},
{
closed = 1;
nodes = (
"148 -3 OFFCURVE",
"153 2 OFFCURVE",
"153 13 CURVE SMOOTH",
"153 24 OFFCURVE",
"148 29 OFFCURVE",
"137 29 CURVE SMOOTH",
"126 29 OFFCURVE",
"121 24 OFFCURVE",
"121 13 CURVE SMOOTH",
"121 2 OFFCURVE",
"126 -3 OFFCURVE",
"137 -3 CURVE SMOOTH"
);
}
);
width = 363;
}
);
note = question;
unicode = 003F;
},
{
color = 6;
glyphname = questiondown;
lastChange = "2022-06-09 17:21:07 +0000";
layers = (
{
layerId = "5E1A2ACF-25BB-4872-A226-5327BC7330DB";
paths = (
{
closed = 1;
nodes = (
"267 -151 OFFCURVE",
"308 -105 OFFCURVE",
"308 -14 CURVE SMOOTH",
"308 15 LINE",
"292 15 LINE",
"292 -18 LINE SMOOTH",
"292 -94 OFFCURVE",
"254 -135 OFFCURVE",
"184 -135 CURVE SMOOTH",
"103 -135 OFFCURVE",
"63 -90 OFFCURVE",
"63 -7 CURVE SMOOTH",
"63 58 LINE SMOOTH",
"63 144 OFFCURVE",
"131 178 OFFCURVE",
"178 178 CURVE SMOOTH",
"237 178 LINE",
"237 300 LINE",
"221 300 LINE",
"221 194 LINE",
"174 194 LINE SMOOTH",
"123 194 OFFCURVE",
"47 159 OFFCURVE",
"47 66 CURVE SMOOTH",
"47 -5 LINE SMOOTH",
"47 -106 OFFCURVE",
"88 -151 OFFCURVE",
"186 -151 CURVE SMOOTH"
);
},
{
closed = 1;
nodes = (
"237 415 OFFCURVE",
"242 420 OFFCURVE",
"242 431 CURVE SMOOTH",
"242 442 OFFCURVE",
"237 447 OFFCURVE",
"226 447 CURVE SMOOTH",
"215 447 OFFCURVE",
"210 442 OFFCURVE",
"210 431 CURVE SMOOTH",
"210 420 OFFCURVE",
"215 415 OFFCURVE",
"226 415 CURVE SMOOTH"
);
}
);
width = 363;
}
);
note = questiondown;
unicode = 00BF;
},
{
color = 6;
glyphname = periodcentered;
lastChange = "2022-05-31 12:05:51 +0000";
layers = (
{
layerId = "5E1A2ACF-25BB-4872-A226-5327BC7330DB";
paths = (
{
closed = 1;
nodes = (
"77 248 OFFCURVE",
"82 253 OFFCURVE",
"82 264 CURVE SMOOTH",
"82 275 OFFCURVE",
"77 280 OFFCURVE",
"66 280 CURVE SMOOTH",
"55 280 OFFCURVE",
"50 275 OFFCURVE",
"50 264 CURVE SMOOTH",
"50 253 OFFCURVE",
"55 248 OFFCURVE",
"66 248 CURVE SMOOTH"
);
}
);
width = 132;
}
);
leftKerningGroup = hyphen;
note = periodcentered;
rightKerningGroup = hyphen;
unicode = 00B7;
},
{
color = 6;
glyphname = bullet;
lastChange = "2022-06-09 17:20:46 +0000";
layers = (
{
layerId = "5E1A2ACF-25BB-4872-A226-5327BC7330DB";
paths = (
{
closed = 1;
nodes = (
"147 223 OFFCURVE",
"174 250 OFFCURVE",
"174 285 CURVE SMOOTH",
"174 320 OFFCURVE",
"146 347 OFFCURVE",
"113 347 CURVE SMOOTH",
"77 347 OFFCURVE",
"50 320 OFFCURVE",
"50 285 CURVE SMOOTH",
"51 249 OFFCURVE",
"78 223 OFFCURVE",
"111 223 CURVE SMOOTH"
);
}
);
width = 224;
}
);
note = bullet;
unicode = 2022;
},
{
color = 3;
glyphname = asterisk;
lastChange = "2022-05-31 12:05:51 +0000";
layers = (
{
layerId = "5E1A2ACF-25BB-4872-A226-5327BC7330DB";
paths = (
{
closed = 1;
nodes = (
"234 421 LINE",
"347 264 LINE",
"361 274 LINE",
"245 431 LINE",
"429 487 LINE",
"424 502 LINE",
"241 442 LINE",
"243 630 LINE",
"227 630 LINE",
"227 442 LINE",
"45 503 LINE",
"40 488 LINE",
"222 429 LINE",
"108 273 LINE",
"121 264 LINE"
);
}
);
width = 469;
}
);
note = asterisk;
unicode = 002A;
},
{
color = 6;
glyphname = numbersign;
lastChange = "2022-05-31 12:05:51 +0000";
layers = (
{
layerId = "5E1A2ACF-25BB-4872-A226-5327BC7330DB";
paths = (
{
closed = 1;
nodes = (
"134 0 LINE",
"197 200 LINE",
"386 200 LINE",
"323 0 LINE",
"341 0 LINE",
"404 200 LINE",
"544 200 LINE",
"548 216 LINE",
"408 216 LINE",
"467 400 LINE",
"607 400 LINE",
"612 416 LINE",
"472 416 LINE",
"521 573 LINE",
"503 573 LINE",
"455 416 LINE",
"265 416 LINE",
"314 573 LINE",
"298 573 LINE",
"249 416 LINE",
"108 416 LINE",
"103 400 LINE",
"244 400 LINE",
"185 216 LINE",
"44 216 LINE",
"40 200 LINE",
"181 200 LINE",
"117 0 LINE"
);
},
{
closed = 1;
nodes = (
"260 400 LINE",
"450 400 LINE",
"391 216 LINE",
"201 216 LINE"
);
}
);
width = 652;
}
);
note = numbersign;
unicode = 0023;
},
{
color = 6;
glyphname = slash;
lastChange = "2022-05-31 12:05:51 +0000";
layers = (
{
layerId = "5E1A2ACF-25BB-4872-A226-5327BC7330DB";
paths = (
{
closed = 1;
nodes = (
"58 -46 LINE",
"401 631 LINE",
"384 631 LINE",
"40 -46 LINE"
);
}
);
width = 441;
}
);
note = slash;
unicode = 002F;
},
{
color = 6;
glyphname = backslash;
lastChange = "2022-05-31 12:05:51 +0000";
layers = (
{
layerId = "5E1A2ACF-25BB-4872-A226-5327BC7330DB";
paths = (
{
closed = 1;
nodes = (
"402 -46 LINE",
"59 631 LINE",
"40 631 LINE",
"384 -46 LINE"
);
}
);
width = 442;
}
);
note = backslash;
unicode = 005C;
},
{
color = 3;
glyphname = periodcentered.loclCAT.case;
lastChange = "2022-06-09 17:10:02 +0000";
layers = (
{
layerId = "5E1A2ACF-25BB-4872-A226-5327BC7330DB";
paths = (
{
closed = 1;
nodes = (
"-52 288 OFFCURVE",
"-47 293 OFFCURVE",
"-47 304 CURVE SMOOTH",
"-47 315 OFFCURVE",
"-52 320 OFFCURVE",
"-63 320 CURVE SMOOTH",
"-74 320 OFFCURVE",
"-79 315 OFFCURVE",
"-79 304 CURVE SMOOTH",
"-79 293 OFFCURVE",
"-74 288 OFFCURVE",
"-63 288 CURVE SMOOTH"
);
}
);
width = 0;
}
);
},
{
color = 3;
glyphname = periodcentered.loclCAT;
lastChange = "2022-06-09 17:10:02 +0000";
layers = (
{
layerId = "5E1A2ACF-25BB-4872-A226-5327BC7330DB";
paths = (
{
closed = 1;
nodes = (
"11 288 OFFCURVE",
"16 293 OFFCURVE",
"16 304 CURVE SMOOTH",
"16 315 OFFCURVE",
"11 320 OFFCURVE",
"0 320 CURVE SMOOTH",
"-11 320 OFFCURVE",
"-16 315 OFFCURVE",
"-16 304 CURVE SMOOTH",
"-16 293 OFFCURVE",
"-11 288 OFFCURVE",
"0 288 CURVE SMOOTH"
);
}
);
width = 0;
}
);
},
{
color = 6;
glyphname = parenleft;
lastChange = "2022-06-09 17:21:53 +0000";
layers = (
{
background = {
paths = (
{
closed = 1;
nodes = (
"289 -116 LINE",
"161 -92 OFFCURVE",
"92 75 OFFCURVE",
"92 252 CURVE SMOOTH",
"92 444 OFFCURVE",
"187 625 OFFCURVE",
"300 663 CURVE",
"300 667 LINE",
"169 643 OFFCURVE",
"76 441 OFFCURVE",
"76 249 CURVE SMOOTH",
"76 65 OFFCURVE",
"151 -113 OFFCURVE",
"289 -124 CURVE"
);
}
);
};
layerId = "5E1A2ACF-25BB-4872-A226-5327BC7330DB";
paths = (
{
closed = 1;
nodes = (
"283 -112 LINE",
"155 -92 OFFCURVE",
"87 75 OFFCURVE",
"87 252 CURVE SMOOTH",
"87 444 OFFCURVE",
"177 619 OFFCURVE",
"294 655 CURVE",
"294 667 LINE",
"163 643 OFFCURVE",
"70 441 OFFCURVE",
"70 249 CURVE SMOOTH",
"70 65 OFFCURVE",
"145 -113 OFFCURVE",
"283 -124 CURVE"
);
}
);
width = 324;
}
);
note = parenleft;
unicode = 0028;
},
{
color = 6;
glyphname = parenright;
lastChange = "2022-06-09 17:21:49 +0000";
layers = (
{
background = {
paths = (
{
closed = 1;
nodes = (
"157 -98 OFFCURVE",
"250 102 OFFCURVE",
"250 296 CURVE SMOOTH",
"250 480 OFFCURVE",
"175 658 OFFCURVE",
"37 669 CURVE",
"37 662 LINE",
"165 638 OFFCURVE",
"234 472 OFFCURVE",
"234 293 CURVE SMOOTH",
"234 100 OFFCURVE",
"139 -83 OFFCURVE",
"26 -118 CURVE",
"26 -122 LINE"
);
}
);
};
layerId = "5E1A2ACF-25BB-4872-A226-5327BC7330DB";
paths = (
{
closed = 1;
nodes = (
"41 655 LINE",
"169 635 OFFCURVE",
"237 468 OFFCURVE",
"237 291 CURVE SMOOTH",
"237 99 OFFCURVE",
"147 -76 OFFCURVE",
"30 -112 CURVE",
"30 -124 LINE",
"161 -100 OFFCURVE",
"254 102 OFFCURVE",
"254 294 CURVE SMOOTH",
"254 478 OFFCURVE",
"179 656 OFFCURVE",
"41 667 CURVE"
);
}
);
width = 324;
}
);
note = parenright;
rightKerningGroup = parenright;
unicode = 0029;
},
{
color = 6;
glyphname = braceleft;
lastChange = "2022-05-31 12:05:51 +0000";
layers = (
{
layerId = "5E1A2ACF-25BB-4872-A226-5327BC7330DB";
paths = (
{
closed = 1;
nodes = (
"211 -122 LINE",
"168 -113 OFFCURVE",
"123 -87 OFFCURVE",
"123 -16 CURVE SMOOTH",
"123 62 OFFCURVE",
"182 102 OFFCURVE",
"182 182 CURVE SMOOTH",
"182 220 OFFCURVE",
"154 255 OFFCURVE",
"106 268 CURVE",
"153 279 OFFCURVE",
"182 314 OFFCURVE",
"182 356 CURVE SMOOTH",
"182 427 OFFCURVE",
"123 477 OFFCURVE",
"123 549 CURVE SMOOTH",
"123 609 OFFCURVE",
"157 644 OFFCURVE",
"211 651 CURVE",
"211 665 LINE",
"153 656 OFFCURVE",
"106 623 OFFCURVE",
"106 551 CURVE SMOOTH",
"106 474 OFFCURVE",
"166 417 OFFCURVE",
"166 350 CURVE SMOOTH",
"166 307 OFFCURVE",
"110 273 OFFCURVE",
"57 273 CURVE",
"57 263 LINE",
"110 260 OFFCURVE",
"165 230 OFFCURVE",
"165 175 CURVE SMOOTH",
"165 116 OFFCURVE",
"107 68 OFFCURVE",
"107 -16 CURVE SMOOTH",
"107 -89 OFFCURVE",
"140 -121 OFFCURVE",
"211 -137 CURVE"
);
}
);
width = 274;
}
);
note = braceleft;
unicode = 007B;
},
{
color = 6;
glyphname = braceright;
lastChange = "2022-05-31 12:05:51 +0000";
layers = (
{
layerId = "5E1A2ACF-25BB-4872-A226-5327BC7330DB";
paths = (
{
closed = 1;
nodes = (
"121 -128 OFFCURVE",
"168 -95 OFFCURVE",
"168 -23 CURVE SMOOTH",
"168 54 OFFCURVE",
"108 111 OFFCURVE",
"108 178 CURVE SMOOTH",
"108 221 OFFCURVE",
"164 255 OFFCURVE",
"217 255 CURVE",
"217 265 LINE",
"164 268 OFFCURVE",
"109 298 OFFCURVE",
"109 353 CURVE SMOOTH",
"109 412 OFFCURVE",
"167 460 OFFCURVE",
"167 544 CURVE SMOOTH",
"167 617 OFFCURVE",
"134 649 OFFCURVE",
"63 665 CURVE",
"63 650 LINE",
"106 641 OFFCURVE",
"151 615 OFFCURVE",
"151 544 CURVE SMOOTH",
"151 466 OFFCURVE",
"92 426 OFFCURVE",
"92 346 CURVE SMOOTH",
"92 308 OFFCURVE",
"120 273 OFFCURVE",
"168 260 CURVE",
"121 249 OFFCURVE",
"92 214 OFFCURVE",
"92 172 CURVE SMOOTH",
"92 101 OFFCURVE",
"151 51 OFFCURVE",
"151 -21 CURVE SMOOTH",
"151 -81 OFFCURVE",
"117 -116 OFFCURVE",
"63 -123 CURVE",
"63 -137 LINE"
);
}
);
width = 274;
}
);
note = braceright;
unicode = 007D;
},
{
color = 6;
glyphname = bracketleft;
lastChange = "2022-05-31 12:05:51 +0000";
layers = (
{
layerId = "5E1A2ACF-25BB-4872-A226-5327BC7330DB";
paths = (
{
closed = 1;
nodes = (
"247 -62 LINE",
"247 -46 LINE",
"92 -46 LINE",
"92 614 LINE",
"247 614 LINE",
"247 630 LINE",
"76 630 LINE",
"76 -62 LINE"
);
}
);
width = 271;
}
);
note = bracketleft;
unicode = 005B;
},
{
color = 6;
glyphname = bracketright;
lastChange = "2022-05-31 12:05:51 +0000";
layers = (
{
layerId = "5E1A2ACF-25BB-4872-A226-5327BC7330DB";
paths = (
{
closed = 1;
nodes = (
"195 -62 LINE",
"195 630 LINE",
"24 630 LINE",
"24 614 LINE",
"179 614 LINE",
"179 -46 LINE",
"24 -46 LINE",
"24 -62 LINE"
);
}
);
width = 271;
}
);
note = bracketright;
unicode = 005D;
},
{
color = 6;
glyphname = hyphen;
lastChange = "2022-05-31 12:05:51 +0000";
layers = (
{
layerId = "5E1A2ACF-25BB-4872-A226-5327BC7330DB";
paths = (
{
closed = 1;
nodes = (
"224 244 LINE",
"224 260 LINE",
"45 260 LINE",
"45 244 LINE"
);
}
);
width = 269;
}
);
leftKerningGroup = hyphen;
note = hyphen;
rightKerningGroup = hyphen;
unicode = 002D;
},
{
color = 6;
glyphname = endash;
lastChange = "2022-05-31 12:05:51 +0000";
layers = (
{
layerId = "5E1A2ACF-25BB-4872-A226-5327BC7330DB";
paths = (
{
closed = 1;
nodes = (
"319 244 LINE",
"319 260 LINE",
"45 260 LINE",
"45 244 LINE"
);
}
);
width = 364;
}
);
leftKerningGroup = hyphen;
note = endash;
rightKerningGroup = hyphen;
unicode = 2013;
},
{
color = 6;
glyphname = emdash;
lastChange = "2022-05-31 12:05:51 +0000";
layers = (
{
layerId = "5E1A2ACF-25BB-4872-A226-5327BC7330DB";
paths = (
{
closed = 1;
nodes = (
"410 244 LINE",
"410 260 LINE",
"45 260 LINE",
"45 244 LINE"
);
}
);
width = 455;
}
);
leftKerningGroup = hyphen;
note = emdash;
rightKerningGroup = hyphen;
unicode = 2014;
},
{
color = 6;
glyphname = underscore;
lastChange = "2022-05-31 12:05:51 +0000";
layers = (
{
layerId = "5E1A2ACF-25BB-4872-A226-5327BC7330DB";
paths = (
{
closed = 1;
nodes = (
"683 -108 LINE",
"683 -92 LINE",
"40 -92 LINE",
"40 -108 LINE"
);
}
);
width = 723;
}
);
leftKerningGroup = period;
note = underscore;
rightKerningGroup = period;
unicode = 005F;
},
{
color = 6;
glyphname = quotedblbase;
lastChange = "2022-06-09 14:19:02 +0000";
layers = (
{
layerId = "5E1A2ACF-25BB-4872-A226-5327BC7330DB";
paths = (
{
closed = 1;
nodes = (
"134 -87 LINE",
"151 -62 OFFCURVE",
"169 -23 OFFCURVE",
"169 4 CURVE SMOOTH",
"169 17 OFFCURVE",
"163 29 OFFCURVE",
"148 29 CURVE SMOOTH",
"137 29 OFFCURVE",
"131 19 OFFCURVE",
"131 10 CURVE SMOOTH",
"131 -10 OFFCURVE",
"146 -10 OFFCURVE",
"146 -23 CURVE SMOOTH",
"146 -41 OFFCURVE",
"129 -73 OFFCURVE",
"121 -87 CURVE"
);
},
{
closed = 1;
nodes = (
"54 -87 LINE",
"71 -62 OFFCURVE",
"89 -23 OFFCURVE",
"89 4 CURVE SMOOTH",
"89 17 OFFCURVE",
"83 29 OFFCURVE",
"68 29 CURVE SMOOTH",
"57 29 OFFCURVE",
"51 19 OFFCURVE",
"51 10 CURVE SMOOTH",
"51 -10 OFFCURVE",
"66 -10 OFFCURVE",
"66 -23 CURVE SMOOTH",
"66 -41 OFFCURVE",
"49 -73 OFFCURVE",
"41 -87 CURVE"
);
}
);
width = 212;
}
);
leftKerningGroup = period;
leftMetricsKey = quotesinglbase;
note = quotedblbase;
rightKerningGroup = period;
rightMetricsKey = quotesinglbase;
unicode = 201E;
},
{
color = 3;
glyphname = quotedblleft;
lastChange = "2022-06-09 17:19:05 +0000";
layers = (
{
background = {
paths = (
{
closed = 1;
nodes = (
"143 415 LINE",
"159 415 LINE",
"206 615 LINE",
"198 615 LINE"
);
},
{
closed = 1;
nodes = (
"39 415 LINE",
"55 415 LINE",
"102 615 LINE",
"94 615 LINE"
);
}
);
};
components = (
{
name = quoteleft;
transform = "{1, 0, 0, 1, 80, 0}";
},
{
name = quoteleft;
}
);
layerId = "5E1A2ACF-25BB-4872-A226-5327BC7330DB";
width = 212;
}
);
leftKerningGroup = quotes;
leftMetricsKey = quoteleft;
note = quotedblleft;
rightKerningGroup = quotes;
rightMetricsKey = quoteleft;
unicode = 201C;
},
{
color = 3;
glyphname = quotedblright;
lastChange = "2022-04-19 12:03:07 +0000";
layers = (
{
background = {
paths = (
{
closed = 1;
nodes = (
"93 615 LINE",
"77 615 LINE",
"30 415 LINE",
"38 415 LINE"
);
},
{
closed = 1;
nodes = (
"196 615 LINE",
"180 615 LINE",
"133 415 LINE",
"141 415 LINE"
);
}
);
};
components = (
{
name = quoteright;
transform = "{1, 0, 0, 1, 80, 0}";
},
{
name = quoteright;
}
);
layerId = "5E1A2ACF-25BB-4872-A226-5327BC7330DB";
width = 212;
}
);
leftKerningGroup = quotes;
leftMetricsKey = quoteright;
note = quotedblright;
rightKerningGroup = quotes;
rightMetricsKey = quoteright;
unicode = 201D;
},
{
color = 3;
glyphname = quoteleft;
lastChange = "2022-05-31 12:05:56 +0000";
layers = (
{
background = {
paths = (
{
closed = 1;
nodes = (
"111 600 LINE",
"60 410 LINE",
"77 410 LINE",
"123 600 LINE"
);
}
);
};
layerId = "5E1A2ACF-25BB-4872-A226-5327BC7330DB";
paths = (
{
closed = 1;
nodes = (
"75 480 OFFCURVE",
"81 490 OFFCURVE",
"81 499 CURVE SMOOTH",
"81 519 OFFCURVE",
"66 519 OFFCURVE",
"66 532 CURVE SMOOTH",
"66 550 OFFCURVE",
"83 582 OFFCURVE",
"91 596 CURVE",
"78 596 LINE",
"61 571 OFFCURVE",
"43 532 OFFCURVE",
"43 505 CURVE SMOOTH",
"43 492 OFFCURVE",
"49 480 OFFCURVE",
"64 480 CURVE SMOOTH"
);
}
);
width = 132;
}
);
leftKerningGroup = quotes;
note = quoteleft;
rightKerningGroup = quotes;
unicode = 2018;
},
{
color = 3;
glyphname = quoteright;
lastChange = "2022-05-31 12:05:51 +0000";
layers = (
{
background = {
paths = (
{
closed = 1;
nodes = (
"44 420 LINE",
"95 610 LINE",
"78 610 LINE",
"32 420 LINE"
);
}
);
};
layerId = "5E1A2ACF-25BB-4872-A226-5327BC7330DB";
paths = (
{
closed = 1;
nodes = (
"54 480 LINE",
"71 505 OFFCURVE",
"89 544 OFFCURVE",
"89 571 CURVE SMOOTH",
"89 584 OFFCURVE",
"83 596 OFFCURVE",
"68 596 CURVE SMOOTH",
"57 596 OFFCURVE",
"51 586 OFFCURVE",
"51 577 CURVE SMOOTH",
"51 557 OFFCURVE",
"66 557 OFFCURVE",
"66 544 CURVE SMOOTH",
"66 526 OFFCURVE",
"49 494 OFFCURVE",
"41 480 CURVE"
);
}
);
width = 132;
}
);
leftKerningGroup = quotes;
note = quoteright;
rightKerningGroup = quotes;
unicode = 2019;
},
{
color = 6;
glyphname = guillemetleft;
lastChange = "2022-05-31 12:05:51 +0000";
layers = (
{
background = {
paths = (
{
closed = 1;
nodes = (
"381 115 LINE",
"266 284 LINE",
"393 468 LINE",
"379 468 LINE",
"250 284 LINE",
"367 115 LINE"
);
},
{
closed = 1;
nodes = (
"201 115 LINE",
"86 284 LINE",
"213 468 LINE",
"199 468 LINE",
"70 284 LINE",
"187 115 LINE"
);
}
);
};
layerId = "5E1A2ACF-25BB-4872-A226-5327BC7330DB";
paths = (
{
closed = 1;
nodes = (
"362 115 LINE",
"248 284 LINE",
"374 468 LINE",
"360 468 LINE",
"230 284 LINE",
"348 115 LINE"
);
},
{
closed = 1;
nodes = (
"182 115 LINE",
"68 284 LINE",
"194 468 LINE",
"180 468 LINE",
"50 284 LINE",
"168 115 LINE"
);
}
);
width = 414;
}
);
leftKerningGroup = guilsinglleft;
leftMetricsKey = guilsinglleft;
note = guillemotleft;
rightKerningGroup = guilsinglleft;
rightMetricsKey = guilsinglleft;
unicode = 00AB;
},
{
color = 6;
glyphname = guillemetright;
lastChange = "2022-05-31 12:05:51 +0000";
layers = (
{
layerId = "5E1A2ACF-25BB-4872-A226-5327BC7330DB";
paths = (
{
closed = 1;
nodes = (
"234 115 LINE",
"364 299 LINE",
"246 468 LINE",
"232 468 LINE",
"346 299 LINE",
"220 115 LINE"
);
},
{
closed = 1;
nodes = (
"54 115 LINE",
"184 299 LINE",
"66 468 LINE",
"52 468 LINE",
"166 299 LINE",
"40 115 LINE"
);
}
);
width = 414;
}
);
leftKerningGroup = guilsinglright;
leftMetricsKey = guilsinglright;
note = guillemotright;
rightKerningGroup = guilsinglright;
rightMetricsKey = guilsinglright;
unicode = 00BB;
},
{
color = 6;
glyphname = guilsinglleft;
lastChange = "2022-05-31 12:05:51 +0000";
layers = (
{
background = {
paths = (
{
closed = 1;
nodes = (
"180 115 LINE",
"65 284 LINE",
"192 468 LINE",
"178 468 LINE",
"49 284 LINE",
"166 115 LINE"
);
}
);
};
layerId = "5E1A2ACF-25BB-4872-A226-5327BC7330DB";
paths = (
{
closed = 1;
nodes = (
"182 115 LINE",
"68 284 LINE",
"194 468 LINE",
"180 468 LINE",
"50 284 LINE",
"168 115 LINE"
);
}
);
width = 234;
}
);
leftKerningGroup = guilsinglleft;
note = guilsinglleft;
rightKerningGroup = guilsinglleft;
unicode = 2039;
},
{
color = 6;
glyphname = guilsinglright;
lastChange = "2022-05-31 12:05:51 +0000";
layers = (
{
layerId = "5E1A2ACF-25BB-4872-A226-5327BC7330DB";
paths = (
{
closed = 1;
nodes = (
"66 115 LINE",
"184 284 LINE",
"54 468 LINE",
"40 468 LINE",
"166 284 LINE",
"52 115 LINE"
);
}
);
width = 234;
}
);
leftKerningGroup = guilsinglright;
note = guilsinglright;
rightKerningGroup = guilsinglright;
unicode = 203A;
},
{
color = 6;
glyphname = quotedbl;
lastChange = "2022-04-19 15:29:35 +0000";
layers = (
{
background = {
paths = (
{
closed = 1;
nodes = (
"175 431 LINE",
"190 631 LINE",
"156 631 LINE",
"168 431 LINE"
);
},
{
closed = 1;
nodes = (
"71 431 LINE",
"84 631 LINE",
"50 631 LINE",
"63 431 LINE"
);
}
);
};
components = (
{
name = quotesingle;
},
{
name = quotesingle;
transform = "{1, 0, 0, 1, 90, 0}";
}
);
layerId = "5E1A2ACF-25BB-4872-A226-5327BC7330DB";
width = 226;
}
);
leftKerningGroup = quotestraight;
leftMetricsKey = quotesingle;
note = quotedbl;
rightKerningGroup = quotestraight;
rightMetricsKey = quotesingle;
unicode = 0022;
},
{
color = 6;
glyphname = quotesingle;
lastChange = "2022-05-31 12:05:51 +0000";
layers = (
{
background = {
paths = (
{
closed = 1;
nodes = (
"70 441 LINE",
"80 631 LINE",
"56 631 LINE",
"62 441 LINE"
);
}
);
};
layerId = "5E1A2ACF-25BB-4872-A226-5327BC7330DB";
paths = (
{
closed = 1;
nodes = (
"70 431 LINE",
"76 631 LINE",
"60 631 LINE",
"62 431 LINE"
);
}
);
width = 136;
}
);
leftKerningGroup = quotestraight;
note = quotesingle;
rightKerningGroup = quotestraight;
unicode = 0027;
},
{
glyphname = "leftanglebracket-math";
lastChange = "2022-06-09 13:41:19 +0000";
layers = (
{
layerId = "5E1A2ACF-25BB-4872-A226-5327BC7330DB";
paths = (
{
closed = 1;
nodes = (
"200 -142 LINE",
"70 233 LINE",
"210 628 LINE",
"196 628 LINE",
"50 233 LINE",
"186 -142 LINE"
);
}
);
width = 250;
}
);
unicode = 27E8;
},
{
glyphname = "rightanglebracket-math";
lastChange = "2022-06-09 13:41:19 +0000";
layers = (
{
layerId = "5E1A2ACF-25BB-4872-A226-5327BC7330DB";
paths = (
{
closed = 1;
nodes = (
"64 -142 LINE",
"200 233 LINE",
"54 628 LINE",
"40 628 LINE",
"180 233 LINE",
"50 -142 LINE"
);
}
);
width = 250;
}
);
unicode = 27E9;
},
{
glyphname = cedi;
lastChange = "2022-05-31 12:05:51 +0000";
layers = (
{
layerId = "5E1A2ACF-25BB-4872-A226-5327BC7330DB";
paths = (
{
closed = 1;
nodes = (
"282 -12 OFFCURVE",
"340 2 OFFCURVE",
"340 118 CURVE SMOOTH",
"340 189 LINE",
"324 189 LINE",
"324 116 LINE SMOOTH",
"324 19 OFFCURVE",
"273 4 OFFCURVE",
"203 4 CURVE SMOOTH",
"138 4 OFFCURVE",
"83 19 OFFCURVE",
"83 116 CURVE SMOOTH",
"83 467 LINE SMOOTH",
"83 566 OFFCURVE",
"128 583 OFFCURVE",
"203 583 CURVE SMOOTH",
"274 583 OFFCURVE",
"324 568 OFFCURVE",
"324 473 CURVE SMOOTH",
"324 381 LINE",
"340 381 LINE",
"340 469 LINE SMOOTH",
"340 583 OFFCURVE",
"281 599 OFFCURVE",
"204 599 CURVE SMOOTH",
"127 599 OFFCURVE",
"67 585 OFFCURVE",
"67 469 CURVE SMOOTH",
"67 118 LINE SMOOTH",
"67 4 OFFCURVE",
"126 -12 OFFCURVE",
"202 -12 CURVE SMOOTH"
);
},
{
closed = 1;
nodes = (
"148 -81 LINE",
"242 659 LINE",
"227 659 LINE",
"133 -81 LINE"
);
}
);
width = 404;
}
);
leftMetricsKey = O;
rightMetricsKey = C;
unicode = 20B5;
},
{
color = 6;
glyphname = cent;
lastChange = "2022-05-31 12:05:51 +0000";
layers = (
{
layerId = "5E1A2ACF-25BB-4872-A226-5327BC7330DB";
paths = (
{
closed = 1;
nodes = (
"197 -63 LINE",
"197 53 LINE",
"304 56 OFFCURVE",
"311 123 OFFCURVE",
"311 184 CURVE SMOOTH",
"311 227 LINE",
"295 227 LINE",
"295 187 LINE SMOOTH",
"295 128 OFFCURVE",
"290 67 OFFCURVE",
"187 67 CURVE SMOOTH",
"83 67 OFFCURVE",
"83 128 OFFCURVE",
"83 187 CURVE SMOOTH",
"83 429 LINE SMOOTH",
"83 488 OFFCURVE",
"88 549 OFFCURVE",
"187 549 CURVE SMOOTH",
"290 549 OFFCURVE",
"295 488 OFFCURVE",
"295 429 CURVE SMOOTH",
"295 388 LINE",
"311 388 LINE",
"311 432 LINE SMOOTH",
"311 492 OFFCURVE",
"304 560 OFFCURVE",
"197 563 CURVE",
"197 643 LINE",
"181 643 LINE",
"181 563 LINE",
"72 563 OFFCURVE",
"67 493 OFFCURVE",
"67 432 CURVE SMOOTH",
"67 184 LINE SMOOTH",
"67 123 OFFCURVE",
"70 53 OFFCURVE",
"180 53 CURVE",
"180 -63 LINE"
);
}
);
width = 375;
}
);
leftMetricsKey = O;
note = cent;
rightMetricsKey = C;
unicode = 00A2;
},
{
glyphname = colonsign;
lastChange = "2022-05-31 12:05:51 +0000";
layers = (
{
layerId = "5E1A2ACF-25BB-4872-A226-5327BC7330DB";
paths = (
{
closed = 1;
nodes = (
"282 -12 OFFCURVE",
"340 2 OFFCURVE",
"340 118 CURVE SMOOTH",
"340 189 LINE",
"324 189 LINE",
"324 116 LINE SMOOTH",
"324 19 OFFCURVE",
"273 4 OFFCURVE",
"203 4 CURVE SMOOTH",
"138 4 OFFCURVE",
"83 19 OFFCURVE",
"83 116 CURVE SMOOTH",
"83 467 LINE SMOOTH",
"83 566 OFFCURVE",
"128 583 OFFCURVE",
"203 583 CURVE SMOOTH",
"274 583 OFFCURVE",
"324 568 OFFCURVE",
"324 473 CURVE SMOOTH",
"324 381 LINE",
"340 381 LINE",
"340 469 LINE SMOOTH",
"340 583 OFFCURVE",
"281 599 OFFCURVE",
"204 599 CURVE SMOOTH",
"127 599 OFFCURVE",
"67 585 OFFCURVE",
"67 469 CURVE SMOOTH",
"67 118 LINE SMOOTH",
"67 4 OFFCURVE",
"126 -12 OFFCURVE",
"202 -12 CURVE SMOOTH"
);
},
{
closed = 1;
nodes = (
"115 -81 LINE",
"209 659 LINE",
"194 659 LINE",
"100 -81 LINE"
);
},
{
closed = 1;
nodes = (
"198 -81 LINE",
"292 659 LINE",
"277 659 LINE",
"183 -81 LINE"
);
}
);
width = 404;
}
);
leftMetricsKey = O;
rightMetricsKey = C;
unicode = 20A1;
},
{
color = 6;
glyphname = currency;
lastChange = "2022-05-31 12:05:51 +0000";
layers = (
{
layerId = "5E1A2ACF-25BB-4872-A226-5327BC7330DB";
paths = (
{
closed = 1;
nodes = (
"118 215 LINE",
"137 199 OFFCURVE",
"162 190 OFFCURVE",
"191 190 CURVE SMOOTH",
"220 190 OFFCURVE",
"245 199 OFFCURVE",
"263 215 CURVE",
"325 159 LINE",
"332 166 LINE",
"275 225 LINE",
"291 246 OFFCURVE",
"301 271 OFFCURVE",
"301 300 CURVE SMOOTH",
"301 328 OFFCURVE",
"291 355 OFFCURVE",
"275 372 CURVE",
"332 434 LINE",
"325 441 LINE",
"265 384 LINE",
"246 400 OFFCURVE",
"219 410 OFFCURVE",
"191 410 CURVE SMOOTH",
"162 410 OFFCURVE",
"137 400 OFFCURVE",
"118 384 CURVE",
"57 441 LINE",
"50 434 LINE",
"106 374 LINE",
"90 354 OFFCURVE",
"81 329 OFFCURVE",
"81 300 CURVE SMOOTH",
"81 271 OFFCURVE",
"90 246 OFFCURVE",
"106 227 CURVE",
"50 166 LINE",
"57 159 LINE"
);
},
{
closed = 1;
nodes = (
"138 206 OFFCURVE",
"97 247 OFFCURVE",
"97 300 CURVE SMOOTH",
"97 353 OFFCURVE",
"138 394 OFFCURVE",
"191 394 CURVE SMOOTH",
"244 394 OFFCURVE",
"285 353 OFFCURVE",
"285 300 CURVE SMOOTH",
"285 247 OFFCURVE",
"244 206 OFFCURVE",
"191 206 CURVE SMOOTH"
);
}
);
width = 382;
}
);
note = currency;
unicode = 00A4;
},
{
color = 6;
glyphname = dollar;
lastChange = "2022-05-31 12:05:51 +0000";
layers = (
{
layerId = "5E1A2ACF-25BB-4872-A226-5327BC7330DB";
paths = (
{
closed = 1;
nodes = (
"222 54 OFFCURVE",
"279 79 OFFCURVE",
"279 156 CURVE SMOOTH",
"279 194 LINE SMOOTH",
"279 277 OFFCURVE",
"218 302 OFFCURVE",
"159 329 CURVE SMOOTH",
"116 349 OFFCURVE",
"56 371 OFFCURVE",
"56 437 CURVE SMOOTH",
"56 455 LINE SMOOTH",
"56 509 OFFCURVE",
"94 546 OFFCURVE",
"161 546 CURVE SMOOTH",
"228 546 OFFCURVE",
"264 519 OFFCURVE",
"264 455 CURVE SMOOTH",
"264 396 LINE",
"280 396 LINE",
"280 461 LINE SMOOTH",
"280 533 OFFCURVE",
"230 562 OFFCURVE",
"161 562 CURVE SMOOTH",
"85 562 OFFCURVE",
"40 520 OFFCURVE",
"40 464 CURVE SMOOTH",
"40 430 LINE SMOOTH",
"40 364 OFFCURVE",
"91 342 OFFCURVE",
"154 314 CURVE SMOOTH",
"209 290 OFFCURVE",
"263 269 OFFCURVE",
"263 194 CURVE SMOOTH",
"263 156 LINE SMOOTH",
"263 94 OFFCURVE",
"222 70 OFFCURVE",
"159 70 CURVE SMOOTH",
"99 70 OFFCURVE",
"57 100 OFFCURVE",
"57 159 CURVE SMOOTH",
"57 226 LINE",
"41 226 LINE",
"41 159 LINE SMOOTH",
"41 86 OFFCURVE",
"90 54 OFFCURVE",
"159 54 CURVE SMOOTH"
);
},
{
closed = 1;
nodes = (
"120 -81 LINE",
"214 659 LINE",
"198 659 LINE",
"104 -81 LINE"
);
}
);
width = 320;
}
);
leftMetricsKey = S;
note = dollar;
rightMetricsKey = S;
unicode = 0024;
},
{
color = 3;
glyphname = dong;
lastChange = "2022-05-31 12:05:51 +0000";
layers = (
{
background = {
paths = (
{
closed = 1;
nodes = (
"169 85 OFFCURVE",
"189 90 OFFCURVE",
"203 100 CURVE SMOOTH",
"215 108 OFFCURVE",
"224 120 OFFCURVE",
"230 137 CURVE",
"231 90 LINE",
"238 90 LINE",
"238 550 LINE",
"272 550 LINE",
"272 558 LINE",
"238 558 LINE",
"238 589 LINE",
"230 589 LINE",
"230 558 LINE",
"144 558 LINE",
"144 550 LINE",
"230 550 LINE",
"230 459 LINE",
"222 467 OFFCURVE",
"198 489 OFFCURVE",
"143 489 CURVE SMOOTH",
"54 489 OFFCURVE",
"49 433 OFFCURVE",
"49 385 CURVE SMOOTH",
"49 188 LINE SMOOTH",
"49 139 OFFCURVE",
"54 85 OFFCURVE",
"143 85 CURVE SMOOTH"
);
},
{
closed = 1;
nodes = (
"248 0 LINE",
"248 10 LINE",
"49 10 LINE",
"49 0 LINE"
);
},
{
closed = 1;
nodes = (
"61 93 OFFCURVE",
"58 144 OFFCURVE",
"58 191 CURVE SMOOTH",
"58 383 LINE SMOOTH",
"58 428 OFFCURVE",
"61 481 OFFCURVE",
"143 481 CURVE SMOOTH",
"208 480 OFFCURVE",
"230 449 OFFCURVE",
"230 448 CURVE SMOOTH",
"230 191 LINE SMOOTH",
"230 167 OFFCURVE",
"228 126 OFFCURVE",
"196 105 CURVE SMOOTH",
"183 97 OFFCURVE",
"165 93 OFFCURVE",
"143 93 CURVE SMOOTH"
);
}
);
};
layerId = "5E1A2ACF-25BB-4872-A226-5327BC7330DB";
paths = (
{
closed = 1;
nodes = (
"234 -7 OFFCURVE",
"273 22 OFFCURVE",
"283 50 CURVE",
"285 0 LINE",
"298 0 LINE",
"298 630 LINE",
"282 630 LINE",
"282 466 LINE",
"274 474 OFFCURVE",
"247 503 OFFCURVE",
"178 503 CURVE SMOOTH",
"65 503 OFFCURVE",
"59 433 OFFCURVE",
"59 372 CURVE SMOOTH",
"59 124 LINE SMOOTH",
"59 62 OFFCURVE",
"65 -7 OFFCURVE",
"178 -7 CURVE SMOOTH"
);
},
{
closed = 1;
nodes = (
"298 -79 LINE",
"298 -64 LINE",
"69 -64 LINE",
"69 -79 LINE"
);
},
{
closed = 1;
nodes = (
"75 9 OFFCURVE",
"75 74 OFFCURVE",
"75 127 CURVE SMOOTH",
"75 369 LINE SMOOTH",
"75 422 OFFCURVE",
"75 487 OFFCURVE",
"178 487 CURVE SMOOTH",
"260 487 OFFCURVE",
"276 450 OFFCURVE",
"282 437 CURVE",
"282 127 LINE SMOOTH",
"282 65 OFFCURVE",
"262 9 OFFCURVE",
"178 9 CURVE SMOOTH"
);
},
{
closed = 1;
nodes = (
"348 560 LINE",
"348 575 LINE",
"177 575 LINE",
"177 560 LINE"
);
}
);
width = 366;
}
);
note = dong;
unicode = 20AB;
},
{
color = 6;
glyphname = euro;
lastChange = "2022-05-31 12:05:51 +0000";
layers = (
{
layerId = "5E1A2ACF-25BB-4872-A226-5327BC7330DB";
paths = (
{
closed = 1;
nodes = (
"346 -12 OFFCURVE",
"404 2 OFFCURVE",
"404 118 CURVE SMOOTH",
"404 172 LINE",
"388 172 LINE",
"388 122 LINE SMOOTH",
"388 18 OFFCURVE",
"333 3 OFFCURVE",
"263 3 CURVE SMOOTH",
"194 3 OFFCURVE",
"139 18 OFFCURVE",
"139 122 CURVE SMOOTH",
"139 239 LINE",
"255 239 LINE",
"261 255 LINE",
"139 255 LINE",
"139 332 LINE",
"298 332 LINE",
"303 348 LINE",
"139 348 LINE",
"139 461 LINE SMOOTH",
"139 566 OFFCURVE",
"188 583 OFFCURVE",
"263 583 CURVE SMOOTH",
"321 583 OFFCURVE",
"371 568 OFFCURVE",
"371 467 CURVE SMOOTH",
"371 452 LINE",
"387 469 LINE",
"387 583 OFFCURVE",
"324 599 OFFCURVE",
"264 599 CURVE SMOOTH",
"183 599 OFFCURVE",
"123 585 OFFCURVE",
"123 469 CURVE SMOOTH",
"123 348 LINE",
"50 348 LINE",
"45 332 LINE",
"123 332 LINE",
"123 255 LINE",
"51 255 LINE",
"45 239 LINE",
"123 239 LINE",
"123 118 LINE SMOOTH",
"123 4 OFFCURVE",
"182 -12 OFFCURVE",
"262 -12 CURVE SMOOTH"
);
}
);
width = 468;
}
);
note = Euro;
rightMetricsKey = C;
unicode = 20AC;
},
{
color = 6;
glyphname = florin;
lastChange = "2022-05-31 12:05:51 +0000";
layers = (
{
layerId = "5E1A2ACF-25BB-4872-A226-5327BC7330DB";
paths = (
{
closed = 1;
nodes = (
"41 -149 OFFCURVE",
"65 -116 OFFCURVE",
"73 -60 CURVE SMOOTH",
"137 409 LINE",
"244 409 LINE",
"247 425 LINE",
"139 425 LINE",
"152 522 LINE SMOOTH",
"161 591 OFFCURVE",
"182 622 OFFCURVE",
"224 622 CURVE SMOOTH",
"241 622 OFFCURVE",
"255 621 OFFCURVE",
"266 620 CURVE SMOOTH",
"283 618 LINE",
"285 632 LINE",
"272 634 OFFCURVE",
"251 636 OFFCURVE",
"226 636 CURVE SMOOTH",
"174 636 OFFCURVE",
"148 603 OFFCURVE",
"139 542 CURVE SMOOTH",
"123 425 LINE",
"81 425 LINE",
"78 409 LINE",
"121 409 LINE",
"57 -59 LINE SMOOTH",
"52 -94 OFFCURVE",
"39 -134 OFFCURVE",
"-8 -134 CURVE SMOOTH",
"-25 -134 OFFCURVE",
"-38 -133 OFFCURVE",
"-49 -132 CURVE SMOOTH",
"-66 -130 LINE",
"-69 -145 LINE",
"-58 -147 OFFCURVE",
"-35 -149 OFFCURVE",
"-11 -149 CURVE SMOOTH"
);
}
);
width = 297;
}
);
note = florin;
rightKerningGroup = r;
unicode = 0192;
},
{
color = 6;
glyphname = franc;
lastChange = "2022-05-31 12:05:51 +0000";
layers = (
{
layerId = "5E1A2ACF-25BB-4872-A226-5327BC7330DB";
paths = (
{
closed = 1;
nodes = (
"111 0 LINE",
"111 162 LINE",
"214 162 LINE",
"214 178 LINE",
"111 178 LINE",
"111 303 LINE",
"289 303 LINE",
"289 320 LINE",
"111 320 LINE",
"111 575 LINE",
"340 575 LINE",
"340 591 LINE",
"95 591 LINE",
"95 178 LINE",
"50 178 LINE",
"50 162 LINE",
"95 162 LINE",
"95 0 LINE"
);
}
);
width = 358;
}
);
note = franc;
rightMetricsKey = F;
unicode = 20A3;
},
{
glyphname = guarani;
lastChange = "2022-05-31 12:05:51 +0000";
layers = (
{
layerId = "5E1A2ACF-25BB-4872-A226-5327BC7330DB";
paths = (
{
closed = 1;
nodes = (
"214 -81 LINE",
"214 -12 LINE",
"271 -9 OFFCURVE",
"317 29 OFFCURVE",
"328 63 CURVE",
"328 0 LINE",
"344 0 LINE",
"344 271 LINE",
"214 271 LINE",
"214 583 LINE",
"287 582 OFFCURVE",
"328 563 OFFCURVE",
"328 468 CURVE SMOOTH",
"328 401 LINE",
"344 401 LINE",
"344 469 LINE SMOOTH",
"344 581 OFFCURVE",
"292 598 OFFCURVE",
"214 599 CURVE",
"214 660 LINE",
"198 660 LINE",
"198 599 LINE",
"124 597 OFFCURVE",
"67 580 OFFCURVE",
"67 469 CURVE SMOOTH",
"67 118 LINE SMOOTH",
"67 8 OFFCURVE",
"126 -11 OFFCURVE",
"198 -12 CURVE",
"198 -81 LINE"
);
},
{
closed = 1;
nodes = (
"214 256 LINE",
"328 256 LINE",
"328 125 LINE SMOOTH",
"328 52 OFFCURVE",
"279 7 OFFCURVE",
"214 4 CURVE"
);
},
{
closed = 1;
nodes = (
"133 5 OFFCURVE",
"83 23 OFFCURVE",
"83 125 CURVE SMOOTH",
"83 468 LINE SMOOTH",
"83 562 OFFCURVE",
"126 582 OFFCURVE",
"198 583 CURVE",
"198 4 LINE"
);
}
);
width = 410;
}
);
leftMetricsKey = O;
rightMetricsKey = G;
unicode = 20B2;
},
{
glyphname = kip;
lastChange = "2022-06-09 13:41:19 +0000";
layers = (
{
layerId = "5E1A2ACF-25BB-4872-A226-5327BC7330DB";
paths = (
{
closed = 1;
nodes = (
"332 0 LINE",
"147 306 LINE",
"328 591 LINE",
"309 591 LINE",
"129 306 LINE",
"313 0 LINE"
);
},
{
closed = 1;
nodes = (
"101 0 LINE",
"101 591 LINE",
"85 591 LINE",
"85 0 LINE"
);
},
{
closed = 1;
nodes = (
"299 294 LINE",
"299 310 LINE",
"40 310 LINE",
"40 294 LINE"
);
}
);
width = 353;
}
);
unicode = 20AD;
},
